<svg xmlns="http://www.w3.org/2000/svg" viewBox="0 0 400.14 300"><defs><style>.cls-11,.cls-4,.cls-7,.cls-9{stroke-width:0}.cls-4{fill:#b8bcb8}.cls-7{fill:#d3d3d3}.cls-9{fill:#cef203}.cls-11{fill:#d8fc03}</style></defs><path fill="#e3e8f2" stroke-width="0" d="M.02 0h400v300H.02z" id="Bakgrund"/><g id="Stång" stroke-width="0"><path fill="#aaaeb5" d="M0 20.23h400v7.51H0z"/><path fill="#727479" d="M.14 24.82h400v1.72H.14z"/><path fill="#eef1f7" d="M.06 21.63h400v1.72H.06z"/></g><g id="Väst"><path class="cls-11" d="M285.5 175.52l-29.92-16.92V68.88l-29.74-4.89s-7.46 9.08-25.67 9.08-25.82-9.12-25.82-9.12l-29.59 4.92v92.41l-29.92 17.22v97.3s23.17 5.84 85.33 5.84c58.05 0 85.35-5.84 85.35-5.84V175.5z"/><path d="M200.15 278.72c-50.61 0-75.28-3.91-82.38-5.29v-93.22l29.92-17.22V71.37l25.69-4.27c3.05 2.66 11.79 8.92 26.78 8.92s23.73-6.13 26.7-8.88l25.77 4.24v88.94l29.92 16.91v96.14c-7.73 1.34-34.75 5.35-82.4 5.35z" fill="#ab9d00" stroke-width="0"/><path d="M195.48 20.23a9.53 9.53 0 0 1 2.96-.44c5.97.07 9.83 3.71 9.83 9.27 0 4.02-2.85 7.41-5.36 10.4-2.08 2.48-3.87 4.62-3.87 6.81v10.48c0 .4.33.73.73.73s.73-.33.73-.73V46.27c0-1.66 1.64-3.61 3.53-5.87 2.67-3.18 5.7-6.79 5.7-11.34 0-6.33-4.53-10.64-11.27-10.73-2.52-.03-4.56.8-6.19 1.9" fill="#8c8c8c" stroke-width="0"/><path class="cls-7" d="M209.09 26.82c-.08-.46-.16-.96-.34-1.46-.31-1.01-.83-2.1-1.63-3.04-.79-.95-1.75-1.66-2.67-2.17-.24-.12-.47-.24-.69-.35-.23-.1-.46-.18-.68-.27-.43-.19-.86-.27-1.24-.39-.77-.18-1.41-.28-1.85-.29-.44-.02-.68-.02-.69.03s.23.12.65.22c.42.09 1.03.25 1.76.48.36.14.77.24 1.17.44.2.09.42.18.63.28.21.12.42.23.64.36.86.51 1.74 1.19 2.47 2.07.75.87 1.24 1.87 1.57 2.81.18.47.27.94.38 1.37.09.44.12.86.19 1.23.02.38.04.73.06 1.03.03.31 0 .57 0 .79 0 .43.02.68.07.68.04 0 .11-.23.18-.67.03-.22.1-.48.1-.8.01-.31.03-.67.03-1.07-.03-.4-.04-.83-.12-1.3zM203.64 39.2c-.77.86-1.85 2.04-2.86 3.52-.5.75-.91 1.52-1.14 2.29-.23.78-.23 1.5-.22 2.08.04 1.17.16 1.87.24 1.87.09 0 .14-.72.21-1.86.05-.57.09-1.24.33-1.91.24-.68.63-1.4 1.11-2.11.97-1.43 1.99-2.66 2.67-3.58.69-.92 1.09-1.52 1.02-1.58-.07-.06-.59.44-1.37 1.29z"/><path d="M280.96 104.8c-.27-.17-.94-.47-1.24-.43-.24.03-.48.12-.69.27-.86.64-1.76.73-2.32.26-.44-.37-.69-1.07-.56-2.13.03-.27 0-.55-.11-.79-.11-.25-.3-.47-.55-.62-2.49-1.5-5.05-2.98-7.53-4.4-50.56-29.11-42.38-44.29-67.94-44.29s-17.38 15.18-67.94 44.29c-2.47 1.42-5.04 2.9-7.53 4.4-.25.15-.44.37-.55.62-.11.24-.15.51-.11.79.13 1.05-.11 1.76-.56 2.13-.57.46-1.46.38-2.32-.26a1.41 1.41 0 0 0-.69-.27c-.3-.03-.97.26-1.24.43-6.48 4.11-11.15 8.33-11.15 11.96 0 .74.37 1.35.95 1.67.53.3 1.21.35 1.82.02 0 0 76.47-42.61 89.32-47.53 12.86 4.92 89.32 47.53 89.32 47.53.61.32 1.28.28 1.82-.02.57-.32.95-.93.95-1.67 0-3.63-4.67-7.85-11.15-11.96z" stroke-width="0" fill="#f6b774"/><path class="cls-11" d="M255.58 106.15V68.88l-29.75-4.89-22.04 80.23c-.95 5.8-.98 15.47-.98 21.59l.12 97.93s-.73 8.77 10.23 12.08h72.35V167.67s-29.92-9.06-29.92-61.51zM144.75 106.15V68.88l29.75-4.89 22.04 80.23c.95 5.8.98 15.47.98 21.59l-.12 97.93s.73 8.77-10.23 12.08h-72.35V167.67s29.92-10.06 29.92-61.51z"/><path class="cls-9" d="M186.84 273.59h-69.79V169.16l.42-.2c6.92-3.28 29.5-17.51 29.5-62.81V68.3h1.49v37.85c0 45.29-22.35 60.21-29.92 63.95v102h68.06c7.2-2.41 7.13-7.5 7.1-8.08v-.17l.11-98.05c0-4.89 0-15.08-.91-20.84l-22.46-80.28 1.43-.4 22.47 80.36c.95 5.97.95 16.23.95 21.16l-.12 98.05c.05.78.15 6.96-8.23 9.69l-.11.04z"/><path class="cls-4" d="M197.46 227.83h-82.63v16.63h82.61l.02-16.63zM197.51 186.36h-82.68v16.62h82.66l.02-16.62z"/><path class="cls-4" d="M172.3 64.3l-16.62 2.76v130.51h16.62V64.3z"/><path class="cls-9" d="M283.27 273.59l-69.9-.04c-8.37-2.74-8.27-8.92-8.24-9.61l-.11-98.13c0-4.93 0-15.19.93-21.07l22.49-80.45 1.43.4-22.47 80.36c-.89 5.68-.89 15.86-.89 20.76l.12 98.08v.16c-.04.56-.12 5.66 7.09 8.06h68.06v-102c-7.57-3.74-29.92-18.66-29.92-63.95V68.31h1.49v37.85c0 45.3 22.58 59.53 29.5 62.81l.42.2V273.6z"/><path class="cls-4" d="M202.87 227.83h82.63v16.63h-82.61l-.02-16.63zM202.82 186.36h82.68v16.62h-82.66l-.02-16.62z"/><path class="cls-4" d="M228.03 64.3l16.62 2.76v130.51h-16.62V64.3z"/></g></svg>