<svg xmlns="http://www.w3.org/2000/svg" xmlns:xlink="http://www.w3.org/1999/xlink" viewBox="0 0 400 300"><defs><style>.cls-1{fill:#999}.cls-1,.cls-11,.cls-12,.cls-16,.cls-2,.cls-20,.cls-21,.cls-22,.cls-23,.cls-24,.cls-27,.cls-28,.cls-37,.cls-38,.cls-41,.cls-42,.cls-43,.cls-45,.cls-46,.cls-49,.cls-51,.cls-52,.cls-53,.cls-6,.cls-7,.cls-9{stroke-width:0}.cls-2{fill:#d1ea6a}.cls-6{fill:#231a1a}.cls-7{fill:#9db539}.cls-9{fill:#898989}.cls-11{fill:#070505}.cls-12{fill:#c7cad8}.cls-16{fill:#443535}.cls-20{fill:#635b5b}.cls-21{fill:#2b2b2b}.cls-22{fill:#e9e9ea}.cls-23{fill:#a99991}.cls-24{fill:#4c5354}.cls-27,.cls-55{fill:#fff}.cls-28{fill:#6d5c5c}.cls-37{fill:#9eba2d}.cls-38{fill:#edf1f4}.cls-41{fill:#c6c6c6}.cls-42{fill:#b1cf46}.cls-43{fill:#f9f9f9}.cls-45{fill:#e8e8e8}.cls-55{stroke:#999;stroke-miterlimit:10}.cls-46{fill:#cfeb59}.cls-49{fill:#9d8f86}.cls-51{fill:#eaeaea}.cls-52{fill:#aaa}.cls-53{fill:#efefef}</style><clipPath id="clippath"><path fill="none" stroke-width="0" d="M151.19 209.05H145.05v47.84h6.58v-47.84h-.44z"/></clipPath><linearGradient id="linear-gradient" x1="129.72" y1="128.32" x2="129.72" y2="90" gradientUnits="userSpaceOnUse"><stop offset="0" stop-color="#4e4646"/><stop offset=".77" stop-color="#605555"/></linearGradient><linearGradient id="linear-gradient-2" x1="135.61" y1="201.57" x2="135.61" y2="126.29" xlink:href="#linear-gradient"/><linearGradient id="linear-gradient-3" x1="158.92" y1="211.79" x2="158.92" y2="191.35" gradientUnits="userSpaceOnUse"><stop offset="0" stop-color="#4e4646"/><stop offset=".55" stop-color="#504747"/><stop offset=".85" stop-color="#584e4e"/><stop offset="1" stop-color="#605555"/></linearGradient><linearGradient id="linear-gradient-4" x1="177.17" y1="211.79" x2="177.17" y2="191.58" xlink:href="#linear-gradient"/></defs><g id="_Ñëîé_1"><path fill="#c5aa9d" stroke-width="0" d="M586.53 136.67h-5.16v-21.74h-1.96v80.99h-40.59v-42.2h-15.06V53.13h-8.51V49.3h-28.8v3.83h-53.03v142.79h-13.75V-85.49h-11.78v-13.64h-2.63v-22.59h-1.96v22.59h-2.62v13.64h-10.47v-17.48h-1.96v17.48h-38.63v281.41h-13.74V-1.85h-23.57v-7.67H283.5v7.67h-64.16v-7.67h-28.8v7.67h-13.75v12.79h-13.75v-30.27h-1.96v30.27h-15.49v-30.27h-1.97v30.27h-15.49v-30.27h-1.97v30.27h-15.49v-30.27h-1.97v30.27H94.3v-49.02h-4.58v-7.67H87.1v-22.59h-1.96v22.16H56.99v8.1H24.25v167.51h-43.86V-14.12h-5.23v-7.68h-28.81v7.68h-37.97v-97.71l-138.79 42.62v193.52h-20.95V-26.57h-9.16v-28.98h-1.97v28.98h-58.92v150.88h-12.34v159.84h920.28V136.67z"/><path d="M312.31-9.52h-28.8v7.66h-64.16v-7.67h-28.81v7.67h-13.75v5.4c53.03-.81 106.06-1.6 159.08-2.4v-3H312.3v-7.67z" fill="#e7cfc8" stroke-width="0"/><path class="cls-42" d="M331.96 199.92c-.57-2.42 2.92-4.03 2.58-6.17-.41-2.6-3-4.8-3.5-7.52-1.17-6.34-5.35-11.98-6.96-18.13-1.8-6.88 4-11.99 2.81-18.45-1.25-6.79-11.41-7.21-3.89-14.85-7.19-4.9-8.44-6.3-10.24-12.07-.83-2.68 1.62-5.23.4-8.17-1.3-3.14-6.45-4.88-7.74-8.24-.96-2.5 3.29-5.29 2.71-7.31-.68-2.39-5.33-4.18-6.23-6.35-1.96-4.73-2.94-8.03-4.96-12.73-3.38-7.87-36.19-54.42-49.9-40.23-7.09-1.13-9.41 3.42-17.23 2.05-.28 6.95-8.01 5.46-11.48 9.82-2.04 2.55-5.41 11.46-6.51 14.67-3.94 11.47-8.59 21.7-15.13 32.34-5.88 9.56-12.8 17.6-16.43 27.59-1.64 4.5-2.95 11.92-5.03 16.88-.29.71-3.79 1.44-4.5 2.84-3.74 7.3-3.33 16.36-6.66 22.1-3.76 6.48-4.69 12.1-6.61 19.18-2.34 8.62-6.55 13.75-8.54 21.57-2.39 9.4 2.62 19.66 1.19 28.94h192.05c-.19-3.52-.53-7.03-1.54-10.25-2.99-9.55-6.43-17.82-8.69-27.49z"/><path class="cls-46" d="M331.96 199.92c-.57-2.43 2.92-4.04 2.58-6.17-.41-2.6-3.01-4.8-3.5-7.52-1.17-6.34-5.35-11.98-6.96-18.13-1.8-6.87 4-11.99 2.81-18.45-1.26-6.79-11.41-7.22-3.89-14.85-7.18-4.9-8.44-6.3-10.24-12.07-.83-2.68 1.63-5.23.4-8.17-1.3-3.13-6.45-4.87-7.74-8.24-.96-2.5 3.29-5.29 2.72-7.31-.69-2.39-5.33-4.18-6.24-6.35-1.96-4.73-2.93-8.03-4.95-12.73-2.11-4.91-15.66-24.86-28.89-35.74-2.08 4.86-2.22 9.7 2.81 11.05-1.65 4.42-2.12 11.85 4.1 13.92-3.47 4.01-3.52 10.5 2.46 12.73-.82 4.65-3.25 10.45 3.86 12.75-4.77 8.52 4.22 11.24 5.33 17.06.62 3.2-3.35 7.25-2.73 11.05.49 3.05 4.93 4.08 5.23 6.3.53 3.87-.06 10.97-.03 14.56.02 1.66-1.74 5.34-1.23 6.5.41.95 3.59 5.39 3.73 6.11 1.74 8.95 1.92 19.46 2.44 28.7.07 1.38 3.03 4.13 2.93 4.92-.2 1.62-2.34 4.63-2.41 6.63-.21 6.78-.73 8.58 5.7 14.37-7.78 7.07-.37 13.65-1.1 21.31-.17 1.82-1.66 3.67-2.7 5.51h45.72c-.19-3.52-.53-7.03-1.54-10.25-2.99-9.55-6.43-17.82-8.69-27.49zM260.26 74.7c-.54-.54-1.15-1.05-1.9-1.47-.73-.43-1.59-.74-2.47-.99-.91-.2-1.84-.35-2.78-.34-1.87 0-3.64.41-5.09 1.06-2.9 1.32-4.74 3.3-5.8 5.39 2.34-1.45 4.65-2.8 7.13-3.48 2.46-.68 4.92-.54 6.66.49 1.8.99 2.78 2.76 2.8 4.63.04 1.91-.96 3.88-2.37 5.87 2.56-1.23 4.68-3.21 5.32-5.65.31-1.21.23-2.51-.32-3.75-.25-.62-.7-1.21-1.18-1.77zM275.36 177.34l-.01-.01v.01z"/><path class="cls-46" d="M282.06 179.62c-.77-.83-1.96-1.52-3.29-1.88-.66-.18-1.36-.3-2.04-.34-.35-.03-.68-.02-1.02-.02h-.22-.02c-.01 0-.03 0-.04-.01-.03 0-.05-.02-.06-.03v-.01l.01.01v-.01l.05-.35c.11-.94-.02-1.9-.39-2.8-.39-.9-1-1.74-1.79-2.47-1.59-1.45-3.81-2.48-6.28-2.86-1.23-.19-2.54-.21-3.79 0-1.25.2-2.43.65-3.32 1.27-.88.63-1.52 1.38-1.9 2.16-.37.79-.52 1.59-.54 2.38.43-.73.89-1.43 1.48-2.04.59-.61 1.3-1.12 2.11-1.45 1.6-.7 3.5-.69 5.18-.26 1.69.44 3.2 1.29 4.19 2.33 1 1.04 1.47 2.27 1.3 3.49l-.02.23c-.02.16-.05.38-.02.57.04.39.21.78.47 1.12.54.68 1.44 1.15 2.44 1.32.25.04.51.07.76.08h.56c.2 0 .41-.02.6 0 .39 0 .76.06 1.12.13.71.15 1.31.45 1.82.87.49.43.87.97 1.04 1.58.38 1.21 0 2.61-1.07 3.75-1.06 1.17-2.85 2.03-4.88 2.64 2.18-.02 4.49-.57 6.27-1.77 1.77-1.19 2.82-3.02 2.61-4.9-.09-.94-.51-1.89-1.3-2.72zM280.78 203.94c-1.08-.8-2.38-1.41-3.82-1.78-1.44-.37-3.04-.52-4.62-.27-.79.11-1.54.37-2.21.68-.65.35-1.2.77-1.57 1.25-.75.96-.91 1.99-.73 2.94.62-.85 1.31-1.61 2.17-2.09.84-.49 1.78-.68 2.74-.66 1.92.03 3.95.79 5.34 1.82 1.39 1.06 2.12 2.3 1.54 3.66-.26.7-.87 1.4-1.61 2.07-.71.71-1.66 1.31-2.58 2.02 1.31-.18 2.59-.5 3.78-1.02 1.19-.51 2.33-1.21 3.11-2.21.8-.98 1.11-2.26.75-3.43-.34-1.18-1.2-2.2-2.27-3z"/><path class="cls-42" d="M675.64 233.94c-2.53-1.67-5.24-2.68-7.88-1.52-1.08.48-1.81 1.35-3.02.52-1.24-.88-1.83-2.45-3.16-3.27-.84-.52-2.12-.29-2.68-.9-.71-.77-.92-2.24-1.4-3.14-.52-.98-1.2-1.88-1.85-2.76-.29-.38-.78-.88-.81-1.35-.07-1.4 1.81-3.1 2.73-4.01.89-.86 1.57-1.84 1.05-3.12-.18-.44-.47-.87-.82-1.26-.32-.41-.71-.79-1.12-1.15-.82-.71-1.74-1.31-2.35-1.82-.48-.35-1.01-.71-1.55-1.08-.51-.37-.98-.75-1.43-1.16-.96-.82-1.43-1.81-1.44-2.99 0-.28-.02-.52-.03-.76.01-.23 0-.45-.01-.67-.02-.41-.1-.77-.21-1.08-.08-.18-.09-.24-.26-.48-.17-.23-.33-.45-.51-.68-.37-.43-.78-.84-1.21-1.23-1.57-1.49-2.99-2.16-5.13-2.07-1.21.07-1.65-.89-1.7-1.69.22-.5.76-.93.69-.98-.06-.03-.37.03-.5-.01-.11-.03.01-.14.16-.22.3-.19.73-.29.96-.33.22-.04.14-.04-.16-.16-.07-.03-.17-.03-.25-.12-.09-.09-.19-.19-.31-.29-.14-.02-.18-.44-.28-.72-.08-.3-.19-.59-.3-.89-.22-.67-.5-1.24-.82-1.76-.31-.54-.68-1.03-1.08-1.46-.8-.85-1.73-1.56-2.72-2.16-1.96-1.22-4.1-2.21-5.79-3.84-.5-.5-1.41-1.3-2.12-2.14-.75-.87-1.3-1.76-1.16-2.64.14-.81.85-1.55 1.63-2.3.81-.74 1.65-1.46 2.11-2.11 1.22-1.71 1.85-4.41.57-6.35-.5-.71-1.53-1-1.91-1.71-.49-.92.4-2.69.65-3.66.14-.61.09-1.4-.35-1.86-1.02-1-1.23-2.48-2.41-3.39-.88-.69-2.46-.94-3.12-1.86-.14-.21-.4-.77-.59-1.33-.19-.57-.39-1.11-.29-1.36.14-.39 1.73-1.02 2.16-1.35.8-.63 1.25-1.55 1.31-2.61.1-1.05-.44-2.16-1.26-3.14-.72-.89-1.71-1.36-2.66-1.74l-1.43-.53c-.45-.18-.92-.34-1.41-.52-1.09-.41-1.56-1.18-1.85-2.11-.33-.88-.47-1.91-.67-2.83-.11-.52-.24-1.04-.42-1.56-.19-.51-.43-.98-.72-1.44-.59-.91-1.35-1.88-2.46-2.52-1.47-.86-3.05-1.31-4.65-1.49-.85-.13-1.54-.33-2.22-.61-.67-.23-1.31-.51-2.07-.84-.58-.26-1.21-.48-1.87-.64-.64-.12-1.31-.19-1.95-.17-1.29.04-2.47.4-3.25 1.34-1.2 1.42-.58 3.16-.33 4.75.31 2.14-1.28 2.01-3.07 1.53-.99-.28-2.06-.48-3.09-.51-1.04-.03-2.04.19-2.89.91-1.92 1.62-1.59 3.78-.68 5.78 1.06 2.36-1.23 1.33-2.47.51-1.67-1.04-2.26-3.22-4.78-2.55-1.04.32-1.82 1.09-2.07 2.11-.12.49.13 1.86-.13 2.21-.41.51-2.05.19-2.66.17-1.03-.04-2.1-.2-3.14-.1-1.06.12-2.16.43-2.86 1.26-.23.26-.41.58-.53.91-.19-.59-.65-1.38-.9-1.83-.69-1.2-1.7-2.22-2.18-3.54-.57-1.5-.07-2.97.06-4.51.04-.55.16-1.2-.07-1.74-.07-.16-.61-.72-.75-.84s-.02-.01-.02-.02c-.29-.27-.74-.6-.83-.91-.07-.23.19-.72.3-1.08.35-1.19.38-2.17-.16-3.3-.82-1.74-2.4-2.87-4.39-3.04-2.04-.17-3.93.43-5.84.51-1.22.02-2.17-.3-3.02-.83-.81-.55-1.53-1.31-2.31-2.12-1.2-1.18-2.28-2.56-3.74-3.14-.82-.32-1.66-.5-2.54-.49-.88.03-1.75.1-2.59.21-1.01.12-1.82.86-2.84 1.01-1.05.19-1.7-.8-2.33-1.51-.71-.8-1.55-1.44-2.47-1.75-.47-.17-.94-.24-1.45-.25-.51-.04-1.04 0-1.59.13-1.75.41-3.6 1.79-4.72 3.34-.98 1.36-1.39 3.07-3.45 1.86-.86-.5-1.35-1.45-1.76-2.48-.42-1.05-.77-2.16-1.33-2.96-1.66-2.32-3.98-2.76-6.6-3.38-1.98-.49-3.8-1.74-5.84-2-1.92-.28-3.64.68-5.16 1.67-1.45.94-2.92 2.44-4.67 2.91-1.73.47-3.65.17-5.39-.34-1.7-.49-3.06-.06-3.84 1.46a8.197 8.197 0 0 0-.85 3.38c-.02.97.57 2.63.1 3.48-.49.9-2.31.85-3.28.81-1.16-.04-1.81-.31-2.6-1.2-1.61-1.85-2.89-3.91-5.63-4.08-2.11-.13-4.66.71-6.39 1.71-.2.13-.59.44-.91.83-.26-.34-.59-.7-.53-1.12.14-.98-.49-1.73-1.42-2.03-.02-.01-.04-.01-.06-.01-.02-.11-.02-.25-.02-.32.01-.37-.07-.77-.18-1.12-.28-.91-.92-1.72-1.8-2.21-1.02-.57-2.38-.49-3.27-1.22-.78-.64-1.13-1.8-1.71-2.59-1.31-1.84-3.18-3.88-2.37-6.22.61-1.84 2.15-3.23 2.51-5.19.34-1.81-.4-3.71-1.82-5.09-1.79-1.69-4.9-1.87-5.63-4.4-.41-1.42-.72-3.38-1.42-5.16-.71-1.76-1.82-3.33-3.75-3.94-2.95-.89-4.26 2-6.35 2.93-.45.2-1.37.49-1.82.28-.41-.19-.78-1-1.12-1.32-.71-.68-1.64-1.02-2.43-1.6-.33-.25-.59-.53-.99-.7-1.4-.59-3.36.57-4.58.9-2.13.63-4.46 1.15-6.23 2.32-1.31.88-2.35 2.06-3.67 2.82-.01.01-.03.01-.07.02-.11-.61-.31-1.16-.73-1.67-.96-1.24-3.07-2.41-5.15-2.85-2.07-.33-4.09.11-4.8 2.03-.27.71-.03 1.2-.61 1.57-.88.59-2.41.51-3.39.41-.63-.06-1.24-.17-1.86-.25l-1.84-.28c-1.23-.19-2.47-.44-3.74-.41-1.23 0-2.63-.2-4.1-.44-1.47-.19-3.02-.38-4.54-.45-1.51-.1-2.97.12-4.27.53-1.29.42-2.4 1.15-3.17 2.4-.63 1.01-.75 2.15-2.18 2.11-1.49-.09-2.84-.98-4.38-.86-.99.08-1.85 1.02-2.66.86-1.01-.18-2.08-1.16-3.04-1.55-1.02-.42-2.15-.67-3.26-.9-.49-.11-1.21-.14-1.56-.46-1.03-.95-.76-3.54-.61-4.83.13-1.23.06-2.44-1.35-3.01-1.95-.72-5.2.03-7.31.52-1.57.42-3.36 1.08-5.11 1.55-1.72.52-3.45.81-5.02.45-2.75-.59-5.62.3-8.21 1.85-2.55 1.46-3.99 3.03-4.88 5.49-.89 2.76-5.1 2.05-7.25 3.63-.72.52-1.21 1.21-1.84 1.76-.51.47-1.11.71-1.74.96-1.29.5-2.58.88-3.78 1.47-2.45 1.21-4 3.22-4.71 5.67-1.36 4.9 2.33 8.69 2.76 13.28.12 1.37.51 4.67-1.03 5.61-1.44.87-4.18-.24-5.69-.3-2.01-.08-4.39.6-5.39 2.54-.37.73-.16 1.75-.6 2.41-.59.85-2.57.61-3.49.71-.59.07-1.23.39-1.5.95-.57 1.22-1.86 1.81-2.37 3.17-.38 1.04-.3 2.57-1.09 3.42-.35.39-2.02 1.44-2.55 1.31-.41-.1-1.2-1.61-1.59-2.01-1.4-1.46-3.64-1.57-5.32-.03-.7.63-1.35 1.59-1.82 2.51-.49.94-.85 1.86-1.34 2.73-.54.96-1.39 1.39-2.4 1.66-1 .29-2.14.42-3.11.69-2.2.59-4.3 1.9-5.13 4.67-.53 1.82-.34 3.71-.02 5.58.17.99.23 1.85.22 2.65 0 .41-.02.82-.04 1.24-.03.42-.08.7-.12 1.08-.27 2.25.2 4.95 2.27 6.02 1.6.82 3.2-.03 4.73-.6 2.04-.75 2.2.88 2.03 2.77-.2 2.12-.42 4.42 1.16 5.97 1.79 1.71 3.91 1.13 5.8 0 2.24-1.33 1.44 1.05.82 2.38-.88 1.77-2.98 2.62-1.96 5.05.41.99 1.25 1.69 2.31 1.83.5.07 1.83-.35 2.21-.12.54.37.47 2.08.49 2.71.06 1.06.03 2.23.24 3.32.23 1.06.62 2.3 1.52 3 .28.23.61.41.95.54-.57.23-1.32.79-1.75 1.06-1.16.83-2.13 1.96-3.43 2.53-1.47.63-2.97.13-4.51.07-.57-.02-1.21-.11-1.74.13-.16.08-.7.63-.82.79h-.01s0 .01-.01.01c-.26.29-.58.74-.89.84-.22.07-.73-.17-1.09-.26-1.19-.31-2.17-.29-3.3.24-.85.4-1.54.98-2.07 1.64-.54.65-.89 1.41-1 2.25-.29 1.64.18 3.22-.04 4.69-.07.98-.65 1.62-1.31 2.12-.34.26-.72.47-1.12.67-.41.19-.9.37-1.38.53-.72.25-1.44.48-2.07.73-.62.25-1.33.55-1.77.96-.26.24-.47.51-.62.8-.16.29-.38.63-.51.98-.3.69-.41 1.44-.6 2.22-.27.93.06 1.91-.11 2.88-.14 1.02-1.39 1.23-2.32 1.53-1.03.34-1.89.89-2.52 1.62-.69.69-1.14 1.57-1.29 2.66-.13.88-.04 1.86.19 2.84.2.96.55 1.93 1.05 2.75.88 1.43 2.27 2.48.39 3.87-1.55 1.2-4.32.14-6.14.45-2.66.45-4.05 2.25-5.66 4.29-.58.7-1.31 1.3-2.03 1.9h436.42c-.38-.31-.76-.61-1.15-.94-1.13-.99-2.35-1.95-3.6-2.78z"/><path class="cls-46" d="M675.64 233.94c-2.53-1.67-5.24-2.68-7.88-1.52-1.08.48-1.81 1.35-3.02.52-1.24-.88-1.83-2.45-3.16-3.27-.84-.52-2.12-.29-2.68-.9-.71-.77-.92-2.24-1.4-3.14-.52-.98-1.2-1.88-1.85-2.76-.29-.38-.78-.88-.81-1.35-.07-1.4 1.81-3.1 2.73-4.01.89-.86 1.57-1.84 1.05-3.12-.18-.44-.47-.87-.82-1.26-.32-.41-.71-.79-1.12-1.15-.82-.71-1.74-1.31-2.35-1.82-.48-.35-1.01-.71-1.55-1.08-.51-.37-.98-.75-1.43-1.16-.96-.82-1.43-1.81-1.44-2.99 0-.28-.02-.52-.03-.76.01-.23 0-.45-.01-.67-.02-.41-.1-.77-.21-1.08-.08-.18-.09-.24-.26-.48-.17-.23-.33-.45-.51-.68-.37-.43-.78-.84-1.21-1.23-1.57-1.49-2.99-2.16-5.13-2.07-1.21.07-1.65-.89-1.7-1.69.22-.5.76-.93.69-.98-.06-.03-.37.03-.5-.01-.11-.03.01-.14.16-.22.3-.19.73-.29.96-.33.22-.04.14-.04-.16-.16-.07-.03-.17-.03-.25-.12-.09-.09-.19-.19-.31-.29-.14-.02-.18-.44-.28-.72-.08-.3-.19-.59-.3-.89-.22-.67-.5-1.24-.82-1.76-.31-.54-.68-1.03-1.08-1.46-.8-.85-1.73-1.56-2.72-2.16-1.96-1.22-4.1-2.21-5.79-3.84-.5-.5-1.41-1.3-2.12-2.14-.75-.87-1.3-1.76-1.16-2.64.14-.81.85-1.55 1.63-2.3.81-.74 1.65-1.46 2.11-2.11 1.22-1.71 1.85-4.41.57-6.35-.5-.71-1.53-1-1.91-1.71-.49-.92.4-2.69.65-3.66.14-.61.09-1.4-.35-1.86-1.02-1-1.23-2.48-2.41-3.39-.88-.69-2.46-.94-3.12-1.86-.14-.21-.4-.77-.59-1.33-.19-.57-.39-1.11-.29-1.36.14-.39 1.73-1.02 2.16-1.35.8-.63 1.25-1.55 1.31-2.61.1-1.05-.44-2.16-1.26-3.14-.72-.89-1.71-1.36-2.66-1.74l-1.43-.53c-.45-.18-.92-.34-1.41-.52-1.09-.41-1.56-1.18-1.85-2.11-.33-.88-.47-1.91-.67-2.83-.11-.52-.24-1.04-.42-1.56-.19-.51-.43-.98-.72-1.44-.59-.91-1.35-1.88-2.46-2.52-1.47-.86-3.05-1.31-4.65-1.49-.85-.13-1.54-.33-2.22-.61-.67-.23-1.31-.51-2.07-.84-.58-.26-1.21-.48-1.87-.64-.64-.12-1.31-.19-1.95-.17-1.29.04-2.47.4-3.25 1.34-1.2 1.42-.58 3.16-.33 4.75.31 2.14-1.28 2.01-3.07 1.53-.99-.28-2.06-.48-3.09-.51-1.04-.03-2.04.19-2.89.91-1.92 1.62-1.59 3.78-.68 5.78 1.06 2.36-1.23 1.33-2.47.51-1.67-1.04-2.26-3.22-4.78-2.55-1.04.32-1.82 1.09-2.07 2.11-.12.49.13 1.86-.13 2.21-.41.51-2.05.19-2.66.17-1.03-.04-2.1-.2-3.14-.1-1.06.12-2.16.43-2.86 1.26-.23.26-.41.58-.53.91-.19-.59-.65-1.38-.9-1.83-.69-1.2-1.7-2.22-2.18-3.54-.57-1.5-.07-2.97.06-4.51.04-.55.16-1.2-.07-1.74-.07-.16-.61-.72-.75-.84s-.02-.01-.02-.02c-.29-.27-.74-.6-.83-.91-.07-.23.19-.72.3-1.08.35-1.19.38-2.17-.16-3.3-.82-1.74-2.4-2.87-4.39-3.04-2.04-.17-3.93.43-5.84.51-1.22.02-2.17-.3-3.02-.83-.81-.55-1.53-1.31-2.31-2.12-1.2-1.18-2.28-2.56-3.74-3.14-.82-.32-1.66-.5-2.54-.49-.88.03-1.75.1-2.59.21-1.01.12-1.82.86-2.84 1.01-1.05.19-1.7-.8-2.33-1.51-.71-.8-1.55-1.44-2.47-1.75-.47-.17-.94-.24-1.45-.25-.51-.04-1.04 0-1.59.13-1.75.41-3.6 1.79-4.72 3.34-.98 1.36-1.39 3.07-3.45 1.86-.86-.5-1.35-1.45-1.76-2.48-.42-1.05-.77-2.16-1.33-2.96-1.66-2.32-3.98-2.76-6.6-3.38-1.98-.49-3.8-1.74-5.84-2-1.92-.28-3.64.68-5.16 1.67-1.45.94-2.92 2.44-4.67 2.91-1.73.47-3.65.17-5.39-.34-1.7-.49-3.06-.06-3.84 1.46a8.197 8.197 0 0 0-.85 3.38c-.02.97.57 2.63.1 3.48-.49.9-2.31.85-3.28.81-1.16-.04-1.81-.31-2.6-1.2-1.61-1.85-2.89-3.91-5.63-4.08-2.11-.13-4.66.71-6.39 1.71-.2.13-.59.44-.91.83-.26-.34-.59-.7-.53-1.12.14-.98-.49-1.73-1.42-2.03-.02-.01-.04-.01-.06-.01-.02-.11-.02-.25-.02-.32.01-.37-.07-.77-.18-1.12-.28-.91-.92-1.72-1.8-2.21-1.02-.57-2.38-.49-3.27-1.22-.78-.64-1.13-1.8-1.71-2.59-1.31-1.84-3.18-3.88-2.37-6.22.61-1.84 2.15-3.23 2.51-5.19.34-1.81-.4-3.71-1.82-5.09-1.79-1.69-4.9-1.87-5.63-4.4-.41-1.42-.72-3.38-1.42-5.16-.71-1.76-1.82-3.33-3.75-3.94-2.95-.89-4.26 2-6.35 2.93-.45.2-1.37.49-1.82.28-.41-.19-.78-1-1.12-1.32-.71-.68-1.64-1.02-2.43-1.6-.33-.25-.59-.53-.99-.7-1.4-.59-3.36.57-4.58.9-2.13.63-4.46 1.15-6.23 2.32-1.31.88-2.35 2.06-3.67 2.82-.01.01-.03.01-.07.02-.11-.61-.31-1.16-.73-1.67-.96-1.24-3.07-2.41-5.15-2.85-2.07-.33-4.09.11-4.8 2.03-.27.71-.03 1.2-.61 1.57-.88.59-2.41.51-3.39.41-.63-.06-1.24-.17-1.86-.25l-1.84-.28c-1.23-.19-2.47-.44-3.74-.41-1.23 0-2.63-.2-4.1-.44-1.47-.19-3.02-.38-4.54-.45-1.51-.1-2.97.12-4.27.53-1.29.42-2.4 1.15-3.17 2.4-.63 1.01-.75 2.15-2.18 2.11-1.49-.09-2.84-.98-4.38-.86-.99.08-1.85 1.02-2.66.86-1.01-.18-2.08-1.16-3.04-1.55-1.02-.42-2.15-.67-3.26-.9-.49-.11-1.21-.14-1.56-.46-1.03-.95-.76-3.54-.61-4.83.13-1.23.06-2.44-1.35-3.01-1.95-.72-5.2.03-7.31.52-.27.07-.54.16-.82.24-1.12.32-2.32.73-3.51 1.08.02 1 .37 1.84.8 2.76.36.75.31.73-.25 1.26-.87.81-1.16 1.57-1.13 2.52-1.6 1.59-2.13 4.17-.62 5.88.65.77 1.73 1.09 2.65.53.16.09.38.17.47.23.55.32 1.1.68 1.61 1.08 1.3 1 1.67 1.77 1.13 3.35-.45 1.29-1.03 2.52-.98 3.91 0 2.02 2.45 6.53 4.69 7.62 1.47.78 2.55.39 3.5-.29.96-.7 1.93-1.72 2.99-2.38.04-.01 1-.37 1.56-.57.08.68.64 1.79.98 2.21 1.21 1.82 2.62 3.53 4.66 4.11 1.04.32 2.12.43 3.17.52 1.06.09 2.1.16 3.15.36.88.17 1.38.63 1.74 1.21.19.29.32.62.49.94.19.32.37.64.58.94.35.53.79 1.01 1.21 1.47.44.47.96.9 1.38 1.4.41.48.62.99.7 1.54.1.55.09 1.15-.03 1.82-.19 1.11-.42 2.23-.43 3.34.04 1.09.31 2.16 1.08 3.18 1.42 1.83 3.64 2.82 5.79 1.84 1.76-.78 3.04-2.08 5.15-1.66 1.41.29 2 1.32 2.38 2.52.4 1.21.6 2.58 1.41 3.57.91 1.11 2.03 1.69 3.38 2.05 1.28.34 2.27.93 3.35 1.73 1.73 1.33 2.36 2.61 2.53 4.66.21 2.67.01 5.29 1.33 7.82.55 1.06 1.29 1.96 2.1 2.81.8.83 1.55 1.43 2.32 2.16.5.5 1.18 1.08 1.2 1.86.06 1.32-1.08 1.62-1.99 2.1-1.41.74-2.13 2.27-2.08 3.88-1.06.83-2.33 1.41-3.27 2.38-1.04 1.1-1.6 2.5-1.9 3.99-.23 1.19-.33 2.27-.73 3.37-.36.98-.58 2.04-.16 3.23.23.62.59 1.26 1.13 1.81.57.53 1.24.99 1.94 1.26.69.28 1.36.37 1.96.26.4-.07.88-.53 1.24-.51.24 0 .74.41 1.36.82.61.42 1.26.89 1.61 1.12 1.47.99 2.88 2.1 4.7 2.59 1.41.45 2.63.51 3.59.22.95-.27 1.68-.98 2.11-1.87.01-.03.04-.11.1-.21.07.11.14.23.22.38.5.82 1.35 1.55 2.23 2.24.93.79 2.06 1.39 3.29 1.83 1.22.42 2.56.72 3.78.41 2.75-.57 3.86-2.66 3.13-4.64-.29-.74-1.4-1.96-1.11-2.72.27-.77 1.33-.58 2.03-.47 2.22.2 4.56.9 6.6-.22 1.82-.91 2.57-2.65 2.22-4.46-.15-.83-.51-1.56-.82-2.34-.11-.29-.32-.65-.34-.96-.03-.35-.06-.22-.01-.27.62-.94 2.63-.34 3.53-.27 1.15.11 2.28-.09 3.38-.44 2.26-.73 3.61-1.34 5.6.16 1.55 1.16 2.98 2.44 4.92 2.93 2.03.51 3.84-.21 5.42-1.44.74-.54 1.43-1.24 2.26-1.72.61-.34.71-.45.95-.08.51.89.29 2.15.8 3.08.47.85 1.15 1.45 2.08 1.8.8.27 1.77.42 2.74.4.96 0 1.93-.09 2.71-.44 1.18-.52 1.93-1.51 2.92-2.27.72-.57 1.69-.54 2.61-.74 1.05.64 2.11 1.42 3.2 1.74.55.17 1.12.24 1.7.18.59-.03 1.19-.21 1.81-.58.82-.48 1.08-1.23 2.11-.69.98.51 1.55 1.74 2.1 2.6 1.2 1.83 2.58 3.81 4.98 4.06 2.34.25 4.56-1.23 6.31-2.57 1.65-1.26 3.16-2.78 4.26-4.55 1.29-2.07 2.43-4.72 4.95-5.74 2.97-1.21 4.97.54 7.31 2.13 1.29.89 2.43 1.49 3.98 1.7 1.66.24 2.35.92 3.57 2.03 1.94 1.8 4.14 2.64 6.61 1.57 1.25-.54 1.92-.64 3.27-.28.57.16 1.18.33 1.75.58.58.23 1.13.53 1.67.93 1.11.83 1.39 2.15 2.32 3.13 1.08 1.12 2.55 2.07 3.96 2.85 1.31.7 2.63 1.42 3.91 2.17 1.29.72 2.56 1.55 3.78 2.52-.44.33-.84.84-1.14 1.19-1.21 1.36-2.54 3.34-2.41 5.25.11 1.67 1.41 2.91 2.25 4.3.52.84.8 1.81 1.09 2.74.28.95.54 1.9 1.09 2.67.76 1.05 1.69.96 2.67 1.54.37.21.68.71.91 1.26.22.58.41 1.16.63 1.54.61.96 1.31 1.66 2.18 2.05.43.19.92.3 1.44.34.5.06 1.04.03 1.62-.07 1.18-.19 1.94-.27 2.9.59.91.81 1.67 1.82 2.26 2.88 1.29 2.15 2.25 4.52 3.73 6.59h-.01c1.59 2.3 2.44 5.07 4.16 7.31 1.27 1.69 3.43 3.69 5.73 3.29.65-.13 1.42-.91 1.9-.61.72.42 1.06 2.26 1.19 3.03.19 1.3-1.05 1.96-.58 3.42.06.17.14.33.23.5h88.54c-.38-.31-.76-.61-1.15-.94-1.13-.99-2.35-1.95-3.6-2.78z"/><path class="cls-37" d="M386.77 233.25c-1.04-.34-1.81-.83-2.56-1.53-1.23-1.08-1.5-2.12-1.3-3.89.14-1.14.34-2.31.38-3.43.03-1.14-.08-2.27-.61-3.29-.42-.85-1.05-1.54-1.77-2.14-.7-.61-1.49-1.13-2.25-1.7-.5-.4-1.19-.84-1.28-1.57-.15-1.23.93-1.69 1.76-2.3 1.31-.94 1.85-2.45 1.76-3.99.96-.93 2.11-1.67 2.95-2.75.91-1.19 1.38-2.59 1.66-4.07.2-1.16.3-2.18.68-3.26.33-.96.55-1.97.22-2.99-.35-1.1-1.29-2.03-2.4-2.37-.53-.17-1.09-.16-1.6.02-.33.11-.79.6-1.1.63-.38.04-1.64-1.14-2.11-1.53-.96-.8-1.92-1.67-3.07-2.18-1.85-.82-3.55-.29-4.72 1.32-.02.03-.08.1-.14.19-.01-.11-.03-.23-.06-.37-.1-.82-.47-1.6-.85-2.33-.8-1.55-2.05-3.23-3.88-3.44-2.02-.28-3.78 1.19-4.22 3.15-.17.74.07 2.18-.48 2.76-.54.6-1.24.06-1.71-.29-1.51-1.1-2.77-2.63-4.79-2.73-1.76-.11-3.32.89-4.11 2.54-.38.74-.55 1.54-.77 2.35-.08.29-.13.7-.29.96-.19.3-.09.2-.16.22-1.03.43-2.16-1.21-2.77-1.77-.8-.73-1.69-1.25-2.69-1.63-2.07-.75-3.37-1.12-3.78-3.46-.3-1.82-.45-3.63-1.42-5.18-1.03-1.6-2.72-2.13-4.56-2.17-.88-.01-1.77.09-2.65-.04-.63-.11-.78-.09-.69-.52.23-.96 1.21-1.8 1.49-2.79.24-.93.2-1.81-.23-2.61-.78-1.33-2.26-2.79-3.79-3.16-1.14-.29-2.28.02-3.49.08-.87.02-1.53-.54-2.3-.92-.6-2.23-1.12-4.47-3.83-4.8-.9-.1-1.56.3-1.91-.71-.31-.98.06-2.15.3-3.1.24-1.01.47-2.06.45-3.04.03-1-.18-1.92-.87-2.68-.62-.79-1.56-1.25-2.63-1.59-1.03-.33-2.16-.54-3.23-.7-2.03-.28-4.09-.5-6.19-.32-2.43.19-5.3.91-7.66-1.09-1.44-1.19-1.94-2.63-2.16-4.18-.12-1.51.06-3.16.34-4.75.27-1.82.45-3.2.13-4.93-.28-1.82.14-2.81.91-4.34 1.19-2.48 1.53-4.7.09-6.9-.11.11-.21.24-.28.39-.5 1.09-1.57 1.66-2.17 2.74-.08.13-.14.28-.2.43-.21.58-.28 1.3-.43 1.97-.12.54-.3 1.06-.65 1.44l-.01.01c-.38.4-2.01 1.43-2.54 1.3-.41-.1-1.2-1.61-1.59-2.01-1.4-1.46-3.64-1.57-5.32-.03-.7.63-1.35 1.59-1.82 2.51-.49.94-.85 1.86-1.34 2.73-.54.96-1.39 1.39-2.4 1.66-1 .29-2.14.42-3.11.69-2.2.59-4.3 1.9-5.13 4.67-.53 1.82-.34 3.71-.02 5.58.17.99.23 1.85.22 2.65 0 .41-.02.82-.04 1.24-.03.42-.08.7-.12 1.08-.27 2.25.2 4.95 2.27 6.02 1.6.82 3.2-.03 4.73-.6 2.04-.75 2.2.88 2.03 2.77-.2 2.12-.42 4.42 1.16 5.97 1.79 1.71 3.91 1.13 5.8 0 2.24-1.33 1.44 1.05.82 2.38-.88 1.77-2.98 2.62-1.96 5.05.41.99 1.25 1.69 2.31 1.83.5.07 1.83-.35 2.21-.12.54.37.47 2.08.49 2.71.06 1.06.03 2.23.24 3.32.23 1.06.62 2.3 1.52 3 .28.23.61.41.95.54-.57.23-1.32.79-1.75 1.06-1.16.83-2.13 1.96-3.43 2.53-1.47.63-2.97.13-4.51.07-.57-.02-1.21-.11-1.74.13-.16.08-.7.63-.82.79h-.01s0 .01-.01.01c-.26.29-.58.74-.89.84-.22.07-.73-.17-1.09-.26-1.19-.31-2.17-.29-3.3.24-.85.4-1.54.98-2.07 1.64-.54.65-.89 1.41-1 2.25-.29 1.64.18 3.22-.04 4.69-.07.98-.65 1.62-1.31 2.12-.34.26-.72.47-1.12.67-.41.19-.9.37-1.38.53-.72.25-1.44.48-2.07.73-.62.25-1.33.55-1.77.96-.26.24-.47.51-.62.8-.16.29-.38.63-.51.98-.3.69-.41 1.44-.6 2.22-.27.93.06 1.91-.11 2.88-.14 1.02-1.39 1.23-2.32 1.53-1.03.34-1.89.89-2.52 1.62-.69.69-1.14 1.57-1.29 2.66-.13.88-.04 1.86.19 2.84.2.96.55 1.93 1.05 2.75.88 1.43 2.27 2.48.39 3.87-1.55 1.2-4.32.14-6.14.45-2.66.45-4.05 2.25-5.66 4.29-.58.7-1.31 1.3-2.03 1.9h145.71c0-.85-.01-1.71-.36-2.4-.53-1.06-1.44-1.64-2.55-2.01z"/><path class="cls-46" d="M342.5 106.68c-.35-.25-.72-.47-1.09-.69-.4-.19-.81-.36-1.22-.53-.43-.12-.88-.22-1.32-.32-.45-.04-.91-.08-1.37-.1-.46.04-.91.09-1.36.15-.44.11-.88.23-1.31.37-.4.18-.81.38-1.2.58-.36.24-.73.47-1.06.73a9.036 9.036 0 0 0-2.78 3.93c-.52 1.47-.67 3.07-.34 4.55.33 1.47 1.17 2.84 2.38 3.52-.19-1.37-.02-2.5.34-3.5.36-.99.88-1.85 1.48-2.57.61-.72 1.29-1.3 1.98-1.67.69-.38 1.33-.55 1.97-.56.64-.02 1.29.13 2 .47.7.34 1.42.89 2.05 1.59.64.7 1.19 1.53 1.59 2.51.4.98.62 2.11.48 3.48 1.18-.73 1.96-2.13 2.22-3.62.27-1.5.06-3.08-.53-4.53a8.932 8.932 0 0 0-2.94-3.81z"/><path class="cls-42" d="M266.95 231.16c-.12-2.85-1.81-4.49-3.65-6.45-1.39-1.5-2.22-3.54-3.78-4.88-1.45-1.29-3.41-1.43-5.23-1.44-1.73-.01-3.78.44-5.5-.14-1.7-.56-3.14-1.87-4.31-3.25-1.15-1.34-2.53-1.73-4.01-.89a8.15 8.15 0 0 0-2.57 2.36c-.55.79-.97 2.51-1.83 2.96-.9.48-2.4-.55-3.19-1.13-.95-.68-1.34-1.25-1.51-2.43-.33-2.43-.27-4.86-2.46-6.51-1.69-1.27-4.28-1.97-6.27-2.08-.24 0-.73.05-1.22.2-.02-.43-.11-.91.17-1.23.66-.74.54-1.71-.07-2.48-.01-.02-.03-.03-.04-.04.04-.1.12-.23.16-.28.21-.3.37-.68.47-1.03.27-.91.18-1.94-.29-2.83-.54-1.03-1.72-1.72-2.06-2.82-.29-.96.04-2.12 0-3.11-.08-2.26-.53-4.99 1.44-6.5 1.52-1.2 3.57-1.51 4.95-2.96 1.28-1.32 1.71-3.32 1.28-5.25-.56-2.39-3.06-4.26-2.29-6.77.44-1.41 1.26-3.22 1.65-5.09.38-1.86.31-3.78-.97-5.35-1.98-2.36-4.65-.67-6.92-1.05-.49-.08-1.42-.35-1.67-.77-.24-.38-.1-1.26-.21-1.72-.22-.95-.81-1.75-1.15-2.67-.14-.4-.2-.77-.44-1.13-.84-1.26-3.12-1.37-4.32-1.77-2.13-.64-4.36-1.49-6.48-1.49-1.57.01-3.1.43-4.61.34-.02 0-.03 0-.07-.02.24-.57.38-1.14.31-1.8-.12-1.57-1.24-3.7-2.73-5.21-1.55-1.42-3.48-2.16-5.13-.94-.61.45-.69.98-1.38.98-1.05 0-2.29-.9-3.06-1.52-.5-.39-.95-.82-1.42-1.24l-1.39-1.24c-.92-.83-1.82-1.73-2.9-2.4-1.03-.68-2.09-1.61-3.19-2.63-1.13-.97-2.31-1.97-3.54-2.87-1.2-.91-2.55-1.53-3.86-1.9-1.31-.35-2.63-.35-3.97.26-1.08.5-1.81 1.38-2.98.56-1.19-.89-1.83-2.38-3.18-3.13-.87-.48-2.11-.17-2.7-.74-.75-.7-1.1-2.12-1.68-2.97-.62-.91-1.43-1.74-2.23-2.54-.35-.36-.93-.78-1.06-1.24-.34-1.36 1.31-3.38 2.15-4.37.79-.96 1.39-2.01.52-3.25-1.23-1.67-4.36-2.83-6.39-3.58-1.55-.51-3.4-.95-5.12-1.51-1.72-.51-3.33-1.22-4.45-2.38-1.97-2-4.86-2.84-7.87-2.96-2.94-.18-5 .33-7.09 1.9-2.26 1.82-5.39-1.09-8.05-.96-.89.04-1.67.35-2.51.46-.68.11-1.32-.02-1.98-.15-1.35-.29-2.64-.69-3.97-.85-2.71-.34-5.11.49-7.05 2.14-3.83 3.34-2.83 8.54-5 12.62-.65 1.22-2.14 4.18-3.95 4.12-1.68-.07-3.36-2.5-4.59-3.38-1.63-1.17-4-1.91-5.9-.84-.71.41-1.09 1.38-1.82 1.68-.96.39-2.48-.9-3.31-1.33-.53-.27-1.24-.35-1.77-.03-1.14.71-2.55.49-3.73 1.35-.89.66-1.66 1.98-2.79 2.26-.51.13-2.48.09-2.85-.31-.29-.31-.12-2-.22-2.55-.36-1.99-2.17-3.31-4.43-2.95-.93.14-2 .58-2.9 1.09-.93.52-1.74 1.09-2.62 1.54-.98.51-1.92.4-2.92.07-.99-.31-2.02-.82-2.97-1.13-2.16-.72-4.64-.78-6.85 1.08-1.44 1.23-2.33 2.91-3.08 4.65-.4.92-.82 1.68-1.27 2.34-.23.34-.47.67-.72 1.01-.26.33-.45.54-.69.83-1.46 1.73-2.55 4.24-1.41 6.28.88 1.56 2.7 1.73 4.28 2.1 2.12.49 1.35 1.94.17 3.43-1.33 1.66-2.78 3.46-2.31 5.62.55 2.41 2.65 3.1 4.84 3.19 2.6.12.63 1.67-.63 2.44-1.71 1-3.93.55-4.41 3.14-.2 1.05.12 2.1.92 2.8.38.33 1.72.71 1.91 1.11.25.6-.76 2-1.08 2.53-.54.92-1.2 1.88-1.62 2.9-.39 1.02-.74 2.26-.38 3.35.1.35.28.68.5.98-.6-.12-1.54-.07-2.05-.07-1.43.05-2.86.47-4.25.23-1.58-.28-2.56-1.52-3.81-2.43-.46-.33-.95-.76-1.53-.85-.17-.02-.93.14-1.12.21s0 0-.02 0c-.37.1-.89.3-1.2.22-.22-.07-.52-.54-.77-.81-.82-.91-1.66-1.44-2.89-1.61-.93-.14-1.82-.03-2.63.23-.81.25-1.52.69-2.07 1.33-1.14 1.21-1.62 2.78-2.62 3.89-.59.78-1.44.99-2.26 1.05-.43.02-.86 0-1.3-.06-.45-.07-.95-.19-1.44-.31-.74-.18-1.47-.39-2.13-.53-.66-.13-1.42-.27-2.01-.17-.35.06-.67.17-.96.33-.29.16-.66.32-.96.54-.63.41-1.13.98-1.72 1.52-.73.63-1 1.62-1.68 2.35-.68.77-1.83.27-2.78 0-1.05-.28-2.06-.3-2.99-.03-.95.2-1.82.69-2.54 1.52-.59.66-1.06 1.53-1.4 2.48-.36.92-.6 1.92-.63 2.88-.05 1.68.53 3.32-1.8 3.45-1.96.15-3.69-2.26-5.38-3-2.47-1.08-4.62-.34-7.08.48-1.89.57-4.08.37-5.94 1.18-1.78.73-2.81 2.4-3.63 4.01-.79 1.54-1.31 3.58-2.6 4.84-1.28 1.28-3.09 1.96-4.86 2.4-1.72.43-2.67 1.5-2.58 3.2.08 1.13.43 2.34.99 3.34.46.85 1.79 1.99 1.82 2.96.03 1.03-1.54 1.89-2.36 2.36-1.01.54-1.68.64-2.79.28-2.26-.76-4.37-1.84-6.71-.55-1.75 1.04-3.34 3.12-4.16 4.91-.08.21-.22.68-.25 1.17-.38-.15-.83-.25-1-.64-.39-.88-1.28-1.15-2.14-.86-.02 0-.04.02-.05 0-.08-.06-.14-.19-.2-.25-.18-.29-.46-.58-.73-.81-.71-.59-1.65-.9-2.59-.81-1.07.16-2.02 1.03-3.09.98-.92-.05-1.87-.78-2.76-1.06-2.02-.61-4.6-1-5.54-3.3-.74-1.8-.49-3.83-1.52-5.56-.95-1.64-2.79-2.51-4.86-2.5-1.27.01-2.56.49-3.8.89-1.22.43-2.43.68-3.65.08-1.36-.64-3.12-1.8-5.01-2.37-1.88-.55-3.97-.63-5.87.55-1.5.91-1.64 2.05-1.71 3.26-.02 1.21.19 2.46-.1 3.57-.13.47-.47 1.39-.92 1.58-.41.18-1.27-.05-1.73.01-.96.11-1.78.63-2.72.88-.4.11-.77.1-1.15.3-1.32.69-1.68 2.88-2.17 4.06-.86 2.01-1.93 4.11-2.2 6.19-.21 1.52 0 3.11-.29 4.6 0 .02-.02.04-.03.06-.53-.31-1.08-.52-1.72-.55-3.15-.25-9.13 2.92-7.39 6.66.31.68.83.86.7 1.55-.21 1.01-1.38 2.05-2.16 2.68-.98.8-2.03 1.48-3.1 2.15-1.06.7-2.09 1.41-3.04 2.25-.94.81-2.15 1.55-3.41 2.34-.73.47-1.48.94-2.23 1.43h403.5c-.05-.08-.09-.16-.14-.25-.45-.89-.33-1.96-.11-3.04.23-1.11.55-2.23.52-3.2zM270.71 237.66h5.76c-.08-.03-.15-.08-.24-.11-1.61-.59-3.77-.49-5.52.11z"/><path class="cls-46" d="M266.95 231.16c-.12-2.85-1.81-4.49-3.65-6.45-1.39-1.5-2.22-3.54-3.78-4.88-1.45-1.29-3.41-1.43-5.23-1.44-1.73-.01-3.78.44-5.5-.14-1.7-.56-3.14-1.87-4.31-3.25-1.15-1.34-2.53-1.73-4.01-.89a8.15 8.15 0 0 0-2.57 2.36c-.55.79-.97 2.51-1.83 2.96-.9.48-2.4-.55-3.19-1.13-.95-.68-1.34-1.25-1.51-2.43-.33-2.43-.27-4.86-2.46-6.51-1.69-1.27-4.28-1.97-6.27-2.08-.24 0-.73.05-1.22.2-.02-.43-.11-.91.17-1.23.66-.74.54-1.71-.07-2.48-.01-.02-.03-.03-.04-.04.04-.1.12-.23.16-.28.21-.3.37-.68.47-1.03.27-.91.18-1.94-.29-2.83-.54-1.03-1.72-1.72-2.06-2.82-.29-.96.04-2.12 0-3.11-.08-2.26-.53-4.99 1.44-6.5 1.52-1.2 3.57-1.51 4.95-2.96 1.28-1.32 1.71-3.32 1.28-5.25-.56-2.39-3.06-4.26-2.29-6.77.44-1.41 1.26-3.22 1.65-5.09.38-1.86.31-3.78-.97-5.35-1.98-2.36-4.65-.67-6.92-1.05-.49-.08-1.42-.35-1.67-.77-.24-.38-.1-1.26-.21-1.72-.22-.95-.81-1.75-1.15-2.67-.14-.4-.2-.77-.44-1.13-.84-1.26-3.12-1.37-4.32-1.77-2.13-.64-4.36-1.49-6.48-1.49-1.57.01-3.1.43-4.61.34-.02 0-.03 0-.07-.02.24-.57.38-1.14.31-1.8-.12-1.57-1.24-3.7-2.73-5.21-1.55-1.42-3.48-2.16-5.13-.94-.61.45-.69.98-1.38.98-1.05 0-2.29-.9-3.06-1.52-.5-.39-.95-.82-1.42-1.24l-1.39-1.24c-.92-.83-1.82-1.73-2.9-2.4-1.03-.68-2.09-1.61-3.19-2.63-1.13-.97-2.31-1.97-3.54-2.87-1.2-.91-2.55-1.53-3.86-1.9-1.31-.35-2.63-.35-3.97.26-1.08.5-1.81 1.38-2.98.56-1.19-.89-1.83-2.38-3.18-3.13-.87-.48-2.11-.17-2.7-.74-.75-.7-1.1-2.12-1.68-2.97-.62-.91-1.43-1.74-2.23-2.54-.35-.36-.93-.78-1.06-1.24-.34-1.36 1.31-3.38 2.15-4.37.79-.96 1.39-2.01.52-3.25-1.23-1.67-4.36-2.83-6.39-3.58-.26-.09-.54-.17-.82-.25-1.11-.35-2.34-.66-3.53-1.03-.53.85-.71 1.74-.85 2.75-.12.83-.14.78-.91.92-1.17.2-1.84.68-2.33 1.48-2.21.45-4.07 2.31-3.75 4.57.13 1 .85 1.86 1.92 1.9.08.16.22.35.26.45.29.57.55 1.17.75 1.78.54 1.55.42 2.4-.9 3.42-1.09.82-2.25 1.54-2.97 2.73-1.11 1.69-1.54 6.8-.27 8.94.81 1.46 1.92 1.73 3.09 1.69 1.19-.05 2.56-.38 3.81-.35.04.02 1.04.24 1.62.39-.31.61-.44 1.84-.4 2.38.01 2.18.25 4.38 1.63 6 .69.84 1.53 1.53 2.36 2.18.84.66 1.67 1.28 2.44 2.03.64.62.8 1.28.79 1.97 0 .34-.07.7-.11 1.06-.02.37-.05.74-.04 1.1 0 .64.1 1.28.2 1.9.11.63.31 1.28.38 1.92.08.62-.02 1.17-.26 1.67-.22.52-.56 1.01-1.03 1.5-.77.82-1.58 1.63-2.2 2.55-.56.93-.93 1.98-.85 3.25.18 2.31 1.49 4.35 3.82 4.72 1.9.32 3.68-.07 5.21 1.44 1.02 1.01.94 2.2.61 3.41-.33 1.23-.92 2.49-.79 3.76.15 1.43.77 2.52 1.7 3.57.88.99 1.39 2.03 1.85 3.29.71 2.06.54 3.48-.45 5.28-1.29 2.35-2.9 4.42-3.19 7.26-.12 1.19 0 2.35.21 3.5.21 1.13.51 2.05.75 3.08.14.69.39 1.54-.02 2.21-.68 1.13-1.79.76-2.81.66-1.58-.15-3.03.73-3.87 2.1-1.35.11-2.72-.1-4.04.19-1.47.34-2.71 1.21-3.78 2.29-.85.86-1.53 1.72-2.46 2.41-.83.62-1.6 1.39-1.9 2.61-.15.65-.2 1.38-.05 2.13.18.76.5 1.51.93 2.12.42.61.94 1.06 1.5 1.29.37.16 1.02.04 1.32.26.2.13.39.75.69 1.44.28.69.57 1.44.73 1.82.69 1.64 1.26 3.34 2.5 4.75.93 1.15 1.91 1.87 2.88 2.16.94.3 1.94.11 2.79-.41.03-.02.1-.07.2-.12 0 .13 0 .27-.02.44-.02.45.05.92.15 1.41h114.05c-.05-.08-.09-.16-.14-.25-.45-.89-.33-1.96-.11-3.04.23-1.11.55-2.23.52-3.2zM270.71 237.66h5.76c-.08-.03-.15-.08-.24-.11-1.61-.59-3.77-.49-5.52.11z"/><path class="cls-37" d="M111.35 220.29c-.34-.09-.99.07-1.26-.08-.34-.17-.74-1.86-.92-2.44-.37-1.2-.68-2.45-1.37-3.51-1.1-1.7-2.81-2.19-4.67-1.49-.04.02-.12.04-.22.08.05-.1.1-.21.15-.34.37-.74.49-1.59.57-2.41.19-1.74.06-3.82-1.35-5-1.53-1.34-3.81-1.09-5.26.31-.55.53-1.15 1.86-1.92 2.04-.78.2-1.07-.64-1.27-1.18-.66-1.75-.87-3.72-2.5-4.91-1.41-1.06-3.26-1.08-4.83-.14-.72.41-1.31.98-1.93 1.54-.22.2-.5.51-.77.65-.32.15-.18.12-.25.1-1.1-.21-1.14-2.2-1.34-3.01-.26-1.05-.72-1.97-1.36-2.84-1.32-1.77-2.2-2.79-1.26-4.97.75-1.68 1.61-3.28 1.66-5.11.02-1.9-1.1-3.27-2.61-4.32-.73-.49-1.53-.9-2.19-1.49-.47-.44-.6-.5-.29-.81.72-.68 2-.84 2.78-1.52.72-.64 1.16-1.4 1.24-2.31.08-1.54-.35-3.58-1.43-4.72-.8-.87-1.92-1.24-2.96-1.86-.73-.46-.98-1.29-1.41-2.03.72-2.19 1.52-4.35-.56-6.11-.7-.58-1.47-.61-1.2-1.64.28-.99 1.23-1.77 1.96-2.43.76-.71 1.52-1.47 2.05-2.29.58-.82.91-1.7.75-2.72-.09-1-.62-1.91-1.32-2.77-.68-.84-1.51-1.64-2.31-2.36-1.54-1.35-3.14-2.67-4.99-3.67-2.13-1.18-4.93-2.15-5.8-5.12-.55-1.78-.18-3.26.49-4.68.73-1.33 1.78-2.61 2.9-3.78 1.22-1.37 2.14-2.43 2.82-4.05.77-1.67 1.66-2.26 3.14-3.12 2.36-1.42 3.86-3.09 3.87-5.71-.15.03-.31.09-.44.17-1.01.63-2.23.52-3.32 1.09-.14.07-.27.15-.4.25-.49.37-.94.93-1.45 1.41-.4.39-.83.72-1.34.84h-.02c-.53.13-2.46.09-2.83-.31-.29-.31-.12-2-.22-2.55-.36-1.99-2.17-3.31-4.43-2.95-.93.14-2 .58-2.9 1.09-.93.52-1.74 1.09-2.62 1.54-.98.51-1.92.4-2.92.07-.99-.31-2.02-.82-2.97-1.13-2.16-.72-4.64-.78-6.85 1.08-1.44 1.23-2.33 2.91-3.08 4.65-.4.92-.82 1.68-1.27 2.34-.23.34-.47.67-.72 1.01-.26.33-.45.54-.69.83-1.46 1.73-2.55 4.24-1.41 6.28.88 1.56 2.7 1.73 4.28 2.1 2.12.49 1.35 1.94.17 3.43-1.33 1.66-2.78 3.46-2.31 5.62.55 2.41 2.65 3.1 4.84 3.19 2.6.12.63 1.67-.63 2.44-1.71 1-3.93.55-4.41 3.14-.2 1.05.12 2.1.92 2.8.38.33 1.72.71 1.91 1.11.25.6-.76 2-1.08 2.53-.54.92-1.2 1.88-1.62 2.9-.39 1.02-.74 2.26-.38 3.35.1.35.28.68.5.98-.6-.12-1.54-.07-2.05-.07-1.43.05-2.86.47-4.25.23-1.58-.28-2.56-1.52-3.81-2.43-.46-.33-.95-.76-1.53-.85-.17-.02-.93.14-1.12.21s0 0-.02 0c-.37.1-.89.3-1.2.22-.22-.07-.52-.54-.77-.81-.82-.91-1.66-1.44-2.89-1.61-.93-.14-1.82-.03-2.63.23-.81.25-1.52.69-2.07 1.33-1.14 1.21-1.62 2.78-2.62 3.89-.59.78-1.44.99-2.26 1.05-.43.02-.86 0-1.3-.06-.45-.07-.95-.19-1.44-.31-.74-.18-1.47-.39-2.13-.53-.66-.13-1.42-.27-2.01-.17-.35.06-.67.17-.96.33-.29.16-.66.32-.96.54-.63.41-1.13.98-1.72 1.52-.73.63-1 1.62-1.68 2.35-.68.77-1.83.27-2.78 0-1.05-.28-2.06-.3-2.99-.03-.95.2-1.82.69-2.54 1.52-.59.66-1.06 1.53-1.4 2.48-.36.92-.6 1.92-.63 2.88-.05 1.68.53 3.32-1.8 3.45-1.96.15-3.69-2.26-5.38-3-2.47-1.08-4.62-.34-7.08.48-1.89.57-4.08.37-5.94 1.18-1.78.73-2.81 2.4-3.63 4.01-.79 1.54-1.31 3.58-2.6 4.84-1.28 1.28-3.09 1.96-4.86 2.4-1.72.43-2.67 1.5-2.58 3.2.08 1.13.43 2.34.99 3.34.46.85 1.79 1.99 1.82 2.96.03 1.03-1.54 1.89-2.36 2.36-1.01.54-1.68.64-2.79.28-2.26-.76-4.37-1.84-6.71-.55-1.75 1.04-3.34 3.12-4.16 4.91-.08.21-.22.68-.25 1.17-.38-.15-.83-.25-1-.64-.39-.88-1.28-1.15-2.14-.86-.02 0-.04.02-.05 0-.08-.06-.14-.19-.2-.25-.18-.29-.46-.58-.73-.81-.71-.59-1.65-.9-2.59-.81-1.07.16-2.02 1.03-3.09.98-.92-.05-1.87-.78-2.76-1.06-2.02-.61-4.6-1-5.54-3.3-.74-1.8-.49-3.83-1.52-5.56-.95-1.64-2.79-2.51-4.86-2.5-1.27.01-2.56.49-3.8.89-1.22.43-2.43.68-3.65.08-1.36-.64-3.12-1.8-5.01-2.37-1.88-.55-3.97-.63-5.87.55-1.5.91-1.64 2.05-1.71 3.26-.02 1.21.19 2.46-.1 3.57-.13.47-.47 1.39-.92 1.58-.41.18-1.27-.05-1.73.01-.96.11-1.78.63-2.72.88-.4.11-.77.1-1.15.3-1.32.69-1.68 2.88-2.17 4.06-.86 2.01-1.93 4.11-2.2 6.19-.21 1.52 0 3.11-.29 4.6 0 .02-.02.04-.03.06-.53-.31-1.08-.52-1.72-.55-3.15-.25-9.13 2.92-7.39 6.66.31.68.83.86.7 1.55-.21 1.01-1.38 2.05-2.16 2.68-.98.8-2.03 1.48-3.1 2.15-1.06.7-2.09 1.41-3.04 2.25-.94.81-2.15 1.55-3.41 2.34-.73.47-1.48.94-2.23 1.43H95.4c-.2-.61-.52-1.35-.2-2.01.55-1.11 1.7-.9 2.73-.95 1.61-.07 2.89-1.03 3.67-2.37 1.32-.25 2.68-.24 3.98-.68 1.41-.49 2.58-1.41 3.63-2.49.81-.86 1.45-1.66 2.36-2.35.81-.62 1.55-1.34 1.83-2.38.31-1.11.04-2.4-.7-3.3-.35-.43-.82-.73-1.35-.86z"/><path class="cls-46" d="M125.46 124.24a26.5 26.5 0 0 0-.73-1.11c-.29-.34-.61-.67-.93-.99-.35-.29-.72-.57-1.09-.83-.4-.22-.81-.42-1.22-.62-.43-.15-.86-.29-1.3-.41-.44-.07-.88-.13-1.32-.17-.43 0-.87 0-1.29.03-1.69.18-3.23.82-4.48 1.76-1.25.94-2.24 2.19-2.78 3.62-.54 1.41-.58 3.01.05 4.25.59-1.25 1.36-2.1 2.21-2.73.84-.63 1.75-1.06 2.65-1.33.9-.26 1.79-.38 2.57-.31.78.06 1.42.27 1.95.61.54.33 1.01.81 1.41 1.49.4.67.69 1.52.84 2.45.15.93.15 1.94-.05 2.97-.2 1.04-.64 2.1-1.51 3.17 1.39.03 2.81-.7 3.85-1.8 1.05-1.1 1.74-2.54 2.05-4.07.3-1.53.22-3.19-.36-4.8-.15-.4-.34-.79-.53-1.18z"/><path class="cls-42" d="M-14.89 226.95c2.96-4.08 6.95-5.48 6.48-11.17-.28-3.35-5.55-5-6.1-8.82-.76-5.28 6.48-11.22 5.47-15.68-1.2-5.24-7.18-4.98-7.48-12.08-.31-7.31 24.64-47.48 1.12-43.59-7.76 1.28-3.29 7.42-10.76 2.51-6.24-4.1-5.32-8.95-2.9-15.67-9.71 1.17-3.02-35.1-5.77-43.25-11.21 2.93-21.87 15.95-21.8-3.36-8.17-2.71-6.5-14.35-10.76-20.58-1.51-2.21-4.9-.76-6.35-3.57-2.09-4.09-1.99-9.29-3.91-13.13-.47-.95-4.49-6.77-5.43-7.97-1.82-2.33-15.78-14.35-12.18-18.05-4.4 4.5-14.6 2.28-13.62 9.7-7.95 2.07-4.17 8.14-7.88 12.76-1.58 1.96-4.16-1.99-6.52.39-2.58 2.59-.31 8.06-2.86 11-2.39 2.75-6.33.71-8.39 3.21-3.12 3.86.63 9.72-3.01 13.6-4.34 4.63-12.57.62-17.42 5.26 1.63 5.12 6.2 9.67 5.8 15.07-4.9 1.82-8.56 5.47-12.82 7.42-3.27 1.5-8.46.65-10.75 3.83-1.77 2.46.5 5.54-.19 8.02-1.62 5.79-4.19 10.69-4.16 16.84-8.9-1.92-6.39 7.04-4.16 12.26-11.62-2.18-5.09 17.28-4.32 21.03 3.44 16.71 4.66 13.64-13.18 17.57.02 3.4-.43 6.9-1.5 10.15-16.43-7.91-1.74 27.73-.73 30.66-14.7 1.6-11.69 8.96-14.3 20.92-.4 1.81-.03 3.66-.23 5.43H.22c-.07-.14-.13-.3-.21-.43-5.06-8.26-28.9 8.97-14.9-10.28z"/><path class="cls-46" d="M-14.74 236.25c-.57.46-1.09.93-1.57 1.42H.22c-.07-.14-.13-.3-.21-.43-2.57-4.17-9.91-1.83-14.75-.99z"/></g><g id="_Ñëîé_2"><path fill="#b4d5ff" opacity=".5" stroke-width="0" d="M-333.75-63.07h1993v299.36h-1993z"/><g opacity=".5"><path class="cls-27" d="M-99.2-63.07C-64.86 36.72-30.53 136.5 3.79 236.29h100.93C67.62 136.5 30.52 36.72-6.58-63.07H-99.2zM180.64-63.07c36.41 99.79 72.82 199.57 109.24 299.36h30.67C282.09 136.5 243.63 36.71 205.18-63.07h-24.54zM366.3-63.07a2955.755 2955.755 0 0 1 107.81 260.88c-15.13-86.96-30.25-173.92-45.38-260.88h-62.42z"/></g><path class="cls-20" d="M-333.75 235.42h911.51v3.81h-911.51z"/><path class="cls-20" d="M82.71-65.74h6.07v303.42h-6.07zM327.2-65.74h6.07v303.42h-6.07z"/><path fill="#dacfc4" stroke-width="0" d="M-333.75 239.23h1993v154.33h-1993z"/><g opacity=".3"><path class="cls-49" d="M-122.73 318.19c-3.73 3.84-7.75 8.99-5.79 13.96 1.95 4.95 8.35 6 13.66 6.3 18.92 1.06 39.14 1.83 55.4-7.92 9.28-5.57 16.35-14.07 23.24-22.41 19.4-23.5 39.34-46.21 59.51-68.89h-77.21c-21.77 27.28-44.1 53.52-68.82 78.96z"/><path class="cls-49" d="M-333.75 239.23v42.52c41.34.24 82.69.2 124.03.16 228.27-.21 456.55-.43 684.82-.65 21.1-.02 42.68-.02 63.51-3.83 19.59-3.58 37.34-10.36 57.76-12.67 45.77-5.2 91.92-4.92 137.92-4.64 35.73.21 71.54-1.07 107.02 3.25 38.65 4.71 77.46 8.09 116.35 10.12 94.25 4.94 187.69-2.46 281.72-.81 98.52 1.72 197.06 2.68 295.59 2.88 41.43.08 82.86.03 124.28-.16v-36.19h-1993z"/></g></g><g id="_Ñëîé_3"><path d="M136.94 131.33h112.42c.1-.26.16-.53.19-.81H135.87c.23.39.62.64 1.07.81z" fill="#ddb882" stroke-width="0"/><path class="cls-12" d="M56.25 140h-25v109l25-7V140z"/><path class="cls-38" d="M27.25 140h4v109h-4z"/><path class="cls-12" d="M376.25 140h-21v109l21-7V140z"/><path class="cls-38" d="M351.25 140h4v109h-4z"/><path fill="#d8dae6" stroke-width="0" d="M19.94 131.33H364.2v9.29H19.94z"/><path class="cls-27" d="M19.94 131.33h344.27l16.06-.81H45.75l-25.81.81z"/><path class="cls-38" d="M364.21 140.62l16.06-.94v-9.16l-16.06.81v9.29z"/></g><g id="_Ñëîé_4"><path class="cls-23" d="M424.8 133.76h-29.62c-.15 0-.27.12-.27.27v2.37h30.17v-2.37c0-.15-.12-.27-.27-.27z"/><path d="M424.52 135.34H389.8c-.98 0-1.77.79-1.77 1.77v106.55c0 .98.79 1.77 1.77 1.77h41.1v-103.7c0-3.52-2.86-6.38-6.38-6.38z" fill="#f7ebeb" stroke-width="0"/><path d="M388.03 149.75v93.91c0 .97.79 1.77 1.77 1.77h41.1v-51.87c-9.22-1.28-18.01-4.01-25.21-9.76-10.27-8.19-15.05-20.87-17.66-34.05z" fill="#dfcece" stroke-width="0"/><path class="cls-43" d="M275.73 109.38h15.08v21.43h-15.08z"/><path class="cls-51" d="M287.75 129.28c-.94-.21-1.84-.67-2.73-1.12-1.38-.72-2.8-1.46-3.89-2.82-.46-.58-.85-1.27-1.2-1.98-1.33-2.69-2.14-5.82-2.55-9.01-.21-1.65-.32-3.3-.35-4.97h-1.31v21.43h15.08v-1.67c-1.01.29-2.04.36-3.06.14z"/><path class="cls-43" d="M294.39 112.92c-1.15-.34-2.42.4-3.58.27v1.27c.56.1 1.14.11 1.7 0 .37-.07.74-.19 1.12-.17 1.29.06 1.62 1.79 1.77 2.82.19 1.25.19 2.54.01 3.79-.15 1.1-.47 2.22-1.23 3.03-.71.75-1.74 1.14-2.77 1.27-.2.03-.4.04-.6.05v1.38c1-.03 1.98-.29 2.87-.75.44-.23.85-.51 1.2-.85.63-.61 1.06-1.42 1.39-2.24.9-2.26.74-4.78.15-7.11-.29-1.16-.88-2.42-2.03-2.76z"/><path class="cls-27" d="M294.39 112.92c-.97-.29-2.03.19-3.03.27.02.06.04.12.09.16.12.12.29.16.45.18.61.07 1.22-.06 1.83-.1.27-.02.54 0 .79.07.65.22 1.02.89 1.51 1.38.06.06.12.12.2.15-.33-.96-.9-1.85-1.84-2.12z"/><path class="cls-51" d="M296.14 121.2c-.31-1.38-.2-2.82-.31-4.23-.08-.96-.33-2.04-1.16-2.54-.49-.29-1.08-.33-1.65-.33s-1.15.02-1.68-.17c-.19-.07-.37-.17-.53-.31v.84c.56.1 1.14.11 1.7 0 .37-.07.74-.19 1.12-.17 1.29.06 1.62 1.79 1.77 2.82.19 1.25.19 2.54.01 3.79-.15 1.1-.47 2.22-1.23 3.03-.71.75-1.74 1.14-2.77 1.27-.2.03-.4.04-.6.05v1.38c1-.03 1.98-.29 2.87-.75.44-.23.85-.51 1.2-.85.63-.61 1.06-1.42 1.39-2.24.12-.31.22-.62.31-.93a.336.336 0 0 1-.16-.1c-.16-.13-.22-.35-.27-.56z"/><path class="cls-7" d="M351.73 82.38a95.865 95.865 0 0 0-6.56 23.55h1.48c1.94-6.39 3.05-13.02 4.93-19.43 1.31-4.48 3.07-8.94 5.59-12.84-.14.13-.28.26-.41.4-2.3 2.31-3.76 5.31-5.03 8.32z"/><path class="cls-7" d="M363.16 68.28c-2.19 3.68-4.84 7.07-7.01 10.75-5.28 8.94-6.02 18.74-8.08 28.57l.53.07c1.1-3.51 1.46-7.24 2.36-10.83 1-3.97 2.7-7.77 4.99-11.17 2.05-3.06 4.58-5.8 6.35-9.03 2.01-3.65 2.97-7.86 2.79-12.01-.57 1.25-1.23 2.48-1.93 3.65zM328.01 77.33c-2.01-3.82-3.47-7.9-4.74-12.04-.13 2.24-.26 4.49-.08 6.71.39 4.88 2.34 9.62 5.48 13.37 2.21 2.63 4.97 4.77 7.05 7.51 2.81 3.7 4.21 8.42 3.93 13.05h.99c.35-5-1.47-10.02-3.91-14.44-2.68-4.86-6.12-9.26-8.7-14.17zM345.04 105.93h1.39a84.412 84.412 0 0 0-9.68-30.29c3.68 9.81 6.45 19.97 8.28 30.29z"/><path class="cls-7" d="M320.65 74.04c-.07 2.11.15 4.19.84 6.2 1.73 5.02 6.06 8.6 9.62 12.54 3.28 3.63 6.13 8.46 5.28 13.15h1.34c-.13-7.8-4.71-14.96-9.45-21.25-2.61-3.46-5.37-6.94-7.63-10.64zM347.48 72.68a76.226 76.226 0 0 0-3.99 32.95l1.06.12c-.65-7.25.41-14.66 3.1-21.43 1.57-3.95 3.71-7.79 4.09-12.02.28-3.07-.39-6.15-.39-9.24-1.34 3.19-2.72 6.37-3.87 9.62z"/><path class="cls-7" d="M328.36 91.93c.44 1.75 1.11 3.41 2.29 4.76 1.18 1.36 2.78 2.29 4.11 3.51a12.35 12.35 0 0 1 3.48 5.72h.81c-1.68-5.77-5.59-10.85-10.69-14zM351.27 105.93h1.57c1.15-4.66 3.59-8.92 5.99-13.1.05-.08.09-.16.14-.24a27.62 27.62 0 0 0-7.7 13.34z"/><path class="cls-2" d="M324.99 74.06c-.14-.14-.27-.27-.41-.4 2.52 3.9 4.28 8.36 5.59 12.84 1.88 6.41 2.99 13.04 4.93 19.43h1.48a95.743 95.743 0 0 0-6.56-23.55c-1.27-3-2.73-6-5.03-8.32z"/><path class="cls-2" d="M327.25 60.74c-.61-1.39-1.16-2.82-1.62-4.27-.77 4.54-.29 9.28 1.41 13.56 1.51 3.78 3.9 7.14 5.73 10.77 2.04 4.04 3.38 8.44 3.93 12.94.5 4.05.38 8.19 1.11 12.2h.59c-.91-11.06-.37-21.91-4.94-32.44-1.88-4.34-4.32-8.42-6.22-12.75zM352.13 77.33c-2.58 4.91-6.02 9.31-8.7 14.17-2.44 4.42-4.26 9.44-3.91 14.44h.99c-.28-4.63 1.12-9.35 3.93-13.05 2.08-2.74 4.84-4.88 7.05-7.51 3.14-3.75 5.09-8.5 5.48-13.37.18-2.21.05-4.46-.08-6.71-1.27 4.14-2.73 8.21-4.74 12.04zM347.67 105.65c2.56-10.16 6.06-20.09 10.43-29.62a84.59 84.59 0 0 0-11.82 29.52l1.39.1zM359.08 84.68c-4.75 6.3-9.32 13.45-9.45 21.25h1.34c-.85-4.69 2-9.52 5.28-13.15 3.56-3.94 7.89-7.52 9.62-12.54.69-2.01.91-4.09.84-6.2-2.26 3.7-5.02 7.18-7.63 10.64z"/><path class="cls-2" d="M339.84 58.23c-.37 3.39-1.48 6.69-1.55 10.1-.09 4.7 1.78 9.17 3.03 13.7a51.68 51.68 0 0 1 .79 23.91h1.17a84.28 84.28 0 0 0-.37-36.66c-.87-3.72-2-7.37-3.08-11.04zM352.86 105.93h.81c.6-2.18 1.82-4.19 3.48-5.72 1.32-1.23 2.92-2.15 4.11-3.51 1.18-1.35 1.85-3.01 2.29-4.76-5.1 3.16-9.01 8.24-10.69 14zM325.45 92.6c.05.08.09.16.14.24 2.4 4.18 4.83 8.44 5.99 13.1h1.57c-1.22-5.06-3.94-9.74-7.7-13.34z"/><path class="cls-43" d="M358.53 105.13h-28.42c-.87 0-1.57.7-1.57 1.57v20.86a3.24 3.24 0 0 0 3.24 3.24h25.08a3.24 3.24 0 0 0 3.24-3.24V106.7c0-.87-.7-1.57-1.57-1.57z"/><path class="cls-51" d="M343.48 118.98a24.17 24.17 0 0 1-3.53-1.23c-2.75-1.2-5.32-2.96-7.06-5.41-1.51-2.12-2.32-4.63-2.81-7.2-.86.01-1.54.71-1.54 1.57v20.86a3.24 3.24 0 0 0 3.24 3.24h25.08a3.24 3.24 0 0 0 3.24-3.24v-7.39c-2.38 0-4.77 0-7.15-.08-3.19-.1-6.39-.3-9.47-1.12z"/><path class="cls-27" d="M358.53 105.13h-23.4c4.07.45 8.18.43 12.27.39 3.14-.03 6.26-.14 9.38.09 1.95.14 2.22 1.29 2.25 2.96.04 2.19.08 4.37.13 6.55l.94-.06v-8.35c0-.87-.7-1.57-1.57-1.57z"/><path fill="#f7f5f5" stroke-width="0" d="M35.65 117.39h54.21v13.42H35.65z"/><path class="cls-51" d="M40.5 122.11c-1.75-1.08-3.23-2.77-3.77-4.72h-1.07v13.42h54.21v-2.68c-14.09.05-28.17-1.01-42.01-3.62-2.55-.48-5.15-1.04-7.36-2.4z"/><path class="cls-27" d="M77.05 125.49a16.15 16.15 0 0 1 3.39-4.52c-3.96-.02-7.92-.05-11.88-.07 3.2.64 6.21 2.25 8.49 4.59zM83.12 125.67c3.53.04 7.06.07 10.59.1-.92-.4-1.9-.69-2.89-.87-2.57.26-5.13.52-7.7.77zM31.43 124.61l5.83-.72c-.47-.04-.95-.1-1.41-.19-1.47.3-2.95.6-4.42.91zM35.33 120.18c-.6.12-1.21.24-1.82.36 1.69-.11 3.37-.23 5.05-.34-.65-.12-1.3-.28-1.93-.47-.42.18-.87.37-1.31.45z"/><path d="M201.35 128.97c-2.23-.22-4.55-.54-6.39-1.82-3.76-2.63-4.19-7.98-3.84-12.5h-9.63c.35 4.52-.08 9.88-3.84 12.5-1.84 1.28-4.16 1.6-6.39 1.82-3.15.32-6.31.53-9.47.62l-.09 1.22h49.22l-.09-1.22c-3.16-.09-6.32-.3-9.47-.62z" fill="#5a4a4a" stroke-width="0"/><path class="cls-6" d="M190.46 129.32c-3.96-1.14-6.41-2.37-7.3-6.68-.54-2.62-.4-5.34-.3-7.99h-1.38c.35 4.52-.08 9.88-3.84 12.5-1.84 1.28-4.16 1.6-6.39 1.82-3.15.32-6.31.53-9.47.62l-.09 1.21h29.36v-.69c0-.18 0-.38-.11-.53-.11-.16-.31-.22-.5-.28z"/><path class="cls-28" d="M201.35 128.97c-2.23-.22-4.55-.54-6.39-1.82-2.56-1.79-3.58-4.84-3.85-8.04-.79.25-1.59.49-2.39.73-1.08 3.25.67 7.19 3.8 8.57 1.43.63 3.02.76 4.57.88 4.58.33 9.17.58 13.76.72 0-.14-.02-.27-.03-.41-3.16-.1-6.32-.3-9.47-.62z"/><rect class="cls-28" x="137.22" y="57.8" width="98.16" height="58.02" rx=".57" ry=".57"/><path class="cls-23" d="M234.81 57.8h-56.74c.22.17.58.23.88.24 17.85.58 35.72.66 53.58.24.79-.02 1.81.12 2.01.89.08.33-.03.67-.04 1.01-.01.6.35 1.19.88 1.47v-3.28a.57.57 0 0 0-.57-.57z"/><path class="cls-11" d="M233.38 59.73h-94.16s-.07.03-.07.06v.42h93.74s.06.03.06.06v53.61h.42s.06-.03.06-.06V59.79s-.03-.06-.06-.06z"/><path d="M232.89 60.21h-93.74v53.61s.03.06.07.06h93.74V60.27s-.03-.06-.06-.06z" fill="#2388cb" stroke-width="0"/><rect class="cls-6" x="143.91" y="127.62" width="85.68" height="3.19" rx=".75" ry=".75"/><path class="cls-11" d="M147.25 128.58c-.95-.04-2.12-.34-2.73-.94a.74.74 0 0 0-.61.73v1.69c0 .41.33.75.75.75h84.19c.41 0 .75-.33.75-.75v-.33c-27.45.47-54.92.09-82.35-1.16z"/><path class="cls-16" d="M228.7 126.82h-83.89a.1.1 0 0 0-.1.1v.7h84.09v-.7a.1.1 0 0 0-.1-.1z"/><path class="cls-6" d="M247.74 128.09c-.46-2.11-2.25-3.78-4.2-4.5-2.18-.8-4.67-.91-6.8.02s-3.81 3-3.96 5.31c-.04.53 0 1.06.02 1.59 0 .16.14.3.3.3h14.54a.3.3 0 0 0 .3-.32c-.02-.47-.05-.95-.08-1.42a6.4 6.4 0 0 0-.12-.98z"/><path class="cls-16" d="M241.88 123.13c-.12.06-.23.16-.27.29-.08.22 0 .47.16.64.16.17.37.27.59.36.67.28 1.37.47 2.07.67.39.11.81.21 1.17.03.08-.04.15-.1.21-.17a7.195 7.195 0 0 0-2.27-1.35c-.53-.2-1.09-.35-1.65-.46z"/><path class="cls-11" d="M247.74 128.09s-.02-.09-.04-.13c-3.57.76-7.33.62-10.82-.43-.74-.22-1.49-.5-2-1.08-.28-.31-.46-.74-.48-1.16-.92 1-1.53 2.27-1.62 3.62-.04.53 0 1.06.02 1.59 0 .16.14.29.3.29h14.54c.17 0 .31-.14.3-.31-.02-.47-.05-.95-.08-1.42-.02-.33-.04-.66-.12-.98z"/><path class="cls-55" d="M197.16 63.49h26.79v33.22h-26.79zM145.35 68.14h26.79v31.22h-26.79z"/><path class="cls-55" d="M164.83 72.79h41.85v36.54h-41.85z"/><path class="cls-1" d="M164.83 72.79h41.85v3.54h-41.85zM145.23 68.03h26.79v3.54h-26.79zM197.05 63.6h26.79v3.54h-26.79z"/></g><g id="Stol"><path class="cls-41" d="M198.59 172.82l-22.92.61c-5.37.54-5.65 1.63-5.65 4.7v7.1c0 5.06 1.65 7.23 5.52 7.23h19.29c.8 0 1.45.85 1.45 1.9s-.71 1.36-1.51 1.36l-19.23.54c-5.52 0-8.43-3.81-8.43-11.03v-7.1c0-7.09 3.61-8.02 8.32-8.49l22.2-.63"/><path class="cls-41" d="M203.36 195.71c2.08-.69 3.15-4.02 3.58-5.79.16-.65.24-1.31.24-1.98v-10.35s0-3.82-1.91-6.68c-1.18-1.77-3.82-1.91-4.28-1.91h-2.4l-2.96.03.1.92 6.68 1.91 1.91 4.77v10.49l-2.43 5.64-2.34 1.99-3.36 1.44"/><path class="cls-45" d="M205.77 177.94c-.09-7.09-4.32-8.94-9.09-8.94h-.24l-22.75.63c-4.66.47-8.23 1.39-8.23 8.49v7.1c0 7.22 2.88 11.03 8.34 11.03h16.24l7.62-.07c5.45-.07 8.29-3.92 8.2-11.13l-.09-7.1zm-8.15 14.43l-7.57.07h-16.24c-3.83 0-5.46-2.16-5.46-7.23v-7.1c0-3.07.27-4.16 5.58-4.7l22.76-.63v.02c5.72 0 6.17 2.09 6.21 5.17l.09 7.1c.06 5.06-1.54 7.25-5.37 7.29z"/><g clip-path="url(#clippath)"><path fill="#a3a7aa" stroke-width="0" d="M145.05 209.05h.87v47.85h-.87z"/><path class="cls-22" d="M145.93 209.05h.87v47.85h-.87zM146.8 209.05h1.25v47.85h-1.25z"/><path fill="#a5a8a9" stroke-width="0" d="M148.06 209.05h1.25v47.85h-1.25z"/><path class="cls-24" d="M149.31 209.05h1.25v47.85h-1.25zM150.56 209.05h.35v47.85h-.35z"/><path fill="#6f7474" stroke-width="0" d="M150.92 209.05h.35v47.85h-.35z"/><path fill="#e7e3e0" stroke-width="0" d="M151.27 209.05h.35v47.85h-.35z"/></g><path fill="#3a3a3a" stroke-width="0" d="M152.52 222.34h-9.17l-1.58-13.29h13.28l-2.53 13.29z"/><path d="M150.21 261.52h-.39v-2.81h-2.88v2.81h-.39c-.58 0-1.05.52-1.05 1.16v7.5c0 .64.47 1.16 1.05 1.16h3.65c.58 0 1.05-.52 1.05-1.16v-7.5c0-.64-.47-1.16-1.05-1.16z" fill="#3d3d3d" stroke-width="0"/><path class="cls-21" d="M110.71 267.34c-.1 0-.19.02-.29.03v-3.51h-4.15v7.79c0 2.38 1.99 4.31 4.44 4.31s4.44-1.93 4.44-4.31-1.99-4.31-4.44-4.31zM124.14 269.72c-.07 0-.14.02-.2.03v-3.51h-5.26v6.96h.06c-.04.27-.06.55-.06.83 0 2.38 1.4 4.31 3.13 4.31h2.34c1.73 0 3.13-1.93 3.13-4.31s-1.4-4.31-3.13-4.31zM185.39 267.99c.1 0 .19.02.29.03v-3.51h4.15v7.79c0 2.38-1.99 4.31-4.44 4.31s-4.44-1.93-4.44-4.31 1.99-4.31 4.44-4.31zM171.96 270.37c.07 0 .14.02.2.03v-3.51h5.26v6.96h-.06c.04.27.06.55.06.83 0 2.38-1.4 4.31-3.13 4.31h-2.34c-1.73 0-3.13-1.93-3.13-4.31s1.4-4.31 3.13-4.31z"/><path class="cls-45" d="M105.4 264.11l.87 4.15c12.19-6.57 27.1-9.51 42-9.51v-5.93c-15.04 0-30.94 4.22-42.87 11.29z"/><path class="cls-45" d="M189.8 264.02h1.05c-11.94-7.11-27.98-11.2-43.05-11.2v5.93c14.9 0 29.8 2.94 42 9.51v-4.24z"/><path class="cls-52" d="M106.27 264.09v4.17c12.19-5.67 27.1-8.21 42-8.21v-5.12c-15.04 0-30.07 3.05-42 9.15z"/><path class="cls-52" d="M189.8 264.6c0-.16.03-.31.07-.45-11.94-6.13-27-9.21-42.07-9.21v5.12c14.9 0 29.8 2.54 42 8.21v-3.66z"/><path class="cls-53" d="M116.94 265.98l1.5 4.77c8.69-7.34 19.32-10.63 29.94-10.63v-6.62c-10.72 0-22.94 4.59-31.44 12.48z"/><path class="cls-53" d="M177.99 266h1.55c-8.51-7.95-20.74-12.51-31.49-12.51v6.62c10.63 0 21.25 2.89 29.94 10.23V266z"/><path d="M118.43 265.92v4.82c8.69-6.55 19.32-9.49 29.94-9.49v-5.91c-10.72 0-21.44 3.53-29.94 10.58z" fill="gray" stroke-width="0"/><path d="M178.04 265.99c-8.51-7.09-19.25-10.65-29.99-10.65v5.91c10.63 0 21.3 2.76 29.99 9.31 0 0-.03-4.41 0-4.58z" fill="#d5d5d5" stroke-width="0"/><path fill="#b7b7b7" stroke-width="0" d="M178.04 265.99h1.5v4.58h-1.5z"/><path class="cls-9" d="M189.8 264.02h.85v4.24h-.85z"/><path transform="rotate(180 117.685 268.265)" fill="#e2e2e2" stroke-width="0" d="M116.94 265.98h1.5v4.58h-1.5z"/><path class="cls-9" transform="rotate(180 105.825 266.235)" d="M105.4 264.11h.85v4.24h-.85z"/><path class="cls-21" d="M153.51 253.9c.09-.29.13-.61.1-.94-.09-1.2-.93-2.08-1.85-2a48.1 48.1 0 0 1-8.14 0c-.93-.08-1.76.8-1.85 2-.02.33.02.65.1.94 3.87.46 7.77.46 11.64 0z"/><path d="M114.29 198.66c-4.86 0-9.93-.2-9.93-4.92l.88-24.71c.07-1.9-.08-3.79-.43-5.66l-6.69-35.19 2.16-29.24c0-4.72 6.94-8.5 11.8-8.5l2.21-.37c4.86 0 3.98 3.86 3.98 8.58v91.43c0 4.72.88 8.58-3.98 8.58z" fill="#4e4646" stroke-width="0"/><path d="M104.28 128.18c-.11.76 50.77-1.89 50.77-1.89.12-.65 3.46-3.6 3.46-9.46 0-18.33-2.47-26.23-13.91-26.23l-21.74-.54c-7.06 0-22.59-1.2-21.93 6.36 5.46-2.77 6.1 12.21 3.34 31.76z" fill="url(#linear-gradient)" stroke-width="0"/><path d="M166.93 186.56l-2.44-27.2c-1.79-27.82-9.43-33.06-9.43-33.06l-50.77 1.89c-.04.16.03-.16 0 0-.4 2.08 3.22 4.22 5.81 19.36 0 0 8.17 42.53-3.46 50.06 2.97 4.08 7.78 3.97 12.29 3.97l26.27-2.91c12.6 0 22.38-2.08 21.74-12.1z" fill="url(#linear-gradient-2)" stroke-width="0"/><path d="M206.55 205.06l-57.1 6.69c-2.57.3-30.14-1.11-40.32-3.31-2.13-.46-3.41-2.59-2.75-4.61l1.06-3.25c-.38-3.05 37.39-10.65 60.51-9l36.92.04c3.15-.37 6.03 1.83 6.41 4.88l.29 2.33c.38 3.05-1.88 5.86-5.03 6.22z" fill="url(#linear-gradient-3)" stroke-width="0"/><path d="M206.55 205.06l-57.1 6.69c-3.15.37-6.03-1.83-6.41-4.88l-.29-2.33c-.38-3.05 1.88-5.86 5.03-6.22l57.1-6.69c3.15-.37 6.03 1.83 6.41 4.88l.29 2.33c.38 3.05-1.88 5.86-5.03 6.22z" fill="url(#linear-gradient-4)" stroke-width="0"/><path class="cls-41" d="M147.25 180l-24.03.64c-5.63.56-5.92 1.7-5.92 4.92V193c0 5.31 1.73 7.58 5.79 7.58h20.22c.84 0 1.52.89 1.52 1.99s-.74 1.43-1.58 1.43l-20.16.57c-5.78 0-8.84-4-8.84-11.56v-7.44c0-7.44 3.78-8.41 8.72-8.9l23.28-.66"/><path class="cls-41" d="M152.25 204c2.18-.73 3.3-4.21 3.75-6.07.17-.68.25-1.37.25-2.07v-10.85s0-4-2-7c-1.24-1.86-4-2-4.48-2h-2.52l-3.1.03.1.97 7 2 2 5v11l-2.55 5.92-2.45 2.08-3.52 1.51"/><path class="cls-41" d="M144.73 204.51l2.52-.07s4.22-.16 4.61-.3 1.37-.31 1.88-1.22"/><path class="cls-45" d="M154.78 185.38c-.09-7.44-4.53-9.38-9.53-9.38H145l-23.85.66c-4.89.49-8.63 1.46-8.63 8.9V193c0 7.56 3.02 11.56 8.74 11.56h17.03l7.99-.08c5.72-.07 8.69-4.11 8.59-11.67l-.09-7.44zm-8.55 15.13l-7.94.08h-17.03c-4.01 0-5.73-2.27-5.73-7.58v-7.44c0-3.22.28-4.36 5.85-4.92l23.86-.66v.02c6 0 6.47 2.2 6.51 5.42l.09 7.44c.07 5.31-1.62 7.6-5.63 7.65z"/></g></svg>