<svg xmlns="http://www.w3.org/2000/svg" viewBox="0 0 400 300"><defs><style>.cls-10,.cls-13,.cls-14,.cls-16,.cls-17,.cls-2,.cls-20,.cls-21,.cls-23,.cls-5,.cls-6,.cls-7,.cls-8,.cls-9{stroke-width:0}.cls-2{fill:#00628d}.cls-5{fill:#d9835b}.cls-6{fill:#0086bc}.cls-7{fill:#fafafc}.cls-8{fill:#003e59}.cls-9{fill:#617b88}.cls-10{fill:#aaddf6}.cls-13{fill:#e61418}.cls-14{fill:#cdd8de}.cls-16{fill:#e29069}.cls-17{fill:#ee1519}.cls-20{fill:#003352}.cls-21{fill:#66c3ed}.cls-23{fill:#dce4eb}</style></defs><g id="Vägg_och_golv" stroke-width="0"><path fill="#f6f6f8" d="M0 288.91h400V300H0z"/><path fill="#e5c3c3" d="M0 0h400v165.07H0z"/></g><g id="Skåp"><path transform="rotate(180 200 226.92)" fill="#d8dae6" stroke-width="0" d="M0 164.51h400v124.83H0z"/><path transform="rotate(180 307.48 228.255)" fill="#4fb1dc" stroke-width="0" d="M226.2 175.78h162.56v104.95H226.2z"/><path class="cls-2" transform="rotate(180 285.46 122.255)" d="M283.25 120.71h4.41v3.09h-4.41z"/><path class="cls-2" d="M311.4 145.16v-23.52c0-7.56-6.15-13.7-13.7-13.7h-.29c-7.56 0-13.7 6.15-13.7 13.7h3.63c0-5.55 4.52-10.07 10.07-10.07h.29c5.55 0 10.07 4.52 10.07 10.07v23.52h-1.81v15.46h7.27v-15.46h-1.83z"/><path class="cls-6" d="M268.36 194.85h75.24c4.31 0 7.8-1.08 7.8-5.38V176.1h-90.83v13.37c0 4.31 3.49 5.38 7.8 5.38z"/><path class="cls-6" transform="rotate(180 305.98 162.5)" d="M254.86 160.62H357.1v3.75H254.86z"/><path class="cls-21" d="M226.2 206.77l66.22-.14c1.16 0 2.09-1.06 2.09-2.37v-9.41h3.19v9.41c0 3.3-2.37 5.98-5.28 5.98l-66.22.14"/><path class="cls-21" d="M226.2 217.34l97.41-.16c.56 0 1.09-.25 1.48-.69.39-.45.61-1.04.61-1.68l-.03-19.97h3.19l.03 19.96c0 1.6-.55 3.11-1.54 4.24-1 1.13-2.32 1.76-3.73 1.76l-97.42.16"/><path class="cls-6" d="M317.26 259.3c7.19 0 13.27-5.71 13.27-12.48v-9.16c0-.96 1.51-2.07 3.45-2.07h20.91c2.71 0 4.91-2.2 4.91-4.91s-2.2-4.91-4.91-4.91h-20.91c-7.32 0-13.27 5.34-13.27 11.9v9.16c0 1.04-1.48 2.65-3.45 2.65s-3.45-1.61-3.45-2.65v-53.35h-9.83v53.35c0 6.76 6.08 12.48 13.27 12.48z"/><path class="cls-6" transform="rotate(180 308.98 195.235)" d="M302.64 193.47h12.69V197h-12.69z"/><path class="cls-6" transform="rotate(180 308.98 232.765)" d="M302.64 231h12.69v3.53h-12.69z"/><path class="cls-6" transform="rotate(180 308.98 243.93)" d="M302.64 242.16h12.69v3.53h-12.69z"/><path class="cls-6" transform="rotate(180 325.525 244.01)" d="M319.18 242.24h12.69v3.53h-12.69z"/><path class="cls-6" transform="rotate(90 344.56 230.64)" d="M338.21 228.87h12.69v3.53h-12.69z"/><path class="cls-2" d="M311.17 148.78h9.25v6.43h-9.25z"/><path class="cls-2" d="M317.34 138.73h3.43v17.29h-3.43z"/><circle class="cls-21" cx="291.72" cy="208.5" r="3.92"/><circle class="cls-10" cx="291.72" cy="208.5" r="1.93"/><circle class="cls-21" cx="327.07" cy="208.5" r="3.92"/><circle class="cls-10" cx="327.07" cy="208.5" r="1.93"/><path class="cls-7" transform="rotate(180 171.285 228.345)" d="M131.51 175.87h79.56v104.95h-79.56z"/><path class="cls-7" transform="rotate(180 59.685 228.345)" d="M0 175.87h119.37v104.95H0z"/></g><g id="Hantverkare"><path class="cls-16" d="M266.91 114.01c-6.92-.97-13.96-2.1-20.85-3.32-5.35-6.08-8.81-12.87-11.4-20.58l-14.26 5.25c2.51 7.33 6.08 15.02 10.92 21.22 2.8 3.05 5.55 8.88 10.15 8.62 11.21-.57 22.47-1.43 33.62-2.7l.76-6.86c-2.73-.33-6.22-1.25-8.94-1.63z"/><path class="cls-5" d="M247.15 122.58c-2.03-.71-4.04-1.59-5.86-2.75-1.87-1.2-3.93-2.75-4.94-4.78-1.2-2.41-.47-4.71 1.11-6.71 1.25-1.58 2.7-2.79 3.53-4.47-2.65-4.24-4.67-8.81-6.34-13.75l-14.26 5.25c2.51 7.33 6.08 15.02 10.92 21.22 2.8 3.05 5.55 8.88 10.15 8.62 4.33-.22 8.66-.49 12.99-.8-2.5-.4-4.96-1-7.32-1.82z"/><path class="cls-20" d="M212.25 273.63s-2.06 6.38-1.66 11.68c.15 2.04 1.68 3.69 3.7 3.69h25.61s2.66-.46 3.22-2.12c0 0-1.11-3.54-5.1-4.24-9.39-1.65-11.52-6.15-14.96-8.73 0 0-11.56-.28-10.81-.28zM186.9 274.15s3.15 6.27 4.37 6.73c.86.32 4.55 1.59 5.65 4.79.57 1.66-.35 3.42-2.1 3.42h-18.71s-3.64-.15-3.34-4.4c.3-4.24 2.27-11.82 2.27-11.82l11.85 1.28z"/><path class="cls-23" d="M226.5 109.34c-2.06-3.55-4.11-13.2-6.05-16.8-2.79-5.69-8.56-13.8-1.31-18.61 8.32-4.93 10.99 1.04 14.46 6.9 1.91 3.23 6.62 16.05 8.49 19.49-2.91 2.2-15.11 8.81-15.58 9.02z"/><path class="cls-23" d="M177.92 154.62c.27-6.53-.17-16.36 2.27-29.09 1.66-8.65-3.12-27.45-6.41-36.59-3.29-9.14-2.12-11.62-.68-13.81 1.98-3.01 17.02-10.59 28.72-9.86 11.7.73 24.69 5.71 28.34 9.9 6.22 7.14-1.22 17.43-3.12 43.58-.72 9.96-49.12 35.86-49.12 35.86z"/><path class="cls-14" d="M177.92 154.62s10.34-5.53 21.54-12.47c-3.41-5.76-6.11-11.95-8.14-18.08-1.19-3.6-2.16-7.29-2.83-11.02-.64-3.58-1.46-7.11-2.7-10.54-1.17-3.24-3.08-7.08-5.31-9.59-1.3-1.46-2.26-2.29-3.79-3.15-1.01-.56-1.2-.64-2.3-.94-.29-.08-.51-.14-.71-.18.04.1.07.19.1.3 3.29 9.14 8.07 27.94 6.41 36.59-2.44 12.72-2 22.55-2.27 29.09z"/><path d="M228.44 111.16c-2.69-19.46-9.76-42.06-9.59-42.96-1.78-.68-4.66-1.43-6.64-1.91 3.96 8.97 4.73 18.6 4.73 18.6l-17.16.75s-.8-10.79-5.21-20.25c-1.94.3-4.69 1.42-6.56 1.97 9.34 21.96 1.15 39.91-9.05 54.07-.04.33-3.89 34.84-3.89 34.84-2.04 39.82-.91 80.28-1.03 120.16l14.69.46c2.89-26.93 9.36-69.35 13.65-93.27l1.21.03c3.58 30.99 5.82 62.34 7.42 93.51l16.32.13c1.38-61.45 4.45-96.07 1.12-166.12z" fill="#004b6c" stroke-width="0"/><path class="cls-8" d="M183.48 276.73c-2.26-10.75-2.25-21.88-1.74-32.8.54-11.55 1.74-23.09 1.73-34.66 0-7.78-.45-15.57-.63-23.35-.19-8.25-.36-16.49-.61-24.74-.43-13.6-1.1-27.21-2.55-40.75-.24.34-.48.67-.72 1.01-.04.33-3.89 34.84-3.89 34.84-2.04 39.82-.91 80.28-1.03 120.16l9.45.29zM213.89 223.18c-3.62-18.36-10.33-39.62-10.37-39.62.1.85.42 3.32.52 4.17 1.08 9.67 2.05 19.38 2.89 29.09l.32 3.64.29 3.65c.19 2.43.4 4.86.58 7.29.34 4.86.72 9.73 1 14.6.64 9.74 1.5 21.39 1.88 31.15h3.71c.49-23.73-1.21-32.81-.82-53.97z"/><path class="cls-9" d="M209.57 111.17a1.623 1.623 0 0 1-.75-2.18l4.55-9.34c.99-2.03 3.66-3.22 5.49-1.89 1.49 1.08 3.71 3.14 5.29 4.95.59.68.99 1.7.59 2.5s-1.96 2.12-2.77 1.72l.49-1.1-6.13-2.91a.847.847 0 0 0-1.13.39l-3.46 7.09c-.39.81-1.37 1.15-2.18.75z"/><path class="cls-9" d="M211.4 112.05l-3.45-1.68-6.46 13.24c-.46.95-.07 2.1.88 2.57.95.46 2.1.07 2.57-.88l6.46-13.24z"/><rect class="cls-9" x="204.21" y="114.24" width="5.83" height="3.87" rx="1.93" ry="1.93" transform="rotate(25.99 207.108 116.165)"/><path class="cls-9" d="M216.96 102.74l6.08 2.97-.52 1.06c-.1.2-.35.28-.56.17l-.21-.53-.55.16-.21-.53-.55.16-.21-.53-.55.16-.21-.53-.55.16-.21-.53-.55.16-.21-.53-.55.16-.21-.53-.55.16-.38-.19.69-1.42z"/><path class="cls-17" d="M220.81 109.76l-.6.21-.21-.6-.6.21-.21-.6-.6.21-.21-.6-.6.21-.21-.6-.6.21-.21-.6-.6.21-.21-.6-.6.21-.21-.6-.41-.2c-.27.55-.54 1.11-.81 1.66h.02l-5.62-1.86c-2.94-.36-5.25 2.49-4.28 5.29 0 0 .51.87.96 1.09l4.93 2.4c.31.15.44.53.29.84l-1.14 2.33c-.15.31-.53.44-.84.29l-1.7-.83c-.62-.3-1.12.18-.93 1.18 0 0 1.6 4.75 1.52 4.91l-12.98 26.62c-.61 1.25-.17 2.78 1.04 3.45 1.3.71 2.91.19 3.55-1.13l18.88-38.73.56-1.15.47-.96c.32-.65 1.1-.92 1.76-.61l.81-1.66-.41-.2z"/><path class="cls-16" d="M193.32 131.82s7.82-4.02 11.07-2.86l1.16 12.41s-1.92.59-3.96.69c-7.71.38-9.68-2.04-11.61-3.69 0 0-2.33-5.22 3.35-6.55z"/><path class="cls-16" d="M210.12 132.02h-.06l-8.2-.31c-.8-.03-1.42-.7-1.39-1.5.03-.8.7-1.42 1.5-1.39l8.2.31c.8.03 1.42.7 1.39 1.5-.03.78-.67 1.39-1.44 1.39zM209.79 135.21h-.06l-8.2-.31c-.8-.03-1.42-.7-1.39-1.5.03-.8.7-1.42 1.5-1.39l8.2.31c.8.03 1.42.7 1.39 1.5-.03.78-.67 1.39-1.44 1.39zM210.02 138.36h-.21l-8.12-.42c-.8-.04-1.41-.72-1.37-1.52.04-.8.72-1.41 1.52-1.37l8.12.42a1.45 1.45 0 1 1 .06 2.89zM208.22 141.42h-.04l-6.29-.16c-.8-.02-1.43-.68-1.41-1.48.02-.8.69-1.43 1.48-1.41l6.29.16c.8.02 1.43.68 1.41 1.48-.02.79-.66 1.41-1.45 1.41zM198.12 52.31s5.12-.22 7.9.38c2.08.45 3.59 2.11 3.97 4.08l.42 2.26c.13.74.26 1.49.38 2.24.24 1.5.46 3.01.64 4.57l.02.2c.44 3.81-2.44 4.78-6.28 4.75-5.38-.04-8.52-4.79-8.46-5.67.36-5.61 1.25-12.11 1.4-12.8z"/><path d="M206.02 52.69c2.08.45 3.6 2.11 3.97 4.08l.42 2.26c.13.74.26 1.49.38 2.24.24 1.5.46 3.01.64 4.57l.02.2c.08.65.06 1.3-.04 1.92-5.61-.93-10.5-4.66-11.68-10.5l.12-.57s3.39-4.79 6.17-4.19z" opacity=".1" stroke-width="0"/><path class="cls-16" d="M217.9 34.97s3.24 30.52-6.97 29.36c-8.96-1.02-12.65-5.42-12.65-5.42s-8.55-21.55-3.04-26.36c4.3-3.76 22.66 2.43 22.66 2.43z"/><path d="M197.33 58.84s-4.41-4.39-5.57-12.02c-.36-2.36-.4-5.02.08-7.96 1.28-7.68 6.87-10.45 12.47-10.6 5.6-.15 8.77 2.72 11.54 3.04 0 0 6.06 9.49-2.09 9.08-8.15-.41-11.64.04-11.74 1.98-.1 1.94.43 4.24.43 4.24l-1.98.87s-3.25-2.24-3.84-.52c-.79 2.3-.29 5.82 1.94 6.26 0 0 .11 2.83-1.26 5.62" stroke-width="0" fill="#47322b"/><path d="M225.4 43.82s.31 1.71-1.85 1.39c-2.47-.37-4.76-1.03-5.17-1.18l-.1-2.98s5.2.66 7.12 2.77z" fill="#bd2524" stroke-width="0"/><path class="cls-17" d="M219.76 39.56s.81-15.61-15.82-14.07c-7.39.69-11.45 4.51-13.02 8.42-1.15 2.87-.83 5.62.36 11.53 0 0 1.85-1.97 4.26-2.81 5.08-1.78 12.68-5.44 24.22-3.07z"/><path class="cls-13" d="M193.2 32.8c.08-1.12.31-2.17.65-3.15-1.37 1.3-2.34 2.78-2.93 4.27-1.15 2.87-.83 5.62.36 11.53 0 0 1.85-1.97 4.26-2.81.14-.05.29-.1.44-.16-1.9-2.87-3.02-6.31-2.78-9.68z"/><path d="M216.5 36.5c.79.07 1.57.15 2.36.24l.72.09c.23 1.61.18 2.73.18 2.73-11.54-2.37-19.14 1.29-24.22 3.07-2.41.84-4.26 2.81-4.26 2.81-.29-1.44-.44-1.86-.61-2.97 8.35-5.8 22.66-6.26 25.83-5.98z" fill="#da2a28" stroke-width="0"/><path class="cls-13" d="M219.26 38.87s-4.6-1.92-13.16-.46c-3.16.54-9.47 2.32-9.47 2.32s7.14 3.93 9.47 4.48c1.47.34 3.92.39 6.49-.53 2.57-.92 10.47-2.75 12.8-.86l-6.14-4.95z"/><path class="cls-16" d="M191.86 130.33c-5.93-2.75-11.79-5.84-17.26-9.39 2.17-9.32 7.25-17.64 10.78-26.63L169.63 87c-2.98 8.3-18.25 38.76-9.78 42.74 9.72 4.57 23.54 8.08 34.03 10.16l1.36-8.05c-1.13-.51-2.26-1.01-3.38-1.52z"/><path class="cls-5" d="M168.24 131.9c-1.8-1.14-4.35-2.39-5.46-4.29-1.16-2-.77-4.38-.07-6.46.32-.95.7-1.87.98-2.83.22-.77.42-1.56.87-2.24 1.36-2.08 4.21-2.2 6.45-2.27 1.94-.06 3.87.08 5.8 0 2.5-6.58 5.95-12.86 8.57-19.51l-15.75-7.31c-2.98 8.3-18.25 38.76-9.78 42.74 4.09 1.92 8.91 3.66 13.89 5.18-1.9-.89-3.73-1.9-5.5-3.02z"/><path class="cls-23" d="M180.94 112.88c-9.89-.4-20.63-5.01-21.09-5.14 1.58-7.01 7.48-23.09 11.13-30.1 4.91-9.42 20.26-.12 16.63 9.75-1.23 6.61-5.03 19.69-6.67 25.48z"/><path class="cls-14" d="M165.05 109.44c-.1-1.19 0-2.39.14-3.57.09-.75.2-1.5.31-2.24.04-.25.08-.5.12-.76.02-.11.03-.22.05-.33-.09.64-.07.54.04-.3.64-4.6 1.54-9.22 2.39-13.78.41-2.23 1.09-4.38 1.69-6.57.53-1.93 1.13-3.87 2.1-5.63-.33.41-.64.87-.91 1.39-3.65 7-9.55 23.09-11.13 30.1.19.05 2.21.9 5.22 1.9 0-.07-.01-.14-.02-.2z"/><path class="cls-16" d="M272.91 114.37c1.84-2.08 7-5.76 8.89-5.92 2.23-.19 10.23-.33 10.23-.33s.58 1.93-1.48 2.17c-1.19.14-2.18.63-3.5.93-2.26.53-5.21 2.27-4.63 3.34.64 1.17 4.89 1.67 5.94 1.64 1.97-.06 2.66 2.15 1.15 2.12-1.47-.04-6.74 1.19-6.74 1.19s-4.77 4.49-9.28 3.17c-6.19-1.81-5.09-3.22-.59-8.31z"/></g></svg>