<svg xmlns="http://www.w3.org/2000/svg" viewBox="0 0 400 300"><defs><style>.cls-2,.cls-3,.cls-4,.cls-5,.cls-6,.cls-8,.cls-9{stroke-width:0}.cls-2{fill:#e3e3e3}.cls-3{fill:#000020}.cls-4{fill:#00a2ff}.cls-5{fill:#646464}.cls-6{fill:#fff}.cls-8{fill:#706f6f}.cls-9{fill:#00002c}</style></defs><g id="Bakgrund"><path fill="#d0eaf1" stroke-width="0" d="M0 0h400v300H0z"/><path class="cls-6" d="M48.44 97.58l5.83 15.34.42 4.91 1 113.49-7.24 9.27s-6.07-1.34-7.1-4.64c-1.03-3.31-.66-8.39-.66-11.92V190c0-2.88 1.52-5.09 1.52-8.94V116.2c0-1.81.78-4.47 1.93-7.97 1.16-3.49 4.31-10.65 4.31-10.65z"/><path class="cls-4" d="M53.83 113.34l-4.75-15.02H49l-3.01 12.09-.67.42 8.51 2.51zM56.2 226.29c4.86 0 6.66-.17 6.66-6.73v-31.72h-3.33v27.59c0 3.48-3.49 2.93-3.49 2.93l.16 7.93z"/><path class="cls-9" d="M56.2 227.08c-.43 0-.78-.34-.79-.77l-.16-7.93c0-.23.09-.45.27-.6.17-.15.4-.22.64-.19.02 0 .17.02.39.02 2.2 0 2.2-1.63 2.2-2.17v-27.59c0-.43.35-.79.79-.79h3.33c.43 0 .79.35.79.79v31.72c0 7.2-2.42 7.51-7.45 7.51zm.65-7.91l.12 6.34c4-.02 5.11-.34 5.11-5.94v-30.94h-1.76v26.8c0 2.62-1.74 3.63-3.47 3.74z"/><path class="cls-4" d="M43.3 233.63c0-3.48 2.82-6.29 6.29-6.29s6.29 2.81 6.29 6.29-2.82 6.29-6.29 6.29-6.29-2.82-6.29-6.29zM45.32 111.01c.22-.18.43-.38.66-.52 2.3-1.39 6-.24 7.94 2.75l.35 1.07v70.92c-1.09-2.12-3.28-3.58-5.83-3.58-1.13 0-2.19.29-3.12.8V111z"/><path class="cls-9" d="M54.68 184.77c-.43 0-.79-.35-.79-.79v-69.7c0-.43.35-.79.79-.79s.79.35.79.79v69.7c0 .43-.35.79-.79.79zM42.2 184.77c-.43 0-.79-.35-.79-.79v-69.9c0-.43.35-.79.79-.79s.79.35.79.79v69.9c0 .43-.35.79-.79.79z"/><path class="cls-9" d="M54.84 115.92H54c0-3.07-2.5-5.56-5.57-5.56s-5.56 2.5-5.56 5.56h-.84c0-3.53 2.87-6.4 6.4-6.4s6.41 2.87 6.41 6.4z"/><path class="cls-4" d="M44.55 182.44c.27-.22.54-.48.82-.65 2.86-1.73 7.46-.3 9.87 3.42l.43 3.89v41.08c-1.36-2.63-4.07-4.46-7.24-4.46-1.41 0-2.73.37-3.88 1.01v-44.3z"/><path class="cls-9" d="M56.2 233.61a.79.79 0 0 1-.79-.78v-43.72c0-.43.35-.79.79-.79s.79.35.79.79v43.72c0 .44-.35.78-.79.78zM40.68 233.61c-.43 0-.78-.35-.78-.78v-44.01c0-.43.35-.79.78-.79s.79.35.79.79v44.01c0 .44-.35.78-.79.78z"/><path class="cls-9" d="M48.44 241.38c-4.71 0-8.54-3.84-8.54-8.55 0-.44.35-.79.78-.79s.79.35.79.79c0 3.85 3.13 6.98 6.97 6.98s6.98-3.13 6.98-6.98c0-.44.35-.79.79-.79s.79.35.79.79c0 4.71-3.83 8.55-8.55 8.55z"/><path class="cls-9" d="M56.31 233.05h-.84c0-3.88-3.16-7.03-7.03-7.03s-7.03 3.15-7.03 7.03h-.84c0-4.34 3.53-7.87 7.86-7.87s7.87 3.53 7.87 7.87zM56.2 189.61c-.43 0-.79-.35-.79-.79 0-3.84-3.13-6.97-6.98-6.97s-6.97 3.13-6.97 6.97c0 .44-.35.79-.79.79s-.78-.35-.78-.79c0-4.71 3.83-8.55 8.54-8.55s8.55 3.83 8.55 8.55c0 .44-.35.79-.79.79zM54.68 115.07c-.33 0-.64-.21-.75-.54l-5.5-16.83-5.49 16.63c-.14.41-.58.64-.99.5a.79.79 0 0 1-.5-1l6.24-18.9c.11-.32.4-.54.75-.54.34 0 .64.22.75.54l6.25 19.1c.13.41-.09.86-.5.99-.08.02-.16.04-.24.04z"/><path class="cls-9" d="M48.44 99.11c-.43 0-.79-.35-.79-.79v-5c0-.43.35-.79.79-.79s.79.35.79.79v5c0 .43-.35.79-.79.79zM52.07 181.89c-.23 0-.42-.19-.42-.42v-67.39c0-.23.19-.42.42-.42s.42.19.42.42v67.39c0 .23-.19.42-.42.42zM53.71 228.21c-.23 0-.42-.19-.42-.42v-39.56c0-.24.19-.42.42-.42s.42.18.42.42v39.56c0 .23-.19.42-.42.42zM44.82 237.4c-.11 0-.22-.04-.3-.13-2.24-2.24-2.24-5.9 0-8.13 2.24-2.25 5.9-2.24 8.14 0 .16.16.16.42 0 .59-.16.17-.43.17-.59 0-1.92-1.92-5.04-1.92-6.95 0-1.92 1.92-1.92 5.04 0 6.95.16.16.16.43 0 .59-.08.08-.19.12-.3.12z"/></g><g id="Dokument_3"><path class="cls-6" transform="rotate(-33.28 196.953 155.523)" d="M121 43.77h151.93v223.49H121z"/><path class="cls-8" d="M322.22 207.92L195.2 291.28c-.36.24-.85.14-1.09-.23L71.49 104.21a.782.782 0 0 1 .23-1.09l127.01-83.36a.78.78 0 0 1 1.09.23l122.63 186.85c.24.36.14.85-.23 1.09zM195 289.54l125.71-82.5L198.94 21.5 73.23 104 195 289.53z"/><path class="cls-9" d="M202.93 49.09l-104.21 68.4c-.36.24-.85.14-1.09-.23s-.14-.85.23-1.09l104.21-68.4c.36-.24.85-.14 1.09.23s.14.85-.23 1.09zM164.62 81.21l-62.7 41.15c-.36.24-.85.14-1.09-.23s-.14-.85.23-1.09l62.7-41.15c.36-.24.85-.14 1.09.23s.14.85-.23 1.09zM159.08 104.11l-48.33 31.72c-.19.13-.45.07-.58-.12s-.07-.45.12-.58l48.33-31.72c.19-.13.45-.07.58.12s.07.45-.12.58zM161.13 107.23l-48.33 31.72c-.19.13-.45.07-.58-.12s-.07-.45.12-.58l48.33-31.72c.19-.13.45-.07.58.12s.07.45-.12.58zM163.18 110.35l-48.33 31.72c-.19.13-.45.07-.58-.12s-.08-.46.12-.59l48.33-31.72c.19-.13.45-.07.58.12s.07.45-.12.58zM165.23 113.47l-48.33 31.72c-.19.13-.45.08-.58-.12s-.07-.45.12-.58l48.33-31.72c.19-.13.45-.07.58.12s.07.45-.12.58zM167.28 116.6l-48.33 31.72c-.19.13-.45.07-.58-.12s-.08-.46.12-.58l48.33-31.72c.19-.13.45-.07.58.12s.07.45-.12.58zM169.33 119.72L121 151.44c-.19.13-.45.07-.58-.12s-.08-.46.12-.58l48.33-31.72c.19-.13.45-.07.58.12s.07.45-.12.58zM171.38 122.84l-48.33 31.72c-.19.13-.45.07-.58-.12s-.07-.45.12-.58l48.33-31.72c.19-.13.45-.07.58.12s.07.45-.12.58zM173.43 125.96l-48.33 31.72c-.19.13-.45.07-.58-.12s-.08-.46.12-.58l48.33-31.72c.19-.13.45-.07.58.12s.07.45-.12.58zM175.48 129.08l-48.33 31.72c-.19.13-.45.07-.58-.12s-.08-.46.12-.58l48.33-31.72c.19-.13.45-.07.58.12s.07.45-.12.58zM177.53 132.21l-48.33 31.72c-.19.13-.45.07-.58-.12s-.08-.46.12-.58l48.33-31.72c.19-.13.45-.07.58.12s.07.45-.12.58zM179.57 135.33l-48.33 31.72c-.19.13-.45.07-.58-.12s-.08-.46.12-.58l48.33-31.72c.19-.13.45-.07.58.12s.07.45-.12.58zM181.62 138.45l-48.33 31.72c-.19.13-.45.07-.58-.12s-.07-.45.12-.58l48.33-31.72c.19-.13.45-.07.58.12s.07.45-.12.58zM183.67 141.57l-48.33 31.72c-.19.13-.45.07-.58-.12s-.07-.45.12-.58l48.33-31.72c.19-.13.45-.08.58.12s.07.45-.12.58zM185.72 144.7l-48.33 31.72c-.19.13-.45.07-.58-.12s-.08-.46.12-.58L185.26 144c.19-.13.45-.07.58.12s.07.45-.12.58zM187.77 147.82l-48.33 31.72c-.19.13-.45.07-.58-.12s-.08-.46.12-.58l48.33-31.72c.19-.13.45-.07.58.12s.07.45-.12.58zM189.82 150.94l-48.33 31.72c-.19.13-.45.07-.58-.12s-.07-.45.12-.58l48.33-31.72c.19-.13.45-.07.58.12s.07.45-.12.58zM191.87 154.06l-48.33 31.72c-.19.13-.45.07-.58-.12s-.08-.46.12-.59l48.33-31.72c.19-.13.45-.07.58.12s.07.45-.12.58zM215.79 66.89l-48.33 31.72c-.19.13-.45.07-.58-.12s-.07-.45.12-.58l48.33-31.72c.19-.12.45-.07.58.12s.07.45-.12.58zM217.84 70.01l-48.33 31.72c-.19.13-.45.07-.58-.12s-.07-.45.12-.58l48.33-31.72c.19-.12.45-.07.58.12s.07.45-.12.58zM219.89 73.13l-48.33 31.72c-.19.13-.45.07-.58-.12s-.07-.46.12-.59l48.33-31.72a.423.423 0 0 1 .46.71zM221.94 76.25l-48.33 31.72c-.19.13-.45.08-.58-.12s-.07-.45.12-.58l48.33-31.72c.19-.12.45-.07.58.12s.07.45-.12.58zM223.99 79.38l-48.33 31.72a.418.418 0 1 1-.46-.7l48.33-31.72c.19-.12.45-.07.58.12s.07.45-.12.58zM226.04 82.5l-48.33 31.72a.418.418 0 1 1-.46-.7l48.33-31.72c.19-.12.45-.07.58.12s.07.45-.12.57zM228.09 85.62l-48.33 31.72c-.19.13-.45.07-.58-.12s-.07-.45.12-.58l48.33-31.72c.19-.12.45-.07.58.12s.07.45-.12.58zM230.14 88.74l-48.33 31.72a.418.418 0 1 1-.46-.7l48.33-31.72c.19-.12.45-.07.58.12s.07.45-.12.58zM232.19 91.87l-48.33 31.72a.418.418 0 1 1-.46-.7l48.33-31.72c.19-.12.45-.07.58.12s.07.45-.12.58zM234.23 94.99l-48.33 31.72a.418.418 0 1 1-.46-.7l48.33-31.72c.19-.12.45-.07.58.12s.07.45-.12.58zM236.28 98.11l-48.33 31.72a.418.418 0 1 1-.46-.7l48.33-31.72c.19-.12.45-.07.58.12s.07.45-.12.58zM238.33 101.23L190 132.95c-.19.13-.45.07-.58-.12s-.07-.45.12-.58l48.33-31.72c.19-.12.45-.07.58.12s.07.45-.12.58zM240.38 104.35l-48.33 31.72c-.19.13-.45.07-.58-.12s-.07-.45.12-.58l48.33-31.72c.19-.12.45-.07.58.12s.07.45-.12.58zM242.43 107.48L194.1 139.2a.418.418 0 1 1-.46-.7l48.33-31.72c.19-.12.45-.07.58.12s.07.45-.12.58zM227.82 121.53l-31.68 20.79a.418.418 0 1 1-.46-.7l31.68-20.79c.19-.13.45-.07.58.12s.07.45-.12.58zM200.71 167.53l-48.33 31.72c-.19.13-.45.07-.58-.12s-.08-.46.12-.58l48.33-31.72c.19-.13.45-.07.58.12s.07.45-.12.58zM202.76 170.66l-48.33 31.72c-.19.13-.45.07-.58-.12s-.07-.45.12-.58l48.33-31.72c.19-.13.45-.07.58.12s.07.45-.12.58zM204.81 173.78l-48.33 31.72c-.19.13-.45.07-.58-.12s-.08-.46.12-.59l48.33-31.72c.19-.13.45-.07.58.13s.07.45-.12.58zM206.86 176.9l-48.33 31.72c-.19.13-.45.08-.58-.12s-.07-.45.12-.58l48.33-31.72c.19-.13.45-.07.58.12s.07.45-.12.58zM208.91 180.02l-48.33 31.72c-.19.13-.45.07-.58-.12s-.07-.45.12-.58l48.33-31.72c.19-.13.45-.07.58.12s.07.45-.12.58zM210.96 183.14l-48.33 31.72c-.19.13-.45.07-.58-.12s-.08-.46.12-.59l48.33-31.72c.19-.13.45-.07.58.13s.07.45-.12.58zM213.01 186.27l-48.33 31.72c-.19.13-.45.07-.58-.12s-.07-.45.12-.58l48.33-31.72c.19-.13.45-.07.58.12s.07.45-.12.58zM215.06 189.39l-48.33 31.72c-.19.13-.45.07-.58-.12s-.08-.46.12-.59l48.33-31.72c.19-.13.45-.07.58.13s.07.45-.12.58zM217.1 192.51l-48.33 31.72c-.19.13-.45.08-.58-.12s-.07-.45.12-.58l48.33-31.72c.19-.13.45-.07.58.12s.07.45-.12.58zM219.15 195.64l-48.33 31.72c-.19.13-.45.07-.58-.12s-.07-.45.12-.58l48.33-31.72c.19-.13.45-.07.58.12s.07.45-.12.58zM221.2 198.76l-48.33 31.72c-.19.13-.45.07-.58-.12s-.08-.46.12-.58l48.33-31.72c.19-.13.45-.07.58.12s.07.45-.12.58zM223.25 201.88l-48.33 31.72c-.19.13-.45.07-.58-.12s-.07-.45.12-.58l48.33-31.72c.19-.13.45-.07.58.12s.07.45-.12.58zM225.3 205l-48.33 31.72c-.19.13-.45.07-.58-.12s-.08-.46.12-.58l48.33-31.72c.19-.13.45-.07.58.12s.07.45-.12.58zM227.35 208.12l-48.33 31.72c-.19.13-.45.08-.58-.12s-.08-.46.12-.58l48.33-31.72c.19-.13.45-.07.58.12s.07.45-.12.58zM229.4 211.25l-48.33 31.72c-.19.13-.45.07-.58-.12s-.08-.46.12-.58l48.33-31.72c.19-.13.45-.07.58.12s.07.45-.12.58zM231.45 214.37l-48.33 31.72c-.19.13-.45.07-.58-.12s-.08-.46.12-.58l48.33-31.72c.19-.13.45-.07.58.12s.07.45-.12.58zM233.5 217.49l-48.33 31.72c-.19.13-.45.07-.58-.12s-.08-.46.12-.58l48.33-31.72c.19-.13.45-.07.58.12s.07.45-.12.58zM257.42 130.32l-48.33 31.72a.418.418 0 1 1-.46-.7l48.33-31.72c.19-.12.45-.07.58.12s.07.45-.12.58zM259.47 133.44l-48.33 31.72c-.19.13-.45.07-.58-.12s-.07-.45.12-.58l48.33-31.72c.19-.12.45-.07.58.12s.07.45-.12.58zM261.52 136.56l-48.33 31.72c-.19.13-.45.07-.58-.12s-.07-.46.12-.59l48.33-31.72a.423.423 0 0 1 .46.71zM263.57 139.68l-48.33 31.72c-.19.13-.45.08-.58-.12s-.07-.45.12-.58l48.33-31.72c.19-.12.45-.07.58.12s.07.45-.12.58zM265.62 142.81l-48.33 31.72c-.19.13-.45.07-.58-.12s-.07-.45.12-.58l48.33-31.72c.19-.12.45-.07.58.12s.07.45-.12.58zM267.67 145.93l-48.33 31.72c-.19.13-.45.07-.58-.12s-.07-.46.12-.59l48.33-31.72c.19-.12.45-.07.58.13s.07.45-.12.57zM269.72 149.05l-48.33 31.72c-.19.13-.45.07-.58-.12s-.07-.45.12-.58l48.33-31.72c.19-.12.45-.07.58.12s.07.45-.12.58zM271.77 152.17l-48.33 31.72c-.19.13-.45.07-.58-.12s-.07-.46.12-.59l48.33-31.72a.423.423 0 0 1 .46.71zM273.81 155.29l-48.33 31.72c-.19.13-.45.08-.58-.12s-.07-.45.12-.58l48.33-31.72c.19-.12.45-.07.58.12s.07.45-.12.58zM275.86 158.42l-48.33 31.72c-.19.13-.45.07-.58-.12s-.07-.45.12-.58l48.33-31.72c.19-.12.45-.07.58.12s.07.45-.12.58zM245.42 182.86l-15.84 10.4a.418.418 0 1 1-.46-.7l15.84-10.4c.19-.13.45-.07.58.13s.07.45-.12.58z"/></g><g id="Dokument_2"><path class="cls-6" transform="rotate(-13.54 220.39 137.856)" d="M144.49 26.12h151.93v223.49H144.49z"/><path class="cls-8" d="M320.65 229.49l-147.71 35.56a.79.79 0 0 1-.95-.58L119.68 47.19a.79.79 0 0 1 .58-.95l147.71-35.56c.42-.1.85.16.95.58l52.31 217.29c.1.42-.16.85-.58.95zm-147.32 33.85l146.19-35.19-51.95-215.76-146.18 35.19 51.94 215.76z"/><path class="cls-9" d="M262.01 39.71L140.82 68.89c-.42.1-.85-.16-.95-.58s.16-.85.58-.95l121.19-29.18c.42-.1.85.16.95.58s-.16.85-.58.95zM215.11 57l-72.92 17.56c-.42.1-.85-.16-.95-.58s.16-.85.58-.95l72.92-17.56c.42-.1.85.16.95.58s-.16.85-.58.95zM202.17 76.68l-56.21 13.53c-.22.05-.45-.09-.51-.31s.09-.45.31-.5l56.21-13.53c.22-.05.45.09.51.31s-.08.46-.31.51zM203.04 80.31l-56.21 13.53c-.22.05-.45-.08-.51-.31s.08-.45.31-.51l56.21-13.53c.22-.05.45.09.51.31s-.09.45-.31.51zM203.91 83.94L147.7 97.47c-.22.05-.45-.08-.51-.31s.09-.45.31-.5l56.21-13.53c.22-.05.45.08.51.31s-.08.45-.31.51zM204.79 87.57l-56.21 13.53c-.22.05-.45-.09-.51-.31s.09-.45.31-.5l56.21-13.53c.22-.05.45.09.51.31s-.08.46-.31.51zM205.66 91.2l-56.21 13.53c-.22.05-.45-.08-.51-.31s.08-.45.31-.51l56.21-13.53c.22-.05.45.09.51.31s-.08.45-.31.51zM206.54 94.83l-56.21 13.53c-.22.05-.45-.09-.51-.31s.09-.45.31-.5l56.21-13.53c.22-.05.45.08.5.3s-.08.46-.31.51zM207.41 98.46l-56.21 13.53c-.22.05-.45-.08-.51-.31s.08-.45.31-.51l56.21-13.53c.22-.05.45.09.51.31s-.08.45-.31.51zM208.28 102.09l-56.21 13.53c-.22.05-.45-.08-.51-.31s.09-.45.31-.5l56.21-13.53c.22-.05.45.08.51.31s-.08.45-.31.51zM209.16 105.73l-56.21 13.53c-.22.05-.45-.09-.51-.31s.08-.45.31-.51l56.21-13.53c.22-.05.45.09.51.31s-.08.45-.31.51zM210.03 109.35l-56.21 13.53c-.22.05-.45-.08-.51-.31s.09-.45.31-.5l56.21-13.53c.22-.05.45.08.51.31s-.08.45-.31.51zM210.91 112.99l-56.21 13.53c-.22.05-.45-.09-.51-.31s.09-.45.31-.5l56.21-13.53c.22-.05.45.08.51.31s-.08.45-.31.51zM211.78 116.62l-56.21 13.53c-.22.05-.45-.09-.51-.31s.08-.45.31-.51l56.21-13.53c.22-.05.45.09.51.31s-.08.45-.31.51zM212.65 120.25l-56.21 13.53c-.22.05-.45-.08-.51-.31s.09-.45.31-.5l56.21-13.53c.22-.05.45.09.51.31s-.08.45-.31.51zM213.53 123.88l-56.21 13.53c-.22.05-.45-.09-.51-.31s.09-.45.31-.5l56.21-13.53c.22-.05.45.08.51.31s-.08.45-.31.51zM214.4 127.51l-56.21 13.53c-.22.05-.45-.08-.51-.31s.09-.45.31-.5l56.21-13.53c.22-.05.45.08.51.31s-.09.45-.31.51zM215.28 131.14l-56.21 13.53c-.22.05-.45-.09-.51-.31s.09-.45.31-.5l56.21-13.53c.22-.05.45.09.51.31s-.08.45-.31.51zM216.15 134.77l-56.21 13.53c-.22.05-.45-.09-.51-.31s.09-.45.31-.5l56.21-13.53c.22-.05.45.08.51.31s-.08.45-.31.51zM268.11 60.8L211.9 74.33c-.22.05-.45-.09-.51-.32s.08-.45.31-.5l56.21-13.53c.22-.05.45.09.51.31s-.08.46-.31.51zM268.98 64.43l-56.21 13.53c-.22.05-.45-.08-.5-.31s.08-.45.31-.51l56.21-13.53c.22-.05.45.09.51.31s-.09.45-.31.51zM269.86 68.06l-56.21 13.53c-.22.05-.45-.08-.5-.31s.08-.45.31-.5l56.21-13.53c.22-.05.45.08.51.31s-.08.45-.31.51zM270.73 71.7l-56.21 13.53c-.22.05-.45-.09-.51-.32s.08-.45.31-.5l56.21-13.53c.22-.05.45.09.51.31s-.08.46-.31.51zM271.61 75.32L215.4 88.85c-.22.05-.45-.08-.5-.31s.08-.45.31-.51l56.21-13.53c.22-.05.45.09.51.31s-.08.45-.31.51zM272.48 78.96l-56.21 13.53c-.22.05-.45-.09-.51-.32s.08-.45.31-.5l56.21-13.53c.22-.05.45.08.5.3s-.08.46-.31.51zM273.35 82.59l-56.21 13.53c-.22.05-.45-.08-.5-.31s.08-.45.31-.51l56.21-13.53c.22-.05.45.09.51.31s-.08.45-.31.51zM274.23 86.22l-56.21 13.53c-.22.05-.45-.08-.5-.31s.08-.45.31-.5l56.21-13.53c.22-.05.45.08.51.31s-.08.45-.31.51zM275.1 89.85l-56.21 13.53c-.22.05-.45-.09-.51-.31s.08-.45.31-.51l56.21-13.53c.22-.05.45.09.51.31s-.08.45-.31.51zM275.98 93.48l-56.21 13.53c-.22.05-.45-.08-.5-.31s.08-.45.31-.5l56.21-13.53c.22-.05.45.08.51.31s-.08.45-.31.51zM276.85 97.11l-56.21 13.53c-.22.05-.45-.09-.51-.31s.08-.45.31-.5l56.21-13.53c.22-.05.45.08.51.31s-.08.45-.31.51zM277.72 100.74l-56.21 13.53c-.22.05-.45-.09-.51-.31s.08-.45.31-.51l56.21-13.53c.22-.05.45.09.51.31s-.08.45-.31.51zM278.6 104.37l-56.21 13.53c-.22.05-.45-.08-.51-.31s.08-.45.31-.5l56.21-13.53c.22-.05.45.09.51.31s-.08.45-.31.51zM279.47 108l-56.21 13.53c-.22.05-.45-.09-.51-.31s.08-.45.31-.5l56.21-13.53c.22-.05.45.08.51.31s-.08.45-.31.51zM260.98 116.3l-36.84 8.87c-.22.05-.45-.08-.5-.31s.08-.45.31-.5l36.84-8.87c.22-.05.45.08.51.31s-.08.45-.31.51zM219.92 150.44l-56.21 13.53c-.22.05-.45-.08-.51-.31s.09-.45.31-.5l56.21-13.53c.22-.05.45.09.51.31s-.08.45-.31.51zM220.8 154.07l-56.21 13.53c-.22.05-.45-.08-.51-.31s.09-.45.31-.5l56.21-13.53c.22-.05.45.09.51.31s-.08.45-.31.51zM221.67 157.7l-56.21 13.53c-.22.05-.45-.09-.51-.31s.09-.45.31-.5l56.21-13.53c.22-.05.45.08.51.31s-.09.45-.31.51zM222.55 161.34l-56.21 13.53c-.22.05-.45-.09-.51-.31s.09-.45.31-.5l56.21-13.53c.22-.05.45.09.51.31s-.08.46-.31.51zM223.42 164.96l-56.21 13.53c-.22.05-.45-.08-.51-.31s.08-.45.31-.51l56.21-13.53c.22-.05.45.09.51.31s-.08.45-.31.51zM224.29 168.59l-56.21 13.53c-.22.05-.45-.08-.51-.31s.09-.45.31-.5l56.21-13.53c.22-.05.45.08.5.3s-.08.45-.31.51zM225.17 172.22l-56.21 13.53c-.22.05-.45-.08-.51-.31s.08-.45.31-.51l56.21-13.53c.22-.05.45.09.51.31s-.09.45-.31.51zM226.04 175.86l-56.21 13.53c-.22.05-.45-.09-.51-.31s.09-.45.31-.5l56.21-13.53c.22-.05.45.08.51.31s-.08.45-.31.51zM226.92 179.49l-56.21 13.53c-.22.05-.45-.09-.51-.31s.09-.45.31-.5l56.21-13.53c.22-.05.45.09.51.31s-.08.46-.31.51zM227.79 183.12l-56.21 13.53c-.22.05-.45-.08-.51-.31s.08-.45.31-.51l56.21-13.53c.22-.05.45.09.51.31s-.08.45-.31.51zM228.66 186.75l-56.21 13.53c-.22.05-.45-.09-.51-.31s.09-.45.31-.5l56.21-13.53c.22-.05.45.08.51.31s-.08.45-.31.51zM229.54 190.38l-56.21 13.53c-.22.05-.45-.09-.51-.31s.08-.45.31-.51l56.21-13.53c.22-.05.45.09.51.31s-.08.45-.31.51zM230.41 194.01l-56.21 13.53c-.22.05-.45-.08-.51-.31s.09-.45.31-.5l56.21-13.53c.22-.05.45.08.51.31s-.08.45-.31.51zM231.29 197.64l-56.21 13.53c-.22.05-.45-.09-.51-.31s.09-.45.31-.5l56.21-13.53c.22-.05.45.08.5.3s-.08.46-.31.51zM232.16 201.27l-56.21 13.53c-.22.05-.45-.08-.51-.31s.09-.45.31-.5l56.21-13.53c.22-.05.45.08.51.31s-.08.45-.31.51zM233.03 204.9l-56.21 13.53c-.22.05-.45-.09-.51-.31s.09-.45.31-.5l56.21-13.53c.22-.05.45.08.51.31s-.08.45-.31.51zM233.91 208.53l-56.21 13.53c-.22.05-.45-.09-.51-.31s.08-.45.31-.51l56.21-13.53c.22-.05.45.09.51.31s-.08.45-.31.51zM285.87 134.56l-56.21 13.53c-.22.05-.45-.08-.51-.31s.08-.45.31-.5l56.21-13.53c.22-.05.45.09.51.31s-.08.45-.31.51zM286.74 138.19l-56.21 13.53c-.22.05-.45-.08-.51-.31s.08-.45.31-.5l56.21-13.53c.22-.05.45.09.51.31s-.08.45-.31.51zM287.62 141.83l-56.21 13.53c-.22.05-.45-.09-.5-.31s.08-.45.31-.5l56.21-13.53c.22-.05.45.08.51.31s-.09.45-.31.51zM288.49 145.46l-56.21 13.53c-.22.05-.45-.09-.51-.32s.08-.45.31-.5l56.21-13.53c.22-.05.45.09.51.31s-.08.46-.31.51zM289.36 149.09l-56.21 13.53c-.22.05-.45-.08-.5-.31s.08-.45.31-.51l56.21-13.53c.22-.05.45.09.51.31s-.08.45-.31.51zM290.24 152.72l-56.21 13.53c-.22.05-.45-.08-.51-.31s.08-.45.31-.5l56.21-13.53c.22-.05.45.08.5.3s-.08.45-.31.51zM291.11 156.35l-56.21 13.53c-.22.05-.45-.08-.5-.31s.08-.45.31-.51l56.21-13.53c.22-.05.45.09.51.31s-.09.45-.31.51zM291.99 159.98l-56.21 13.53c-.22.05-.45-.09-.5-.31s.08-.45.31-.5l56.21-13.53c.22-.05.45.08.51.31s-.08.45-.31.51zM292.86 163.61l-56.21 13.53c-.22.05-.45-.09-.51-.32s.08-.45.31-.5l56.21-13.53c.22-.05.45.09.51.31s-.08.46-.31.51zM293.73 167.24l-56.21 13.53c-.22.05-.45-.08-.5-.31s.08-.45.31-.51l56.21-13.53c.22-.05.45.09.51.31s-.08.45-.31.51zM256.82 179.97l-18.42 4.43c-.22.05-.45-.09-.51-.31s.08-.45.31-.5l18.42-4.43c.22-.05.45.08.51.31s-.08.45-.31.51z"/></g><g id="Dokument_1"><path class="cls-6" d="M172.51 18.56h151.94v223.5H172.51z"/><path class="cls-8" d="M324.44 242.85H172.5c-.43 0-.79-.35-.79-.79V18.56c0-.43.35-.79.79-.79h151.94c.43 0 .79.35.79.79v223.5c0 .43-.35.79-.79.79zm-151.15-1.57h150.37V19.35H173.29v221.93z"/><path class="cls-9" d="M311.86 40.45H187.21c-.43 0-.79-.35-.79-.79s.35-.78.79-.78h124.65c.43 0 .79.35.79.78s-.35.79-.79.79zM245.02 167.54h-57.81c-.23 0-.42-.19-.42-.42s.19-.42.42-.42h57.81c.23 0 .42.19.42.42s-.19.42-.42.42zM245.02 171.28h-57.81c-.23 0-.42-.19-.42-.42s.19-.42.42-.42h57.81c.23 0 .42.19.42.42s-.19.42-.42.42zM245.02 175.01h-57.81c-.23 0-.42-.19-.42-.42s.19-.42.42-.42h57.81c.23 0 .42.19.42.42s-.19.42-.42.42zM245.02 178.74h-57.81c-.23 0-.42-.18-.42-.42s.19-.42.42-.42h57.81c.23 0 .42.19.42.42s-.19.42-.42.42zM245.02 182.48h-57.81c-.23 0-.42-.19-.42-.42s.19-.42.42-.42h57.81c.23 0 .42.19.42.42s-.19.42-.42.42zM245.02 186.21h-57.81c-.23 0-.42-.19-.42-.42s.19-.42.42-.42h57.81c.23 0 .42.19.42.42s-.19.42-.42.42zM245.02 189.95h-57.81c-.23 0-.42-.19-.42-.42s.19-.42.42-.42h57.81c.23 0 .42.19.42.42s-.19.42-.42.42zM245.02 193.68h-57.81c-.23 0-.42-.19-.42-.42s.19-.42.42-.42h57.81c.23 0 .42.19.42.42s-.19.42-.42.42zM245.02 197.42h-57.81c-.23 0-.42-.19-.42-.42s.19-.42.42-.42h57.81c.23 0 .42.19.42.42s-.19.42-.42.42zM245.02 201.15h-57.81c-.23 0-.42-.19-.42-.42s.19-.42.42-.42h57.81c.23 0 .42.19.42.42s-.19.42-.42.42zM245.02 204.89h-57.81c-.23 0-.42-.19-.42-.42s.19-.42.42-.42h57.81c.23 0 .42.19.42.42s-.19.42-.42.42zM210.96 208.62H187.2c-.23 0-.42-.19-.42-.42s.19-.42.42-.42h23.76c.23 0 .42.19.42.42s-.19.42-.42.42zM311.86 126.22H187.21c-.23 0-.42-.19-.42-.42s.19-.42.42-.42h124.65c.23 0 .42.19.42.42s-.19.42-.42.42zM311.86 129.96H187.21c-.23 0-.42-.19-.42-.42s.19-.42.42-.42h124.65c.23 0 .42.19.42.42s-.19.42-.42.42zM311.86 133.69H187.21c-.23 0-.42-.19-.42-.41s.19-.42.42-.42h124.65c.23 0 .42.19.42.42s-.19.41-.42.41zM311.86 137.43H187.21c-.23 0-.42-.19-.42-.42s.19-.42.42-.42h124.65c.23 0 .42.18.42.42s-.19.42-.42.42zM311.86 141.16H187.21c-.23 0-.42-.19-.42-.42s.19-.42.42-.42h124.65c.23 0 .42.19.42.42s-.19.42-.42.42zM311.86 144.89H187.21c-.23 0-.42-.19-.42-.42s.19-.42.42-.42h124.65c.23 0 .42.19.42.42s-.19.42-.42.42zM311.86 148.63H187.21c-.23 0-.42-.19-.42-.42s.19-.42.42-.42h124.65c.23 0 .42.19.42.42s-.19.42-.42.42zM287.13 152.37H187.2c-.23 0-.42-.19-.42-.42s.19-.42.42-.42h99.93c.23 0 .42.19.42.42s-.19.42-.42.42zM311.86 60.32h-34.71c-.23 0-.42-.19-.42-.42s.19-.41.42-.41h34.71c.23 0 .42.18.42.41s-.19.42-.42.42zM311.86 64.06h-34.71c-.23 0-.42-.19-.42-.42s.19-.42.42-.42h34.71c.23 0 .42.19.42.42s-.19.42-.42.42zM311.86 67.79h-34.71c-.23 0-.42-.19-.42-.42s.19-.42.42-.42h34.71c.23 0 .42.19.42.42s-.19.42-.42.42zM311.86 71.53h-34.71c-.23 0-.42-.19-.42-.42s.19-.42.42-.42h34.71c.23 0 .42.19.42.42s-.19.42-.42.42zM311.86 75.26h-34.71c-.23 0-.42-.19-.42-.42s.19-.42.42-.42h34.71c.23 0 .42.19.42.42s-.19.42-.42.42zM311.86 78.99h-34.71c-.23 0-.42-.19-.42-.42s.19-.42.42-.42h34.71c.23 0 .42.19.42.42s-.19.42-.42.42zM311.86 82.73h-34.71c-.23 0-.42-.19-.42-.42s.19-.42.42-.42h34.71c.23 0 .42.19.42.42s-.19.42-.42.42zM311.86 86.46h-34.71c-.23 0-.42-.19-.42-.42s.19-.42.42-.42h34.71c.23 0 .42.19.42.42s-.19.42-.42.42zM311.86 90.2h-34.71c-.23 0-.42-.19-.42-.42s.19-.41.42-.41h34.71c.23 0 .42.19.42.41s-.19.42-.42.42zM311.86 93.93h-34.71c-.23 0-.42-.19-.42-.42s.19-.42.42-.42h34.71c.23 0 .42.19.42.42s-.19.42-.42.42zM311.86 97.67h-34.71c-.23 0-.42-.19-.42-.42s.19-.42.42-.42h34.71c.23 0 .42.19.42.42s-.19.42-.42.42zM311.86 101.4h-34.71c-.23 0-.42-.19-.42-.42s.19-.42.42-.42h34.71c.23 0 .42.19.42.42s-.19.42-.42.42zM311.86 105.14h-34.71c-.23 0-.42-.19-.42-.42s.19-.42.42-.42h34.71c.23 0 .42.19.42.42s-.19.42-.42.42zM302.72 108.87h-25.57c-.23 0-.42-.19-.42-.42s.19-.42.42-.42h25.57c.23 0 .42.19.42.42s-.19.42-.42.42zM294.14 46.29H187.2c-.43 0-.79-.35-.79-.79s.35-.79.79-.79h106.94c.43 0 .79.35.79.79s-.35.79-.79.79z"/><path class="cls-2" d="M267.52 60.48h-78.89c-.83 0-1.51.68-1.51 1.52v48.17c0 .83.68 1.51 1.51 1.51h78.89c.84 0 1.52-.68 1.52-1.51V62c0-.83-.68-1.52-1.52-1.52z"/><path class="cls-9" d="M261.76 106.99h-67.51c-.24 0-.42-.19-.42-.42V66.34c0-.23.19-.42.42-.42s.42.19.42.42v39.81h67.1c.23 0 .42.19.42.42s-.19.42-.42.42z"/><path class="cls-9" d="M194.25 101.75c-.13 0-.25-.06-.33-.17a.425.425 0 0 1 .07-.59l10.49-8.21c.1-.08.25-.1.38-.07l7.44 2.18 11.71-13.09c.12-.14.32-.18.49-.1l16.55 7.58L261.49 73c.18-.15.44-.12.59.07.15.18.12.45-.06.59l-20.65 16.43c-.13.1-.29.12-.44.05l-16.51-7.56-11.68 13.06c-.11.12-.28.17-.43.12l-7.49-2.2-10.32 8.07a.41.41 0 0 1-.26.09z"/><path class="cls-9" d="M212.43 106.27c-.24 0-.42-.19-.42-.42v-2.09c0-.23.19-.42.42-.42.24 0 .42.19.42.42v2.09c0 .23-.19.42-.42.42zm0-4.19c-.23 0-.42-.19-.42-.42v-2.09c0-.23.19-.42.42-.42s.42.19.42.42v2.09c0 .24-.18.42-.42.42zm0-4.19c-.23 0-.42-.19-.42-.42v-2.09c0-.23.19-.42.42-.42s.42.19.42.42v2.09c0 .23-.18.42-.42.42zM241.12 106.99c-.24 0-.42-.19-.42-.42s.18-.44.42-.44.42.17.42.4v.04c0 .23-.19.42-.42.42zm0-2.13c-.24 0-.42-.19-.42-.42v-2.09c0-.23.18-.42.42-.42s.42.19.42.42v2.09c0 .23-.19.42-.42.42zm0-4.19c-.24 0-.42-.19-.42-.42v-2.1c0-.23.18-.41.42-.41s.42.19.42.41v2.1c0 .23-.19.42-.42.42zm0-4.19c-.24 0-.42-.19-.42-.42v-2.09c0-.23.18-.42.42-.42s.42.19.42.42v2.09c0 .23-.19.42-.42.42zm0-4.19c-.24 0-.42-.19-.42-.42v-2.1c0-.23.18-.41.42-.41s.42.19.42.41v2.1c0 .23-.19.42-.42.42zM224.32 106.99c-.23 0-.42-.19-.42-.42v-2.09c0-.23.19-.42.42-.42s.42.19.42.42v2.09c0 .23-.19.42-.42.42zm0-4.19c-.23 0-.42-.19-.42-.42v-2.09c0-.23.19-.42.42-.42s.42.18.42.42v2.09c0 .23-.19.42-.42.42zm0-4.19c-.23 0-.42-.19-.42-.42V96.1c0-.23.19-.42.42-.42s.42.19.42.42v2.09c0 .23-.19.42-.42.42zm0-4.19c-.23 0-.42-.19-.42-.42v-2.09c0-.24.19-.42.42-.42s.42.19.42.42V94c0 .23-.19.42-.42.42zm0-4.19c-.23 0-.42-.19-.42-.42v-2.09c0-.23.19-.42.42-.42s.42.19.42.42v2.09c0 .23-.19.42-.42.42zm0-4.19c-.23 0-.42-.19-.42-.42v-2.09c0-.23.19-.42.42-.42s.42.19.42.42v2.09c0 .23-.19.42-.42.42zM261.76 106.99c-.23 0-.42-.19-.42-.42v-2.09c0-.23.19-.42.42-.42s.42.19.42.42v2.09c0 .23-.19.42-.42.42zm0-4.19c-.23 0-.42-.19-.42-.42v-2.09c0-.23.19-.42.42-.42s.42.18.42.42v2.09c0 .23-.19.42-.42.42zm0-4.19c-.23 0-.42-.19-.42-.42V96.1c0-.23.19-.42.42-.42s.42.19.42.42v2.09c0 .23-.19.42-.42.42zm0-4.19c-.23 0-.42-.19-.42-.42v-2.09c0-.24.19-.42.42-.42s.42.19.42.42V94c0 .23-.19.42-.42.42zm0-4.19c-.23 0-.42-.19-.42-.42v-2.09c0-.23.19-.42.42-.42s.42.19.42.42v2.09c0 .23-.19.42-.42.42zm0-4.19c-.23 0-.42-.19-.42-.42v-2.09c0-.23.19-.42.42-.42s.42.19.42.42v2.09c0 .23-.19.42-.42.42zm0-4.19c-.23 0-.42-.19-.42-.42v-2.09c0-.23.19-.42.42-.42s.42.19.42.42v2.09c0 .23-.19.42-.42.42zm0-4.19c-.23 0-.42-.19-.42-.42v-2.09c0-.23.19-.42.42-.42s.42.19.42.42v2.09c0 .23-.19.42-.42.42zM204.74 106.99c-.23 0-.42-.19-.42-.42v-2.09c0-.23.19-.42.42-.42s.42.19.42.42v2.09c0 .23-.19.42-.42.42zm0-4.19c-.23 0-.42-.19-.42-.42v-2.09c0-.23.19-.42.42-.42s.42.18.42.42v2.09c0 .23-.19.42-.42.42zm0-4.19c-.23 0-.42-.19-.42-.42V96.1c0-.23.19-.42.42-.42s.42.19.42.42v2.09c0 .23-.19.42-.42.42zm0-4.19c-.23 0-.42-.19-.42-.42v-.89c0-.23.19-.42.42-.42s.42.19.42.42V94c0 .23-.19.42-.42.42z"/><path class="cls-3" d="M206.21 93.12a1.464 1.464 0 1 1-2.93 0 1.464 1.464 0 1 1 2.93 0zM213.91 95.38c0 .81-.66 1.47-1.47 1.47s-1.48-.66-1.48-1.47.67-1.47 1.48-1.47 1.47.66 1.47 1.47zM242.58 89.78a1.464 1.464 0 1 1-2.93 0c0-.81.65-1.46 1.46-1.46s1.47.66 1.47 1.46zM225.8 82.09c0 .81-.66 1.47-1.48 1.47s-1.47-.66-1.47-1.47.66-1.47 1.47-1.47 1.48.66 1.48 1.47zM263.22 73.34a1.464 1.464 0 1 1-2.93 0c0-.81.65-1.47 1.47-1.47s1.46.66 1.46 1.47z"/><path class="cls-9" d="M213.91 75.55H199.8c-.24 0-.42-.19-.42-.42s.19-.42.42-.42h14.11c.23 0 .42.19.42.42s-.19.42-.42.42zM208.98 73.78h-9.18c-.24 0-.42-.19-.42-.42s.19-.42.42-.42h9.18c.23 0 .42.19.42.42s-.19.42-.42.42zM210.96 72.02H199.8c-.24 0-.42-.19-.42-.42s.19-.42.42-.42h11.16c.23 0 .42.19.42.42s-.19.42-.42.42z"/><path class="cls-2" d="M310.52 167.12h-53.9c-.73 0-1.34.6-1.34 1.34v42.64c0 .74.61 1.34 1.34 1.34h53.9c.74 0 1.34-.6 1.34-1.34v-42.64c0-.74-.6-1.34-1.34-1.34z"/><path class="cls-9" d="M277.45 172.73h-16.97c-.23 0-.42-.19-.42-.42s.19-.42.42-.42h16.97c.23 0 .42.19.42.42s-.19.42-.42.42zM277.45 174.63h-16.97c-.23 0-.42-.18-.42-.41s.19-.42.42-.42h16.97c.23 0 .42.19.42.42s-.19.41-.42.41zM270.16 176.54h-9.68c-.23 0-.42-.19-.42-.42s.19-.42.42-.42h9.68c.23 0 .42.18.42.42s-.19.42-.42.42z"/><path class="cls-5" d="M261.37 194.71h5.51c.49 0 .89.4.89.89v11.42c0 .49-.4.89-.89.89h-5.5c-.49 0-.89-.4-.89-.89V195.6c0-.49.4-.89.89-.89z"/><path class="cls-6" d="M261.37 188.44h5.5c.49 0 .89.4.89.89v3.14c0 .49-.4.89-.89.89h-5.5c-.49 0-.89-.4-.89-.89v-3.14c0-.49.4-.89.89-.89zM277.45 195.54c0-.49-.4-.89-.89-.89h-5.5a.9.9 0 0 0-.9.89v4.19c0 .49.41.89.9.89h5.5c.49 0 .89-.4.89-.89v-4.19zM287.13 188.94c0-.49-.4-.89-.89-.89h-5.5a.9.9 0 0 0-.9.89v1.88c0 .49.41.89.9.89h5.5c.49 0 .89-.4.89-.89v-1.88zM306.49 193.47c0-.49-.4-.89-.89-.89h-5.51c-.49 0-.89.4-.89.89v2.31c0 .49.4.89.89.89h5.51c.49 0 .89-.4.89-.89v-2.31zM296.81 179.64c0-.49-.4-.89-.89-.89h-5.5a.9.9 0 0 0-.9.89v5.67c0 .49.41.89.9.89h5.5c.5 0 .89-.4.89-.89v-5.67z"/><path class="cls-5" d="M271.05 201.97h5.5c.5 0 .9.4.9.9v4.16c0 .49-.4.89-.89.89h-5.51c-.49 0-.89-.4-.89-.89v-4.17c0-.49.4-.9.9-.9zM287.13 193.95a.9.9 0 0 0-.89-.9h-5.5c-.49 0-.9.41-.9.9v13.07c0 .49.41.89.9.89h5.5c.49 0 .89-.4.89-.89v-13.07z"/><path d="M290.42 187.54h5.5c.5 0 .9.4.9.9v18.58c0 .5-.4.9-.9.9h-5.5c-.49 0-.89-.4-.89-.89v-18.59c0-.49.4-.89.89-.89z" stroke-width="0" fill="#ffc000"/><path class="cls-5" d="M306.49 198.91c0-.49-.4-.89-.89-.89h-5.51c-.49 0-.89.4-.89.89v8.12c0 .49.4.89.89.89h5.51c.49 0 .89-.4.89-.89v-8.12z"/><path class="cls-9" d="M217.39 26.56h1.04v3.9h.04c.22-.31.43-.6.64-.86l2.47-3.03h1.29L219.94 30l3.15 4.65h-1.24l-2.66-3.97-.77.89v3.08h-1.04v-8.08zM229.11 31.69c0 2.15-1.49 3.08-2.89 3.08-1.57 0-2.78-1.15-2.78-2.99 0-1.94 1.27-3.08 2.88-3.08s2.79 1.21 2.79 2.99zm-4.61.06c0 1.27.73 2.23 1.76 2.23s1.76-.95 1.76-2.25c0-.98-.49-2.23-1.74-2.23s-1.79 1.15-1.79 2.25zM230.45 30.41c0-.6-.01-1.09-.05-1.57h.94l.06.96h.02c.29-.55.96-1.09 1.92-1.09.8 0 2.05.48 2.05 2.47v3.47h-1.05V31.3c0-.94-.35-1.71-1.34-1.71-.7 0-1.24.49-1.42 1.08-.05.13-.07.31-.07.49v3.49h-1.05v-4.23zM237.21 34.64v-5h-.82v-.8h.82v-.31c0-1.54.9-2.53 2.53-2.53.54 0 1.18.17 1.48.38l-.3.8c-.25-.18-.71-.34-1.22-.34-1.12 0-1.44.78-1.44 1.7v.29h3.37v5.8h-1.04v-5h-2.33v5h-1.04zM248.4 26.12v7.02c0 .52.01 1.1.05 1.5h-.95l-.05-1.01h-.02c-.32.65-1.03 1.14-1.98 1.14-1.4 0-2.48-1.19-2.48-2.95-.01-1.93 1.19-3.12 2.6-3.12.89 0 1.49.42 1.75.89h.02v-3.47h1.06zm-1.06 5.07c0-.13-.01-.31-.05-.44-.16-.67-.73-1.22-1.52-1.22-1.09 0-1.74.96-1.74 2.24 0 1.18.58 2.15 1.71 2.15.71 0 1.36-.47 1.55-1.26.04-.14.05-.29.05-.46v-1.01zM250.74 31.93c.02 1.43.94 2.01 1.99 2.01.76 0 1.21-.13 1.61-.3l.18.76c-.37.17-1.01.36-1.93.36-1.79 0-2.85-1.18-2.85-2.93s1.03-3.13 2.72-3.13c1.89 0 2.4 1.67 2.4 2.73 0 .22-.02.38-.04.49h-4.08zm3.09-.76c.01-.67-.28-1.71-1.46-1.71-1.07 0-1.54.98-1.62 1.71h3.08zM256.16 30.41c0-.6-.01-1.09-.05-1.57h.94l.06.96h.02c.29-.55.96-1.09 1.92-1.09.8 0 2.05.48 2.05 2.47v3.47h-1.05V31.3c0-.94-.35-1.71-1.34-1.71-.7 0-1.24.49-1.42 1.08-.05.13-.07.31-.07.49v3.49h-1.05v-4.23zM264.04 27.17v1.67h1.51v.8h-1.51v3.13c0 .72.2 1.13.79 1.13.28 0 .48-.04.61-.07l.05.79c-.2.08-.53.14-.94.14-.49 0-.89-.16-1.14-.44-.3-.31-.41-.83-.41-1.51v-3.17h-.9v-.8h.9v-1.39l1.03-.28zM267.92 27.2c.01.36-.25.65-.67.65-.37 0-.64-.29-.64-.65s.28-.66.66-.66.65.29.65.66zm-1.17 7.44v-5.8h1.05v5.8h-1.05zM270.14 31.93c.02 1.43.94 2.01 1.99 2.01.76 0 1.21-.13 1.61-.3l.18.76c-.37.17-1.01.36-1.93.36-1.79 0-2.85-1.18-2.85-2.93s1.03-3.13 2.72-3.13c1.89 0 2.4 1.67 2.4 2.73 0 .22-.02.38-.04.49h-4.08zm3.09-.76c.01-.67-.28-1.71-1.46-1.71-1.07 0-1.54.98-1.62 1.71h3.08zM275.57 26.12h1.05v8.52h-1.05v-8.52zM278.4 26.12h1.05v8.52h-1.05v-8.52z"/></g></svg>