<svg xmlns="http://www.w3.org/2000/svg" xmlns:xlink="http://www.w3.org/1999/xlink" viewBox="0 0 400 300"><defs><style>.cls-1{fill:#a5b6ce}.cls-1,.cls-14,.cls-18,.cls-20,.cls-26,.cls-35,.cls-37,.cls-51{stroke-width:0}.cls-14{fill:#9dabc4}.cls-18{fill:#464362}.cls-20{fill:#495784}.cls-26{fill:#fff}.cls-35{fill:#636382}.cls-37{fill:#3b4466}.cls-51{fill:#e6c7a2}</style><linearGradient id="Namnlös_övertoning_8" x1="200" y1="237.65" x2="200" y2="300" gradientUnits="userSpaceOnUse"><stop offset="0" stop-color="#fff"/><stop offset=".32" stop-color="#fafafb"/><stop offset="1" stop-color="#f6f6f8"/></linearGradient><linearGradient id="linear-gradient" x1="-185.15" y1="-509.1" x2="76.47" y2="180.08" gradientTransform="matrix(-1 0 0 1 251.59 0)" gradientUnits="userSpaceOnUse"><stop offset="0" stop-color="#fff"/><stop offset="1"/></linearGradient><linearGradient id="linear-gradient-2" x1="111.36" y1="140.19" x2="121.49" y2="140.19" gradientTransform="matrix(-1 0 0 1 251.59 0)" gradientUnits="userSpaceOnUse"><stop offset="0" stop-color="#fff"/><stop offset="1" stop-color="#9e9e9e"/></linearGradient><linearGradient id="linear-gradient-3" x1="1.37" y1="140.69" x2="11.63" y2="140.69" xlink:href="#linear-gradient-2"/><linearGradient id="linear-gradient-4" x1="178.86" y1="144.58" x2="183.68" y2="144.58" xlink:href="#linear-gradient-2"/><linearGradient id="linear-gradient-5" x1="128.41" y1="145" x2="151.63" y2="145" gradientTransform="matrix(-1 0 0 1 251.59 0)" gradientUnits="userSpaceOnUse"><stop offset="0" stop-color="#d1a46f"/><stop offset="1" stop-color="#b7803f"/></linearGradient><linearGradient id="linear-gradient-6" x1="129.56" y1="145.49" x2="150.25" y2="145.49" gradientTransform="matrix(-1 0 0 1 251.59 0)" gradientUnits="userSpaceOnUse"><stop offset="0" stop-color="#fff"/><stop offset="1" stop-color="#a6cacc"/></linearGradient><linearGradient id="linear-gradient-7" x1="80.74" y1="70.96" x2="222.55" y2="70.96" xlink:href="#linear-gradient"/><linearGradient id="linear-gradient-8" x1="80.74" y1="87.47" x2="222.55" y2="87.47" xlink:href="#linear-gradient"/><linearGradient id="linear-gradient-9" x1="80.74" y1="136.79" x2="222.55" y2="136.79" xlink:href="#linear-gradient"/><linearGradient id="linear-gradient-10" x1="107.15" y1="264.19" x2="177.89" y2="264.19" xlink:href="#linear-gradient-5"/><linearGradient id="linear-gradient-11" x1="108.47" y1="264.32" x2="176.64" y2="264.32" xlink:href="#linear-gradient-2"/><linearGradient id="linear-gradient-12" x1="107.14" y1="26.53" x2="177.89" y2="26.53" xlink:href="#linear-gradient-5"/><linearGradient id="linear-gradient-13" x1="108.89" y1="26.59" x2="176.06" y2="26.59" xlink:href="#linear-gradient-2"/><linearGradient id="linear-gradient-14" x1="151.63" y1="145.66" x2="157.78" y2="145.66" xlink:href="#linear-gradient-5"/><linearGradient id="linear-gradient-15" x1="124.86" y1="146.35" x2="130.09" y2="146.35" xlink:href="#linear-gradient-5"/><linearGradient id="linear-gradient-16" x1="107.15" y1="144.58" x2="177.89" y2="144.58" gradientTransform="matrix(-1 0 0 1 251.59 0)" gradientUnits="userSpaceOnUse"><stop offset="0" stop-color="#2a1b09"/><stop offset="1" stop-color="#5e401c"/></linearGradient><linearGradient id="linear-gradient-17" x1="157.78" y1="145.58" x2="176.28" y2="145.58" xlink:href="#linear-gradient-2"/><linearGradient id="linear-gradient-18" x1="108.43" y1="145.99" x2="124.86" y2="145.99" xlink:href="#linear-gradient-2"/><linearGradient id="linear-gradient-19" x1="2139.71" y1="142.43" x2="2144.34" y2="142.43" gradientTransform="translate(-2071.61)" gradientUnits="userSpaceOnUse"><stop offset="0" stop-color="#d8dce0"/><stop offset="1" stop-color="#b0b4b9"/></linearGradient><linearGradient id="linear-gradient-20" x1="2139.71" y1="142.43" x2="2144.34" y2="142.43" gradientTransform="translate(-2071.61)" gradientUnits="userSpaceOnUse"><stop offset="0" stop-color="#9e9e9e"/><stop offset="1" stop-color="#fff"/></linearGradient><linearGradient id="linear-gradient-21" x1="2139.73" y1="142.22" x2="2143.23" y2="142.22" gradientTransform="translate(-2071.61)" gradientUnits="userSpaceOnUse"><stop offset="0" stop-color="#b0b4b9"/><stop offset="1" stop-color="#d8dce0"/></linearGradient><linearGradient id="linear-gradient-22" x1="2139.73" y1="142.22" x2="2143.23" y2="142.22" xlink:href="#linear-gradient-20"/><linearGradient id="linear-gradient-23" x1="2147.22" y1="142.08" x2="2156.22" y2="142.08" xlink:href="#linear-gradient-21"/><linearGradient id="linear-gradient-24" x1="2151.72" y1="137.58" x2="2151.72" y2="146.75" gradientTransform="translate(-2071.61)" xlink:href="#linear-gradient-2"/><linearGradient id="linear-gradient-25" x1="2152.56" y1="137.92" x2="2152.56" y2="146.95" gradientTransform="translate(-2071.61)" xlink:href="#linear-gradient-2"/><linearGradient id="linear-gradient-26" x1="-34.44" y1="137.54" x2="-34.44" y2="146.58" gradientTransform="matrix(-1 0 0 1 46.59 0)" xlink:href="#linear-gradient-19"/><linearGradient id="linear-gradient-27" x1="-34.48" y1="137.54" x2="-34.48" y2="146.49" gradientTransform="matrix(-1 0 0 1 46.59 0)" xlink:href="#linear-gradient"/><linearGradient id="linear-gradient-28" x1="2152.64" y1="138.44" x2="2152.64" y2="145.49" xlink:href="#linear-gradient-21"/><radialGradient id="radial-gradient" cx="-942.98" cy="844.76" fx="-942.98" fy="844.76" r="2.24" gradientTransform="matrix(-.02404 -.55948 4.25607 -.18304 -3528.96 -232.63)" gradientUnits="userSpaceOnUse"><stop offset="0" stop-color="#c4c4c4"/><stop offset=".19" stop-color="#d7d7d7"/><stop offset=".48" stop-color="#ededed"/><stop offset=".75" stop-color="#fafafa"/><stop offset="1" stop-color="#fff"/></radialGradient><linearGradient id="linear-gradient-29" x1="2150.49" y1="142.08" x2="2154.78" y2="142.08" gradientTransform="translate(-2071.61)" xlink:href="#linear-gradient-2"/><linearGradient id="linear-gradient-30" x1="2151.45" y1="142.08" x2="2153.16" y2="142.08" xlink:href="#linear-gradient-19"/><linearGradient id="linear-gradient-31" x1="2151.54" y1="142.08" x2="2155.68" y2="142.08" gradientTransform="translate(-2071.61)" xlink:href="#linear-gradient-2"/><linearGradient id="linear-gradient-32" x1="2150.37" y1="138.49" x2="2165.57" y2="152.38" gradientTransform="translate(-2071.61)" xlink:href="#linear-gradient"/><linearGradient id="linear-gradient-33" x1="2153.13" y1="142.08" x2="2154.67" y2="142.08" xlink:href="#linear-gradient-19"/><linearGradient id="linear-gradient-34" x1="2153.13" y1="142.08" x2="2154.67" y2="142.08" gradientTransform="translate(-2071.61)" xlink:href="#linear-gradient-2"/><linearGradient id="linear-gradient-35" x1="2154.31" y1="142.08" x2="2169.45" y2="142.08" xlink:href="#linear-gradient-21"/><linearGradient id="linear-gradient-36" x1="2154.31" y1="143.37" x2="2169.45" y2="143.37" xlink:href="#linear-gradient-20"/><linearGradient id="linear-gradient-37" x1="2162.5" y1="129.01" x2="2161.31" y2="147.76" gradientTransform="translate(-2071.61)" xlink:href="#linear-gradient"/></defs><g style="isolation:isolate"><path fill="url(#Namnlös_övertoning_8)" stroke-width="0" d="M0 237.65h400V300H0z" id="Golv"/><g id="Vägg"><path fill="#daeeea" stroke-width="0" d="M0 0v262.94h140.23V25.47h103.64v237.47H400V0H0z"/><path class="cls-26" d="M0 255.84h143.16v7.1H0zM251.13 255.84H400v7.1H251.13z"/></g><g id="Lager_1"><path class="cls-51" d="M251.85 15.42V264.1h-13.5l1.61-236.32-99.73.15 1.21 235.66-12.64-.06V15.42h123.05z"/><path style="mix-blend-mode:screen" fill="url(#linear-gradient)" stroke-width="0" d="M250.22 264.1l-.29-246.83-119.83-.44.5 246.7h7.5V25.47h104V264.1h8.12z"/><path style="mix-blend-mode:color-burn" fill="url(#linear-gradient-2)" stroke-width="0" d="M130.1 16.83l10.13 10.95-.07 235.78-9.56-.03-.5-246.7z"/><path style="mix-blend-mode:color-burn" fill="url(#linear-gradient-3)" stroke-width="0" d="M249.93 17.27l-9.97 10.51V264.1h10.26l-.29-246.83z"/><path fill="#dbd5d1" stroke-width="0" d="M73.7 9.57L67 11.09v266.66l6.7 1.85V9.57z"/><path class="cls-51" d="M73.7 9.57L67 11.09v266.66l6.7 1.85V9.57z"/><path style="mix-blend-mode:color-burn" fill="url(#linear-gradient-4)" stroke-width="0" d="M72.54 9.83l-4.39 1L67.91 278l4.82 1.33-.19-269.5z"/><path class="cls-51" d="M73.7 9.57V279.6l70.74-16.15-.07-235.63L73.7 9.57zm27.84 13.17l19.95 5.67v234.82l-19.95 5.02V22.74z"/><path d="M99.96 16.35v257.3l23.22-5.82V22.29l-23.22-5.94zm1.58 6.39l19.95 5.67v234.82l-19.95 5.02V22.74z" fill="url(#linear-gradient-5)" stroke-width="0"/><path fill="url(#linear-gradient-6)" opacity=".5" stroke-width="0" d="M101.54 22.74v245.51l19.95-5.02V28.41l-19.95-5.67z"/><path d="M121.49 68.2V55.35c-6.61 6.19-13.27 12.33-19.95 18.44v12.78c2.04-1.75 15.35-14.4 19.95-18.38z" style="mix-blend-mode:screen" fill="url(#linear-gradient-7)" stroke-width="0"/><path d="M121.49 82.8v-8.36c-6.64 5.73-13.29 11.47-19.95 17.18v8.88a761.41 761.41 0 0 0 19.95-17.7z" style="mix-blend-mode:screen" fill="url(#linear-gradient-8)" stroke-width="0"/><path d="M121.49 133.6v-11.77c-6.63 6.15-13.28 12.27-19.95 18.38v11.54c4.05-3.68 17.36-15.87 19.95-18.15z" style="mix-blend-mode:screen" fill="url(#linear-gradient-9)" stroke-width="0"/><path fill="url(#linear-gradient-10)" stroke-width="0" d="M73.7 279.6v-17.53l70.74-13.3v14.68L73.7 279.6z"/><path class="cls-51" d="M74.98 278.14v-14.57l68.18-13.07v12.21l-68.18 15.43z"/><path style="mix-blend-mode:color-burn" fill="url(#linear-gradient-11)" stroke-width="0" d="M74.95 278.14v-14.57l68.17-13.07v12.21l-68.17 15.43z"/><path fill="url(#linear-gradient-12)" stroke-width="0" d="M144.37 27.82l.08 15.67L73.7 29.01V9.57l70.67 18.25z"/><path class="cls-51" d="M142.66 28.88l.04 12.46-67.17-13.76.01-15.74 67.12 17.04z"/><path style="mix-blend-mode:color-burn" fill="url(#linear-gradient-13)" stroke-width="0" d="M142.66 28.88l.04 12.46-67.17-13.76.01-15.74 67.12 17.04z"/><path fill="url(#linear-gradient-14)" stroke-width="0" d="M99.96 34.38v222.75l-6.15 1.16V33.03l6.15 1.35z"/><path class="cls-51" d="M100.28 34.34v222.73l-4.69.89V33.49l4.69.85z"/><path fill="url(#linear-gradient-15)" stroke-width="0" d="M126.73 39.87v213.27l-5.24.74V38.82l5.24 1.05z"/><path class="cls-51" d="M125.87 39.69v212.59l-3.24.61.03-213.89 3.21.69z"/><path style="mix-blend-mode:screen" fill="url(#linear-gradient-16)" stroke-width="0" d="M73.7 279.6l1.59-.36.25-267.4 67.12 17.04.5 234.86 1.28-.29-.07-235.96L73.7 9.57V279.6z"/><path style="mix-blend-mode:color-burn" fill="url(#linear-gradient-17)" stroke-width="0" d="M93.81 33.13v225.16l-18.5 3.48.26-232.38 18.24 3.74z"/><path style="mix-blend-mode:color-burn" fill="url(#linear-gradient-18)" stroke-width="0" d="M142.74 43.14l-16.01-3.27v212.24l16.43-3.09-.42-205.88z"/><path fill="url(#linear-gradient-19)" stroke-width="0" d="M68.11 133.09h4.57l.05 18.68h-4.62v-18.68z"/><path style="mix-blend-mode:multiply" fill="url(#linear-gradient-20)" stroke-width="0" d="M68.11 133.09h4.57l.05 18.68h-4.62v-18.68z"/><path fill="url(#linear-gradient-21)" stroke-width="0" d="M68.11 138.19h3.52v8.07h-3.52z"/><path style="mix-blend-mode:multiply" fill="url(#linear-gradient-22)" stroke-width="0" d="M68.11 138.19h3.52v8.07h-3.52z"/><path style="mix-blend-mode:multiply" fill="#b0b4b9" stroke-width="0" d="M70.2 139.01h1.64v6.51H70.2z"/><rect x="75.61" y="137.58" width="9" height="9" rx=".81" ry=".81" fill="#b0b4b9" stroke-width="0"/><rect x="75.61" y="137.58" width="9" height="9" rx=".81" ry=".81" fill="url(#linear-gradient-23)" stroke-width="0"/><rect x="75.61" y="137.58" width="9" height="9" rx=".81" ry=".81" style="mix-blend-mode:multiply" fill="url(#linear-gradient-24)" stroke-width="0"/><path d="M85.09 137.96H76.8c-.45 0-.81.36-.81.81v7.37c0 .45.36.81.81.81H85.09c.45 0 .81-.36.81-.81v-7.37c0-.45-.36-.81-.81-.81z" style="mix-blend-mode:color-burn" fill="url(#linear-gradient-25)" stroke-width="0"/><rect x="76.53" y="137.58" width="9" height="9" rx=".81" ry=".81" fill="url(#linear-gradient-26)" stroke-width="0"/><path d="M85.15 146.14v-7.37c0-.45-.36-.81-.81-.81h-7.37c-.13 0-.25.03-.35.08.13-.27.41-.46.73-.46h7.37c.45 0 .81.36.81.81v7.37c0 .32-.19.6-.46.73.05-.11.08-.23.08-.35z" style="mix-blend-mode:screen" fill="url(#linear-gradient-27)" stroke-width="0"/><rect x="77.54" y="138.59" width="6.99" height="6.99" rx=".61" ry=".61" fill="url(#linear-gradient-28)" stroke-width="0"/><path d="M89.3 142.52c5.26-.23 9.54.15 9.57.85.03.7-4.21 1.44-9.46 1.67-5.26.23-9.54-.15-9.57-.85-.03-.7 4.21-1.44 9.46-1.67z" style="mix-blend-mode:multiply" fill="url(#radial-gradient)" stroke-width="0"/><rect x="78.89" y="139.94" width="4.29" height="4.29" rx=".47" ry=".47" style="mix-blend-mode:color-burn" fill="url(#linear-gradient-29)" stroke-width="0"/><rect x="79.94" y="140.47" width="4.13" height="3.22" rx=".67" ry=".67" fill="url(#linear-gradient-30)" stroke-width="0"/><path d="M83.82 143.69h-3.63c-.14 0-.25-.11-.25-.25v-.59c1.4-.03 1.81-1.56 1.98-2.37h1.9c.14 0 .25.11.25.25v2.71c0 .14-.11.25-.25.25z" style="mix-blend-mode:multiply" fill="url(#linear-gradient-31)" stroke-width="0"/><path d="M82.85 139.65h.22v4.86h-.22c-.73 0-1.32-.59-1.32-1.32v-2.22c0-.73.59-1.32 1.32-1.32z" fill="url(#linear-gradient-32)" stroke-width="0"/><path d="M82.85 139.65h.22v4.86h-.22c-.73 0-1.32-.59-1.32-1.32v-2.22c0-.73.59-1.32 1.32-1.32z" fill="url(#linear-gradient-33)" stroke-width="0"/><path d="M82.85 139.65h.22v4.86h-.22c-.73 0-1.32-.59-1.32-1.32v-2.22c0-.73.59-1.32 1.32-1.32z" style="mix-blend-mode:multiply" fill="url(#linear-gradient-34)" stroke-width="0"/><path d="M82.72 140.02l-.02 4.11c0 .22.19.39.41.37l13.63-1.1c.11 0 .21-.06.27-.13l.74-.87c.1-.11.12-.27.05-.4l-.58-1.14a.401.401 0 0 0-.33-.21l-13.77-1.01c-.22-.01-.41.16-.41.37z" fill="url(#linear-gradient-35)" stroke-width="0"/><path d="M82.71 142.25v1.9c-.01.21.17.38.39.37l13.65-1.1c.1 0 .2-.05.26-.13l.76-.89s.08-.15.07-.17l-15.13.03z" style="mix-blend-mode:multiply" fill="url(#linear-gradient-36)" stroke-width="0"/><path style="mix-blend-mode:screen" fill="url(#linear-gradient-37)" stroke-width="0" d="M82.72 140.23l-.01 1.22 14.85.08-.24-.47-14.6-.83z"/><path class="cls-14" d="M250.08 285.11h5.17c1.01-9.45 2.07-19.46 3.05-28.74 1.88-17.81 3.66-34.64 4-36.57.41-2.33.56-3.2 5.93-3.2h7.56c5.36 0 5.51.87 5.92 3.2.34 1.93 2.12 18.73 4 36.52.98 9.3 2.04 19.32 3.06 28.78h5.16c-1.03-9.62-2.11-19.85-3.11-29.32-2.28-21.56-3.7-34.88-4.04-36.88-.83-4.72-2.9-7.44-10.98-7.44h-7.56c-8.09 0-10.15 2.73-10.98 7.44-.35 2-1.77 15.33-4.05 36.92-1 9.46-2.08 19.67-3.11 29.28zM343.3 214.71c.73-1.37 1.22-3.03 1.47-4.93 1.05-8.05 8.84-56.43 8.92-56.92l-5.07-.82c-.32 1.99-7.88 48.95-8.94 57.07-.17 1.29-.48 2.37-.91 3.19l4.54 2.41z"/><path class="cls-14" d="M285.65 214.71c.73-1.37 1.22-3.03 1.47-4.93 1.05-8.05 8.84-56.43 8.92-56.92l-5.07-.82c-.32 1.99-7.88 48.95-8.94 57.07-.17 1.29-.48 2.37-.91 3.19l4.54 2.41z"/><path class="cls-37" transform="rotate(180 297.715 214.305)" d="M264.37 209.63h66.69v9.36h-66.69z"/><path class="cls-37" d="M282.36 197.22c1.83.31 3.58-.93 3.89-2.75l6.94-40.53c.31-1.83-.93-3.58-2.75-3.89-1.83-.31-3.58.93-3.89 2.75l-6.94 40.53c-.31 1.83.93 3.58 2.75 3.89z"/><path class="cls-37" d="M289.9 150.02h66.36l-7.41 47.2h-66.46l7.51-47.2z"/><path class="cls-20" d="M338.89 209.64h-27.44c-2.57 0-4.67 2.1-4.67 4.67s2.1 4.67 4.67 4.67h27.44c2.57 0 4.67-2.1 4.67-4.67s-2.1-4.67-4.67-4.67z"/><path class="cls-1" d="M304.24 285.11h5.17c1.01-9.46 2.08-19.48 3.06-28.78 1.88-17.79 3.66-34.59 4-36.52.4-2.33.56-3.2 5.92-3.2h7.56c5.36 0 5.51.87 5.92 3.2.34 1.93 2.12 18.73 4 36.52.98 9.3 2.04 19.32 3.06 28.78h5.17c-1.04-9.62-2.12-19.85-3.12-29.32-2.28-21.56-3.69-34.88-4.04-36.88-.83-4.72-2.89-7.44-10.98-7.44h-7.56c-8.09 0-10.15 2.73-10.98 7.44-.35 2-1.77 15.31-4.04 36.88-1 9.47-2.08 19.7-3.12 29.32z"/><path class="cls-37" d="M284.73 209.64h-27.44c-2.57 0-4.67 2.1-4.67 4.67s2.1 4.67 4.67 4.67h27.44c2.57 0 4.67-2.1 4.67-4.67s-2.1-4.67-4.67-4.67z"/><path class="cls-20" d="M348.29 197.22c1.83.31 3.58-.93 3.89-2.75l6.94-40.53c.31-1.83-.93-3.58-2.75-3.89-1.83-.31-3.58.93-3.89 2.75l-6.94 40.53c-.31 1.83.93 3.58 2.75 3.89z"/><path class="cls-14" d="M242.75 274.47h5.17c1.01-9.45 2.07-19.46 3.05-28.74 1.88-17.81 3.66-34.64 4-36.57.41-2.33.56-3.2 5.93-3.2h7.56c5.36 0 5.51.87 5.92 3.2.34 1.93 2.12 18.73 4 36.52.98 9.3 2.04 19.32 3.06 28.78h5.16c-1.03-9.62-2.11-19.85-3.11-29.32-2.28-21.56-3.7-34.88-4.04-36.88-.83-4.72-2.9-7.44-10.98-7.44h-7.56c-8.09 0-10.15 2.73-10.98 7.44-.35 2-1.77 15.33-4.05 36.92-1 9.46-2.08 19.67-3.11 29.28zM335.96 204.06c.73-1.37 1.22-3.03 1.47-4.93 1.05-8.05 8.84-56.43 8.92-56.92l-5.07-.82c-.32 1.99-7.88 48.95-8.94 57.07-.17 1.29-.48 2.37-.91 3.19l4.54 2.41z"/><path class="cls-14" d="M278.31 204.06c.73-1.37 1.22-3.03 1.47-4.93 1.05-8.05 8.84-56.43 8.92-56.92l-5.07-.82c-.32 1.99-7.88 48.95-8.94 57.07-.17 1.29-.48 2.37-.91 3.19l4.54 2.41z"/><path class="cls-37" transform="rotate(180 290.375 203.66)" d="M257.03 198.98h66.69v9.36h-66.69z"/><path class="cls-37" d="M275.02 186.57c1.83.31 3.58-.93 3.89-2.75l6.94-40.53c.31-1.83-.93-3.58-2.75-3.89-1.83-.31-3.58.93-3.89 2.75l-6.94 40.53c-.31 1.83.93 3.58 2.75 3.89z"/><path class="cls-37" d="M282.56 139.37h66.36l-7.4 47.2h-66.47l7.51-47.2z"/><path class="cls-20" d="M331.55 198.99h-27.44c-2.57 0-4.67 2.1-4.67 4.67s2.1 4.67 4.67 4.67h27.44c2.57 0 4.67-2.1 4.67-4.67s-2.1-4.67-4.67-4.67z"/><path class="cls-1" d="M296.9 274.47h5.17c1.01-9.46 2.08-19.48 3.06-28.78 1.88-17.79 3.66-34.59 4-36.52.4-2.33.56-3.2 5.92-3.2h7.56c5.36 0 5.51.87 5.92 3.2.34 1.93 2.12 18.73 4 36.52.98 9.3 2.04 19.32 3.06 28.78h5.17c-1.04-9.62-2.12-19.85-3.12-29.32-2.28-21.56-3.69-34.88-4.04-36.88-.83-4.72-2.89-7.44-10.98-7.44h-7.56c-8.09 0-10.15 2.73-10.98 7.44-.35 2-1.77 15.31-4.04 36.88-1 9.47-2.08 19.7-3.12 29.32z"/><path class="cls-37" d="M277.39 198.99h-27.44c-2.57 0-4.67 2.1-4.67 4.67s2.1 4.67 4.67 4.67h27.44c2.57 0 4.67-2.1 4.67-4.67s-2.1-4.67-4.67-4.67z"/><path class="cls-20" d="M340.96 186.57c1.83.31 3.58-.93 3.89-2.75l6.94-40.53c.31-1.83-.93-3.58-2.75-3.89-1.83-.31-3.58.93-3.89 2.75l-6.94 40.53c-.31 1.83.93 3.58 2.75 3.89z"/><path class="cls-14" d="M235.51 263.94h5.17c1.01-9.45 2.07-19.46 3.05-28.74 1.88-17.81 3.66-34.64 4-36.57.41-2.33.56-3.2 5.93-3.2h7.56c5.36 0 5.51.87 5.92 3.2.34 1.93 2.12 18.73 4 36.52.98 9.3 2.04 19.32 3.06 28.78h5.16c-1.03-9.62-2.11-19.85-3.11-29.32-2.28-21.56-3.7-34.88-4.04-36.88-.83-4.72-2.9-7.44-10.98-7.44h-7.56c-8.09 0-10.15 2.73-10.98 7.44-.35 2-1.77 15.33-4.05 36.92-1 9.46-2.08 19.67-3.11 29.28zM328.73 193.54c.73-1.37 1.22-3.03 1.47-4.93 1.05-8.05 8.84-56.43 8.92-56.92l-5.07-.82c-.32 1.99-7.88 48.95-8.94 57.07-.17 1.29-.48 2.37-.91 3.19l4.54 2.41z"/><path class="cls-14" d="M271.08 193.54c.73-1.37 1.22-3.03 1.47-4.93 1.05-8.05 8.84-56.43 8.92-56.92l-5.07-.82c-.32 1.99-7.88 48.95-8.94 57.07-.17 1.29-.48 2.37-.91 3.19l4.54 2.41z"/><path class="cls-37" transform="rotate(180 283.14 193.14)" d="M249.79 188.46h66.69v9.36h-66.69z"/><path class="cls-37" d="M267.79 176.05c1.83.31 3.58-.93 3.89-2.75l6.94-40.53c.31-1.83-.93-3.58-2.75-3.89-1.83-.31-3.58.93-3.89 2.75l-6.94 40.53c-.31 1.83.93 3.58 2.75 3.89z"/><path class="cls-37" d="M275.33 128.85h66.36l-7.41 47.2h-66.47l7.52-47.2z"/><path class="cls-20" d="M324.31 188.47h-27.44c-2.57 0-4.67 2.1-4.67 4.67s2.1 4.67 4.67 4.67h27.44c2.57 0 4.67-2.1 4.67-4.67s-2.1-4.67-4.67-4.67z"/><path class="cls-1" d="M289.67 263.94h5.17c1.01-9.46 2.08-19.48 3.06-28.78 1.88-17.79 3.66-34.59 4-36.52.4-2.33.56-3.2 5.92-3.2h7.56c5.36 0 5.51.87 5.92 3.2.34 1.93 2.12 18.73 4 36.52.98 9.3 2.04 19.32 3.06 28.78h5.17c-1.04-9.62-2.12-19.85-3.12-29.32-2.28-21.56-3.69-34.88-4.04-36.88-.83-4.72-2.89-7.44-10.98-7.44h-7.56c-8.09 0-10.15 2.73-10.98 7.44-.35 2-1.77 15.31-4.04 36.88-1 9.47-2.08 19.7-3.12 29.32z"/><path class="cls-37" d="M270.15 188.47h-27.44c-2.57 0-4.67 2.1-4.67 4.67s2.1 4.67 4.67 4.67h27.44c2.57 0 4.67-2.1 4.67-4.67s-2.1-4.67-4.67-4.67z"/><path class="cls-20" d="M333.72 176.05c1.83.31 3.58-.93 3.89-2.75l6.94-40.53c.31-1.83-.93-3.58-2.75-3.89-1.83-.31-3.58.93-3.89 2.75l-6.94 40.53c-.31 1.83.93 3.58 2.75 3.89z"/><path class="cls-14" d="M228.17 253.3h5.17c1.01-9.45 2.07-19.46 3.05-28.74 1.88-17.81 3.66-34.64 4-36.57.41-2.33.56-3.2 5.93-3.2h7.56c5.36 0 5.51.87 5.92 3.2.34 1.93 2.12 18.73 4 36.52.98 9.3 2.04 19.32 3.06 28.78h5.16c-1.03-9.62-2.11-19.85-3.11-29.32-2.28-21.56-3.7-34.88-4.04-36.88-.83-4.72-2.9-7.44-10.98-7.44h-7.56c-8.09 0-10.15 2.73-10.98 7.44-.35 2-1.77 15.33-4.05 36.92-1 9.46-2.08 19.67-3.11 29.28zM321.39 182.89c.73-1.37 1.22-3.03 1.47-4.93 1.05-8.05 8.84-56.43 8.92-56.92l-5.07-.82c-.32 1.99-7.88 48.95-8.94 57.07-.17 1.29-.48 2.37-.91 3.19l4.54 2.41z"/><path class="cls-14" d="M263.74 182.89c.73-1.37 1.22-3.03 1.47-4.93 1.05-8.05 8.84-56.43 8.92-56.92l-5.07-.82c-.32 1.99-7.88 48.95-8.94 57.07-.17 1.29-.48 2.37-.91 3.19l4.54 2.41z"/><path class="cls-37" transform="rotate(180 275.8 182.495)" d="M242.46 177.82h66.69v9.36h-66.69z"/><path class="cls-37" d="M260.45 165.4c1.83.31 3.58-.93 3.89-2.75l6.94-40.53c.31-1.83-.93-3.58-2.75-3.89-1.83-.31-3.58.93-3.89 2.75l-6.94 40.53c-.31 1.83.93 3.58 2.75 3.89z"/><path class="cls-37" d="M267.99 118.2h66.36l-7.41 47.2h-66.46l7.51-47.2z"/><path class="cls-20" d="M316.97 177.82h-27.44c-2.57 0-4.67 2.1-4.67 4.67s2.1 4.67 4.67 4.67h27.44c2.57 0 4.67-2.1 4.67-4.67s-2.1-4.67-4.67-4.67z"/><path class="cls-1" d="M282.33 253.3h5.17c1.01-9.46 2.08-19.48 3.06-28.78 1.88-17.79 3.66-34.59 4-36.52.4-2.33.56-3.2 5.92-3.2h7.56c5.36 0 5.51.87 5.92 3.2.34 1.93 2.12 18.73 4 36.52.98 9.3 2.04 19.32 3.06 28.78h5.17c-1.04-9.62-2.12-19.85-3.12-29.32-2.28-21.56-3.69-34.88-4.04-36.88-.83-4.72-2.89-7.44-10.98-7.44h-7.56c-8.09 0-10.15 2.73-10.98 7.44-.35 2-1.77 15.31-4.04 36.88-1 9.47-2.08 19.7-3.12 29.32z"/><path class="cls-37" d="M262.82 177.82h-27.44c-2.57 0-4.67 2.1-4.67 4.67s2.1 4.67 4.67 4.67h27.44c2.57 0 4.67-2.1 4.67-4.67s-2.1-4.67-4.67-4.67z"/><path class="cls-20" d="M326.38 165.4c1.83.31 3.58-.93 3.89-2.75l6.94-40.53c.31-1.83-.93-3.58-2.75-3.89-1.83-.31-3.58.93-3.89 2.75l-6.94 40.53c-.31 1.83.93 3.58 2.75 3.89z"/><path fill="#7878a0" stroke-width="0" d="M259.49 75.45h16.06v35.08h-16.06z"/><rect x="261.49" y="78.55" width="12.06" height="7.1" rx=".6" ry=".6" fill="#008cff" stroke="#55556b" stroke-miterlimit="10" stroke-width=".36"/><path class="cls-18" d="M263.9 100.81h7.24v7.06h-7.24z"/><path fill="#65ce21" stroke-width="0" d="M264.95 101.85h5.14v4.97h-5.14z"/><path d="M268.11 75.45h-9.81l1.58 1.5h15.27l1.58-1.5h-8.62z" fill="#9494bf" stroke-width="0"/><path d="M266.93 110.97h9.81l-1.58-1.5h-15.27l-1.58 1.5h8.62z" fill="#4f4f6d" stroke-width="0"/><path class="cls-35" d="M259.88 76.95v32.52l-1.57 1.5V75.45l1.57 1.5zM275.16 76.95v32.52l1.57 1.5V75.45l-1.57 1.5z"/><rect class="cls-18" x="262.84" y="87.06" width="2.54" height="2.54" rx=".46" ry=".46"/><rect class="cls-18" x="266.25" y="87.06" width="2.54" height="2.54" rx=".46" ry=".46"/><rect class="cls-18" x="269.66" y="87.06" width="2.54" height="2.54" rx=".46" ry=".46"/><rect class="cls-18" x="262.84" y="90.33" width="2.54" height="2.54" rx=".46" ry=".46"/><rect class="cls-18" x="266.25" y="90.33" width="2.54" height="2.54" rx=".46" ry=".46"/><rect class="cls-18" x="269.66" y="90.33" width="2.54" height="2.54" rx=".46" ry=".46"/><rect class="cls-18" x="262.84" y="93.59" width="2.54" height="2.54" rx=".46" ry=".46"/><rect class="cls-18" x="266.25" y="93.59" width="2.54" height="2.54" rx=".46" ry=".46"/><rect class="cls-18" x="269.66" y="93.59" width="2.54" height="2.54" rx=".46" ry=".46"/><rect class="cls-18" x="262.84" y="96.85" width="2.54" height="2.54" rx=".46" ry=".46"/><rect class="cls-18" x="266.25" y="96.85" width="2.54" height="2.54" rx=".46" ry=".46"/><rect class="cls-18" x="269.66" y="96.85" width="2.54" height="2.54" rx=".46" ry=".46"/><path class="cls-26" d="M264.16 87.8l-.25.13-.04-.15.31-.17h.16v1.42h-.19v-1.24zM267.07 89.05v-.12c.3-.29.72-.68.68-.89.02-.32-.4-.34-.58-.16l-.06-.14c.28-.27.86-.15.83.27.02.28-.31.6-.6.87s.64 0 .64 0v.16h-.9zM270.54 88.82c.65.38.96-.52.16-.47v-.14c.69.06.45-.73-.11-.36l-.05-.14c.57-.37 1.13.27.51.56.71.23.14 1.09-.57.7l.05-.15zM264.25 92.3v-.39h-.66v-.13l.63-.9h.21v.88h.2v.15h-.2v.39h-.18zm0-.54v-.7c-.07.16-.36.54-.46.69s.46 0 .46 0zM267.93 91.04h-.54l-.05.36c1.06-.09.63 1.29-.26.83l.05-.15c.74.38.94-.71.03-.53l.09-.68h.68v.16zM271.28 91.02c-.33-.03-.62.24-.64.51.23-.31.8-.15.77.29 0 .26-.18.5-.47.5-.84-.05-.58-1.53.33-1.46v.16zm-.05.82c.03-.4-.54-.43-.59-.07-.03.48.58.57.59.07zM264.55 94.15c.09.04-.6 1.36-.62 1.42h-.2s.62-1.25.61-1.26h-.69v-.16h.89zM267.04 95.21c0-.18.11-.31.28-.38-.41-.2-.21-.72.21-.7.46 0 .57.49.18.68.48.17.3.81-.2.78-.3 0-.48-.18-.48-.38zm.76 0c0-.17-.12-.26-.31-.31-.35.08-.34.56.03.56.17 0 .28-.11.28-.25zm-.53-.71c0 .14.11.22.27.26.27-.06.31-.48-.02-.49-.16 0-.25.1-.25.23zM270.57 95.43c.32.03.6-.18.64-.52-.24.3-.78.12-.75-.28 0-.27.19-.5.48-.5.78.04.57 1.56-.36 1.46v-.16zm.07-.82c-.03.36.52.4.57.08.05-.5-.55-.59-.57-.08zM264.46 97.72l-.27.36.43-.05v.2l-.43-.05.28.35-.18.1-.17-.4-.19.41-.16-.1.27-.35-.43.05v-.2l.42.05-.27-.36.18-.1.18.4.18-.4.17.1zM268 98.11c.05.97-.99 1.01-.96.02-.04-.97 1.01-.98.96-.02zm-.77.02c-.02.79.62.75.58-.01.04-.75-.6-.78-.58.01zM270.59 98.83l.06-.43h-.18v-.13h.2l.04-.32h-.19v-.13h.21l.06-.42h.13l-.05.42h.23l.06-.42h.13l-.05.42h.18v.13h-.2l-.04.32h.19v.13h-.21l-.06.43h-.13l.06-.43h-.23l-.06.43h-.13zm.43-.56l.04-.32h-.23l-.04.32h.23z"/><path fill="#4ea814" stroke-width="0" d="M264.95 101.85h5.14v3.57h-5.14z"/><path d="M263.77 84.74l4.93-5.18c.1-.1.01-.26-.14-.26h-6.14c-.1 0-.18.07-.18.16v5.29c0 .09.08.16.18.16.29-.05 1.14.12 1.35-.16z" fill="#00abff" stroke-width="0"/><path class="cls-26" d="M269.31 82.11a.439.439 0 0 0-.31-.13h-2.96c-.12 0-.23.05-.31.13-.08.08-.13.19-.13.31v1.92a.44.44 0 0 0 .44.44H269c.1 0 .19-.03.26-.09.11-.08.18-.21.18-.35v-1.92c0-.12-.05-.23-.13-.31zm-1.37 1.92c.03.08-.03.16-.12.16h-.61c-.08 0-.14-.08-.12-.16l.14-.42c-.36-.19-.35-.68-.08-.91.02-.02.05-.04.08-.06.07-.04.15-.06.24-.07.58-.05.81.77.31 1.03l.14.42zM266.53 80.9v.68h-.43v-.68c0-.5-.4-.9-.9-.9s-.9.4-.9.9v.68h-.43v-.68c0-.73.6-1.33 1.33-1.33s1.33.6 1.33 1.33zM265.82 105.73c-.55 0-.55.83 0 .83s.54-.83 0-.83zM269.22 105.73c-.55 0-.55.83 0 .83s.54-.83 0-.83z"/></g></g></svg>