<svg xmlns="http://www.w3.org/2000/svg" viewBox="0 0 400 300"><defs><style>.cls-1{fill:#1e2322}.cls-1,.cls-11,.cls-12,.cls-15,.cls-17,.cls-2,.cls-3,.cls-5,.cls-7{stroke-width:0}.cls-2{fill:#6a5e62}.cls-3{fill:#edefee}.cls-12,.cls-5,.cls-7{fill:#c3b9c4}.cls-17,.cls-5{mix-blend-mode:multiply}.cls-7{mix-blend-mode:screen;opacity:.75}.cls-11,.cls-17{fill:#373133}.cls-15{fill:#453d40}</style></defs><g style="isolation:isolate"><g id="Lager_1"><path fill="#fde19f" stroke-width="0" d="M0 0h400v171.77H0z"/><path fill="#e8e9e3" stroke-width="0" d="M0 171.77h400V300H0z"/><path class="cls-11" d="M301.48 72.36c-18.51 0-34.79-1.38-44.25-3.46-.58 9.52-1.43 18.27-2.32 26.36 8.95 2.39 26.44 4.02 46.57 4.02s37.66-1.63 46.6-4.03c-.89-8.13-1.75-16.88-2.34-26.35-9.45 2.08-25.74 3.46-44.26 3.46z"/><path class="cls-12" d="M345.75 68.9c-.49-7.91-.81-16.31-.81-25.27 0-3.47-19.47-6.28-43.45-6.28s-43.45 2.81-43.45 6.28c0 9-.31 17.4-.79 25.27 9.46 2.08 25.74 3.46 44.25 3.46s34.81-1.38 44.26-3.46z"/><path class="cls-5" d="M344.94 43.63h-2.45c.1 1.56-5.15 3.04-18.6 4.12.09 8.23.27 16.18.51 23.85 8.7-.61 16.09-1.55 21.35-2.71-.49-7.91-.81-16.31-.81-25.27z"/><path class="cls-7" d="M263.48 45.36c-.06 7.79-.28 13.41-.72 20.38 5.26 1.16 14.12 2.26 21.29 2.26.23-7.1.37-12.24.46-19.82l-21.04-2.82z"/><path class="cls-12" d="M254.93 95.26c-1.98 17.99-4.18 32.72-4.18 45.49 0 48.97 9.96 71.06 12.48 108.07 9.64 1.46 23.21 2.37 38.27 2.37s28.63-.91 38.27-2.37c2.52-37.02 12.48-59.1 12.48-108.07 0-12.7-2.17-27.57-4.15-45.5-8.94 2.4-26.45 4.03-46.6 4.03s-37.62-1.62-46.57-4.02z"/><path class="cls-7" d="M279.16 140.75c0-9.34 1.27-20.08 2.74-32.52.07-.59.72-3.86 1.01-5.69-8.54-.38-14.86-1.48-20.64-2.38-.15 1.28-.96 6.81-1.1 8.06-1.47 12.44-2.74 23.18-2.74 32.52 0 28.39 3.44 47.6 6.77 66.19 1.97 10.97 3.99 22.27 5.18 35.07 6.16.67 13.34 1.14 20.94 1.36-1.21-12.6-3.46-25.64-5.39-36.43-3.33-18.58-6.77-37.8-6.77-66.19z"/><path class="cls-5" d="M348.1 95.25c-5.02 1.35-12.74 2.45-22.12 3.16 1.67 15.39 3.22 28.55 3.22 40.04 0 50.96-9.4 74.74-12.25 112.42 8.79-.39 16.61-1.1 22.81-2.04 2.52-37.02 12.48-59.1 12.48-108.07 0-12.7-2.17-27.57-4.15-45.5z"/><path d="M261.34 43.64c2.2.89 6.96 1.95 14.29 2.75v-2.75h51.72v2.75c7.33-.8 12.09-1.87 14.29-2.75-4.17-1.68-17.51-3.99-40.15-3.99s-35.99 2.3-40.15 3.99z" fill="none" stroke-width="0"/><path class="cls-15" d="M301.5 37.35c-24.03 0-43.5 2.82-43.5 6.29s19.48 6.29 43.5 6.29 43.5-2.82 43.5-6.29-19.48-6.29-43.5-6.29zm25.86 9.05c-6.56.72-15.17 1.23-25.86 1.23s-19.3-.51-25.86-1.23c-7.33-.8-12.09-1.87-14.29-2.75 4.17-1.68 17.51-3.99 40.15-3.99s35.99 2.3 40.15 3.99c-2.2.89-6.96 1.95-14.29 2.75z"/><path class="cls-11" d="M301.5 44.86c-10.3 0-17.89-.61-23.04-1.32v3.11c5.84.64 13.52 1.1 23.04 1.1s17.2-.46 23.04-1.1v-3.11c-5.15.72-12.74 1.32-23.04 1.32z"/><path class="cls-15" d="M324.54 43.54c-5.15-.72-12.74-1.32-23.04-1.32s-17.89.61-23.04 1.32c5.15.72 12.74 1.32 23.04 1.32s17.89-.61 23.04-1.32z"/><path class="cls-11" d="M301.48 100.81c-19.58 0-37.57-1.56-46.96-4.07-.73-.2-1.21-.9-1.13-1.65 1.08-9.79 1.82-18.15 2.32-26.28.06-.94.94-1.61 1.86-1.41 9.73 2.14 26.15 3.42 43.91 3.42s34.2-1.28 43.93-3.42c.92-.2 1.8.46 1.86 1.4.5 8.04 1.24 16.4 2.33 26.28.08.75-.4 1.46-1.13 1.65-9.38 2.52-27.39 4.08-47 4.08z"/><path class="cls-17" d="M349.61 95.08c0-.07-.01-.14-.02-.21-.01 0-.02 0-.03.01-.47.12-.96.24-1.47.36-.89-8.12-1.74-16.88-2.34-26.35-5.21 1.15-12.51 2.08-21.11 2.69.42 9.24.89 18.09 1.4 26.55-7.49.54-15.87.83-24.55.83-20.03 0-38.43-1.56-48.04-4.07s-.02 0-.03-.01c0 .07-.01.14-.02.21-.08.75.4 1.46 1.13 1.65 9.39 2.51 27.38 4.07 46.96 4.07s37.62-1.56 47-4.08c.73-.2 1.21-.9 1.13-1.65z"/><path class="cls-2" d="M345.41 67.4c-9.73 2.14-26.15 3.42-43.93 3.42s-34.18-1.28-43.91-3.42a1.54 1.54 0 0 0-1.82 1.15c.22-.05.46-.06.7 0 2.09.45 4.51.86 7.16 1.23-.08 4.18-.61 19.7-1.46 25.42 6.27 1.28 13.84 2.13 21.39 2.53.72-5.56.73-22.45.75-26.15 5.46.26 11.25.4 17.2.4 18.23 0 35.08-1.28 45.05-3.42.24-.05.48-.05.7 0-.19-.8-.98-1.33-1.82-1.15z"/><path class="cls-11" d="M339.53 247.31c-10.02 1.52-23.53 2.35-38.04 2.35s-28.02-.84-38.04-2.35c-.97-.16-1.76.51-1.76 1.49v.13c.38 5.65.57 11.23.57 17.05 0 1.61 1.02 3.46 13.18 4.97 7.35.92 16.84 1.44 26.05 1.44s18.7-.53 26.05-1.44c7.41-.92 11.14-1.97 12.68-3.01.32-.22.51-.58.51-.96v-1c0-5.83.19-11.41.57-17.07.07-.98-.79-1.77-1.76-1.61z"/><path class="cls-17" d="M340.21 265.96c-.36.25-.85.49-1.48.74.29-.23.45-.47.45-.71 0-6.12.21-11.79.57-17.15-6.27.95-14.21 1.66-23.13 2.05-.16 6.09-.25 12.44-.25 19.09-4.79.29-9.88.45-14.89.45-9.2 0-18.7-.52-26.05-1.44-12.16-1.52-13.04-3.37-13.18-4.97V266c0 1.61 1.02 3.46 13.18 4.97 7.35.92 16.84 1.44 26.05 1.44s18.7-.53 26.05-1.44c7.41-.92 11.14-1.97 12.68-3.01.32-.22.51-.58.51-.96v-1.98c0 .39-.19.74-.51.96z"/><path class="cls-2" d="M339.53 247.31c-10.02 1.52-23.53 2.35-38.04 2.35-3.24 0-6.42-.04-9.53-.13-7.7-.2-14.93-.65-21.26-1.31-2.57-.27-5-.57-7.24-.91-.97-.16-1.76.51-1.76 1.49v.04c.07 0 .15 0 .22.01 2.72.4 5.69.74 8.85 1.04.28 6.43.38 10.56.24 16.58 1.27.22 2.72.43 4.39.64 5 .62 10.99 1.06 17.2 1.28.08-5.86.02-10.24-.52-17.31 3.08.07 6.22.11 9.41.11 15.1 0 29.15-.84 39.57-2.35.08-.01.15 0 .22-.01.02-.94-.82-1.69-1.76-1.53z"/><path d="M224.14 249.73c-2.14 3.29-5.83 5.31-9.64 6.24-3.81.93-22.94.73-28.55.65-3.03-.05-6.04-.49-8.92-1.43-11.94-3.88-15.44-13.38-15.96-15.01-.01-.04-.02-.07-.03-.1 0-.02-.02-.04-.02-.07a.313.313 0 0 0-.02-.07c-.5-1.7-.96-3.4-1.44-5.08 0-.01 0-.02-.01-.04-.78-2.74-1.18-5.58-1.18-8.42v-6.89l1.33-1.44.56.27c7.6-2.35 15.32-4.35 23.23-5.19 6.65-.7 13.43-.56 19.98.88 3.1.68 6.08 1.66 8.94 3.01 2.63 1.24 3.97 3.36 5.19 5.94 2.13 4.5 4.26 8.99 6.4 13.48.69 1.46 1.4 2.94 1.75 4.52.68 2.97.07 6.19-1.59 8.74z" fill="#55a797" stroke-width="0"/><path class="cls-1" d="M224.14 247.26c-2.14 3.29-5.83 5.31-9.64 6.24-3.81.93-22.94.73-28.55.65-3.03-.05-6.04-.49-8.92-1.43-11.94-3.88-15.44-13.38-15.96-15.01-.01-.04-.02-.07-.03-.1 0-.02-.02-.04-.02-.07a.313.313 0 0 0-.02-.07c-.5-1.7-.96-3.4-1.44-5.08 0-.01 0-.02-.01-.04-.78-2.74-1.18-5.58-1.18-8.42v-6.89l1.33-1.44.56.27c7.6-2.35 15.32-4.35 23.23-5.19 6.65-.7 13.43-.56 19.98.88 3.1.68 6.08 1.66 8.94 3.01 2.63 1.24 3.97 3.36 5.19 5.94 2.13 4.5 4.26 8.99 6.4 13.48.69 1.46 1.4 2.94 1.75 4.52.68 2.97.07 6.19-1.59 8.74z"/><path d="M224.19 244.03c-2.08 3.29-5.67 5.31-9.37 6.24-3.7.93-22.28.73-27.74.65-2.94-.05-5.87-.49-8.67-1.43-11.6-3.88-15-13.39-15.51-15.01l-.03-.1c0-.02-.02-.04-.02-.07a.313.313 0 0 0-.02-.07c-.49-1.7-.94-3.4-1.4-5.08-1.02-3.65-1.99-7.31-2.95-10.98v-.04c-.58-2.25.69-4.56 2.9-5.27 7.62-2.45 15.36-4.55 23.29-5.42 6.46-.7 13.05-.56 19.41.88 3.01.68 5.91 1.66 8.68 3.01 2.56 1.24 3.85 3.36 5.04 5.94 2.07 4.5 4.14 8.99 6.21 13.48.68 1.46 1.36 2.94 1.7 4.52.66 2.97.07 6.19-1.54 8.74z" fill="#fff" stroke-width="0"/><path class="cls-3" d="M224.03 230.77c-1.61-3.5-3.23-7-4.84-10.5-.89 8.07-7.53 28.48-52.71 20.83 2.36 3.08 6.12 6.44 11.94 8.39 2.8.94 5.73 1.38 8.67 1.43 5.46.09 24.03.28 27.74-.65 3.7-.93 7.29-2.95 9.37-6.24 1.61-2.55 2.2-5.77 1.54-8.74-.35-1.58-1.03-3.06-1.7-4.52z"/><path d="M-367.61 280.33c-1.4 0-2.16-1.65-1.23-2.71 15.03-17.26 30.06-34.53 45.09-51.79h434.49c15.03 17.26 30.06 34.53 45.09 51.79.92 1.06.17 2.71-1.23 2.71" fill="#c2c0b4" stroke-width="0"/><path class="cls-1" d="M94.74 188.94h-402.43V-54.74c0-5.51 4.38-9.97 9.79-9.97H84.95c5.41 0 9.79 4.46 9.79 9.97v243.68z"/><path d="M82.52 165.16h-378.33V-43.13H82.52v208.29z" fill="#363f3f" stroke-width="0"/><path d="M-78.08 165.16C-29.46 95.73 19.15 26.3 67.77-43.13H17.84C-30.78 26.3-79.39 95.73-128.01 165.16h49.93z" fill="#404747" stroke-width="0"/><path class="cls-1" d="M151.8 262.12c-22.33-25.4-41.08-46.74-57.06-64.91h-402.43c-15.97 18.17-34.72 39.51-57.06 64.91h-5.85l4.32 1.74c1.9.77 3.8 1.53 5.7 2.3 2.12.85 4.23 1.71 6.35 2.56a65.4 65.4 0 0 0 24.48 4.75h446.58a65.4 65.4 0 0 0 24.48-4.75c4.01-1.61 8.01-3.23 12.02-4.85h.02l4.32-1.74h-5.88z"/><path class="cls-3" d="M148.72 263.64h-510.39c-7.21 0-11.49-1.78-9.58-3.94 25.23-28.7 46.06-52.4 63.57-72.31H94.75c17.5 19.91 38.34 43.61 63.57 72.31 1.9 2.17-2.38 3.94-9.58 3.94z"/><path d="M113.26 237.04h-439.47c12.48-15.82 23.61-29.93 33.61-42.61H79.65c10 12.68 21.14 26.79 33.61 42.61z" fill="#d0d6d4" stroke-width="0"/><path class="cls-1" d="M88.84 225.83H49.82c-.96-1.65-1.92-3.28-2.86-4.89-.32-.54 1.09-.98 3.14-.98h38.17c1.19 1.6 2.4 3.21 3.61 4.85.42.56-.94 1.01-3.04 1.01zM14.2 233.31H-9.84c-.61-1.74-1.21-3.46-1.82-5.16-.2-.57 1.34-1.03 3.45-1.03h23.5c.76 1.69 1.54 3.39 2.32 5.12.27.59-1.26 1.07-3.42 1.07zM42.76 233.31H25.04c-.29-.61-.58-1.21-.87-1.82-.28-.59 1.22-1.06 3.36-1.06h17.53c.33.6.67 1.2 1 1.8.33.59-1.15 1.07-3.31 1.07zM69.65 199.56H48.56l-.99-1.53c-.29-.45.99-.82 2.87-.81h20.89c.38.51.76 1.01 1.13 1.52.34.46-.92.83-2.81.83zM94.31 233.31H76.59c-.4-.61-.81-1.21-1.21-1.82-.39-.59 1.02-1.06 3.16-1.06h17.53c.45.6.9 1.2 1.34 1.8.44.59-.95 1.07-3.11 1.07zM68.53 233.31H50.81c-.35-.61-.69-1.21-1.04-1.82-.34-.59 1.12-1.06 3.26-1.06h17.53l1.17 1.8c.39.59-1.05 1.07-3.21 1.07zM66.37 229.92h-17.5c-.34-.59-.68-1.18-1.01-1.77-.33-.57 1.12-1.03 3.22-1.03H68.4c.38.58.76 1.17 1.14 1.76.38.58-1.05 1.05-3.17 1.05zM83.64 218.72H35.13c-.85-1.56-1.69-3.11-2.52-4.63-.28-.51 1.12-.93 3.11-.93h47.47c1.13 1.52 2.27 3.05 3.43 4.6.4.53-.94.96-2.98.96zM3.28 225.83h-23.39c-.53-1.65-1.06-3.28-1.58-4.89-.18-.54 1.35-.98 3.4-.98H4.58c.68 1.6 1.36 3.21 2.06 4.85.24.56-1.27 1.01-3.37 1.01zM37.21 225.83H13.82c-.74-1.65-1.48-3.28-2.2-4.89-.24-.54 1.23-.98 3.27-.98h22.88c.88 1.6 1.77 3.21 2.68 4.85.31.56-1.14 1.01-3.24 1.01zM22.88 218.74H.11c-.64-1.56-1.27-3.11-1.9-4.64-.21-.51 1.24-.93 3.24-.93h22.28c.78 1.52 1.56 3.05 2.35 4.6.27.53-1.17.96-3.2.96zM.6 212.02h-22.18c-.5-1.48-.99-2.95-1.47-4.4-.17-.49 1.28-.88 3.23-.88H1.9c.63 1.44 1.27 2.9 1.91 4.37.22.5-1.21.91-3.2.91zM32.96 212.02H10.78c-.68-1.48-1.36-2.95-2.04-4.4-.23-.49 1.17-.88 3.12-.88h21.72c.81 1.44 1.63 2.9 2.47 4.37.28.5-1.1.91-3.09.91zM15.48 205.63H-6.14c-.57-1.41-1.14-2.81-1.7-4.18-.19-.46 1.2-.84 3.1-.84h21.18c.7 1.37 1.4 2.75 2.11 4.15.24.48-1.13.87-3.07.87zM78.75 212.02H44.92c-.88-1.48-1.76-2.95-2.63-4.4-.29-.49 1.05-.88 3-.88h33.13c1.07 1.44 2.16 2.9 3.25 4.37.38.5-.93.91-2.92.91zM74.08 205.63H27.13c-.76-1.41-1.52-2.81-2.26-4.18-.25-.46 1.09-.84 2.99-.84h46c1.02 1.37 2.05 2.75 3.09 4.15.36.48-.93.87-2.86.87zM8.43 199.51h-21.09l-.6-1.53c-.18-.45 1.2-.81 3.07-.81h20.88c.25.51.5 1.01.75 1.52.22.46-1.13.83-3.02.83zM39.02 199.51H17.93c-.26-.51-.53-1.02-.79-1.53-.24-.45 1.1-.81 2.97-.81h20.88c.31.51.63 1.01.94 1.52.28.46-1.02.83-2.91.83z"/></g></g></svg>