<svg xmlns="http://www.w3.org/2000/svg" xmlns:xlink="http://www.w3.org/1999/xlink" viewBox="0 0 400.17 300"><defs><style>.cls-3,.cls-7{stroke-width:0}.cls-3{fill:#ffd800;opacity:.8;mix-blend-mode:screen}.cls-7{fill:#231f20;mix-blend-mode:multiply}</style><linearGradient id="linear-gradient" x1="39.05" y1="67.89" x2="39.05" y2="420.67" gradientUnits="userSpaceOnUse"><stop offset="0" stop-color="#343434"/><stop offset="1" stop-color="#212121"/></linearGradient><linearGradient id="linear-gradient-2" x1="78.73" y1="37.01" x2="78.73" y2="450.07" xlink:href="#linear-gradient"/><linearGradient id="linear-gradient-3" x1="327.61" y1="37.01" x2="327.61" y2="450.07" xlink:href="#linear-gradient"/><linearGradient id="linear-gradient-4" x1="203.17" y1="64.98" x2="203.17" y2="420.75" xlink:href="#linear-gradient"/><linearGradient id="linear-gradient-5" x1="203.17" y1="49.54" x2="203.17" y2="443.81" xlink:href="#linear-gradient"/><linearGradient id="linear-gradient-6" x1="203.17" y1="248.08" x2="203.17" y2="218.77" gradientUnits="userSpaceOnUse"><stop offset="0" stop-color="#8dc63f"/><stop offset="1" stop-color="#669b12"/></linearGradient><linearGradient id="linear-gradient-7" x1="113.66" y1="217.39" x2="113.66" y2="383.01" xlink:href="#linear-gradient"/></defs><g style="isolation:isolate"><g id="Layer_2"><path stroke-width="0" fill="#f6f6f8" d="M0 195.31h400V300H0z"/><path fill="#e3e8f2" stroke-width="0" d="M0 120.61h400v74.7H0z"/><path fill="#c7dff6" stroke-width="0" d="M0 0h400v120.61H0z"/><path fill="#dbdbda" stroke-width="0" d="M.17 120.61h400v3.73H.17z"/><path d="M39.18 200.72l-3.3-162.85c0-3.5-2.35-4.43-4.86-1.94l-3.49 3.52c-.51.52-.81 1.21-.82 1.94l-3.41 167.7c0 2.79 2.26 5.05 5.05 5.05h26.49v-13.43H39.2z" fill="url(#linear-gradient)" stroke-width="0"/><path class="cls-7" d="M28.33 214.15h26.49v-13.43H39.18l-1.48-73.18-12.96 10.22-1.45 71.34c0 2.79 2.26 5.05 5.05 5.05z"/><path d="M92.36 265.47H65.12c-1.2 0-2.17-1.13-2.17-2.52v-8.06h31.59v8.06c0 1.39-.97 2.52-2.17 2.52z" fill="url(#linear-gradient-2)" stroke-width="0"/><path d="M341.23 265.47h-27.24c-1.2 0-2.17-1.13-2.17-2.52v-8.06h31.59v8.06c0 1.39-.97 2.52-2.17 2.52z" fill="url(#linear-gradient-3)" stroke-width="0"/><path class="cls-7" d="M92.36 265.47H65.12c-1.2 0-2.17-1.13-2.17-2.52v-8.06h31.59v8.06c0 1.39-.97 2.52-2.17 2.52zM341.23 265.47h-27.24c-1.2 0-2.17-1.13-2.17-2.52v-8.06h31.59v8.06c0 1.39-.97 2.52-2.17 2.52z"/><path d="M346.28 171.34c-.41-.45-.92-.83-1.51-1.09-19.68-8.69-77.43-16.41-141.6-16.41s-121.92 7.72-141.6 16.41c-.59.26-1.09.63-1.51 1.09-2.62 2.14-29.51 55.64-30.27 59.7h346.76c-.76-4.07-27.65-57.56-30.27-59.7z" fill="url(#linear-gradient-4)" stroke-width="0"/><path d="M373.5 227.44c-23.67-10.45-93.14-19.74-170.33-19.74s-146.66 9.29-170.33 19.74a5.366 5.366 0 0 0-3.21 4.91v22.04c0 2.79 2.26 5.05 5.05 5.05h336.98c2.79 0 5.05-2.26 5.05-5.05v-22.04c0-2.13-1.26-4.05-3.21-4.91z" fill="url(#linear-gradient-5)" stroke-width="0"/><path class="cls-7" d="M373.5 227.44c-23.67-10.45-93.14-19.74-170.33-19.74s-146.66 9.29-170.33 19.74a5.366 5.366 0 0 0-3.21 4.91v22.04c0 2.79 2.26 5.05 5.05 5.05h336.98c2.79 0 5.05-2.26 5.05-5.05v-22.04c0-2.13-1.26-4.05-3.21-4.91z"/><rect x="157.43" y="223.21" width="91.48" height="24.2" rx="1.82" ry="1.82" fill="url(#linear-gradient-6)" stroke-width="0"/><circle cx="113.66" cy="235.31" r="10.36" style="mix-blend-mode:screen" fill="url(#linear-gradient-7)" stroke-width="0"/><circle class="cls-3" cx="282.96" cy="235.31" r="4.73" transform="rotate(-22.5 282.945 235.307)"/><circle class="cls-3" cx="300.22" cy="235.31" r="4.73" transform="rotate(-13.28 300.278 235.339)"/><circle class="cls-3" cx="317.49" cy="235.31" r="4.73" transform="rotate(-76.72 317.48 235.314)"/><circle class="cls-3" cx="334.76" cy="235.31" r="4.73"/><path class="cls-7" d="M172 187.55c-44.14 1.77-82.7 7.06-105.13 13.11l-2.31 5.48c21.99-6.3 61.63-11.91 107.24-13.74l.2-4.84zM172.43 177.18c-41.26 1.63-77.68 6.34-100.66 11.88l-2.28 5.39c22.78-5.77 60.18-10.74 102.74-12.43l.2-4.84zM74.35 182.94c23.12-5.28 58.47-9.72 98.31-11.28l.2-4.84c-38.64 1.5-73.08 5.72-96.25 10.79l-2.25 5.34zM234.34 187.55c44.14 1.77 82.7 7.06 105.13 13.11l2.31 5.48c-21.99-6.3-61.63-11.91-107.24-13.74l-.2-4.84zM233.91 177.18c41.26 1.63 77.68 6.34 100.66 11.88l2.28 5.39c-22.78-5.77-60.18-10.74-102.74-12.43l-.2-4.84zM331.99 182.94c-23.12-5.28-58.47-9.72-98.31-11.28l-.2-4.84c38.64 1.5 73.08 5.72 96.25 10.79l2.25 5.34z"/><path style="mix-blend-mode:screen" fill="#8dc63f" stroke-width="0" d="M163.21 247.41h49.72l24.2-24.2h-49.72l-24.2 24.2z"/></g></g></svg>